<svg xmlns="http://www.w3.org/2000/svg" width="23.6" height="23.95" viewBox="0 0 23.6 23.95">
  <g id="Icon_Download" data-name="Icon Download" transform="translate(-160.999 -88.201)">
    <path id="Path_5128" data-name="Path 5128" d="M183.9,317.8a.7.7,0,0,0-.7.7v5.419a2.1,2.1,0,0,1-2.1,2.1H164.5a2.1,2.1,0,0,1-2.1-2.1V318.5a.7.7,0,0,0-1.4,0v5.419a3.5,3.5,0,0,0,3.5,3.5H181.1a3.5,3.5,0,0,0,3.5-3.5V318.5A.7.7,0,0,0,183.9,317.8Z" transform="translate(0 -215.264)" fill="#fff"/>
    <path id="Path_5129" data-name="Path 5129" d="M340.2,106.994a.7.7,0,1,1-1.4,0V88.9a.7.7,0,1,1,1.4,0Z" transform="translate(-166.702)" fill="#fff"/>
    <path id="Path_5130" data-name="Path 5130" d="M340,316.91a.7.7,0,1,1-1-.973l4.011-4.146a.7.7,0,1,1,1,.973Z" transform="translate(-166.7 -209.43)" fill="#fff"/>
    <path id="Path_5131" data-name="Path 5131" d="M278.763,316.91a.7.7,0,0,0,1-.973l-4.011-4.146a.7.7,0,0,0-1,.973Z" transform="translate(-106.467 -209.43)" fill="#fff"/>
  </g>
</svg>
