<svg xmlns="http://www.w3.org/2000/svg" viewBox="0 0 3000 3000">
    <defs>
        <style>
            .background {
                fill: #ddd6d6;
            }
        </style><style>
            .layer6-color1 {
                fill: #fff;
            }
        </style><style>
            .layer5-color1 {
                fill: #3b99ff;
            }

            .layer5-color2 {
                fill: #0cf;
            }
        </style><style>
            .layer4-color1 {
                fill: #f9ff00;
            }

            .layer4-color2 {
                fill: #fff;
            }

            .layer4-color3 {
                fill: #1aa0a0;
            }

            .layer4-color4 {
                fill: #68ff00;
            }
        </style><style>
            .layer3-color1 {
                fill: #0abaef;
            }

            .layer3-color2 {
                fill: #ea0f82;
            }

            .layer3-color3 {
                fill: #fff;
            }
        </style><style>
            .layer1-color1 {
                fill: #fff;
            }
        </style>
    
    
    
    
    
    </defs>
    <rect class="background" width="3000" height="3000" style="fill: #ff6666;"></rect>
    <g class="patterns">
     
    
        <g class="layer6">
            <path class="layer6-color1"
                d="M2578,1648.11c-149.15-752-1208.26-487.89-1760.09-725.67C669.55,863.36,547.16,771.16,443.59,659.62c-37.15-40-104.2-147-103.21-157.11.93-9.36-5-21.17-11.42-27.57-6.76-6.77-17.86-11.86-27.58-11.43-10.08.46-20.54,3.77-27.57,11.43-7.38,8-10.35,16.74-11.43,27.57-2.68,27.13-.85,54,3.48,80.86s13.07,52.12,24.08,76.9c2.78,6.26,35.14,116.94,50.26,170.54C542,1546.46,1418.37,2555,2142,2367.08a571.16,571.16,0,0,0,187.25-64.53c74.72-41.27,139.14-98.92,189.8-167.43,28.45-38.47,50.7-80.55,68.17-125C2587.2,2010.08,2599.22,1754.45,2578,1648.11Z" />
            <path
                d="M2623.59,1658.52c-57-275-207.35-434.45-407.68-527.22-84-38.9-176.77-66.08-275.13-85.17-189.15-36.7-697.11-54.65-754.52-65.05-36.34-6.58-75-14-114.25-20.93-103.2-18.15-207.56-61.36-287.53-106-103.86-56.89-181.75-113.7-278.3-207.2C420.76,573.1,330.39,394,250.35,409.45c-31.34,6.05-35,59-26.4,122.61,24.3,167.93,45.2,246.6,111.13,430.81,122.68,302.37,254,526.22,440.66,766.75,232.64,299.82,757.43,789.31,1275,709.34C2456.44,2366,2700.28,2094.45,2623.59,1658.52Zm-78.18,344.13c-38.28,86.21-109.87,195.6-167.53,239.7-96.13,75.3-258.08,115.75-390.82,85.08-113.47-27.67-205-109.31-292.41-156.71-128.19-63.91-173.88-73.31-306.39-105.11-68.78-16.51-145.3-37.54-218.81-84.79-87.56-56.27-173.73-145.43-277.29-248.72C700,1540.4,494.64,1160.26,403.27,937.25,364,841.33,299.12,664.61,286.09,553.73c-1.35-12.38-7.71-55.12,3.08-61.64,6.48-3.92,21.47,3.55,45.09,40.09,42.45,65.74,91.95,128.22,134.64,173.7,348.2,375.43,846.93,330.45,1320.59,386.5,308.53,36.51,651.94,161.88,756.71,510.8,20.23,54.55,38.81,155.6,30,246.8C2570.11,1913.44,2562.18,1964.88,2545.41,2002.65Z" />
            <path class="layer6-color1"
                d="M2464.46,1862.2c-19.81,7.67-48.84-4-56-23.06s-.62-34.53,17.18-45.23c19.54-11.74,48.26-5.86,60.89,14.73C2496.38,1824.42,2488.21,1853,2464.46,1862.2Z" />
            <path class="layer6-color1"
                d="M2027.48,1837.31c-19.91.51-36.37-9.25-44.92-24.94-7.69-14.09-2.6-32,9.79-41.73,22.52-17.7,54.12-11.4,68.55,9.66,9.56,13.93,7.37,31.49-4.6,43.67C2048.34,1832.06,2034.48,1837.13,2027.48,1837.31Z" />
            <path class="layer6-color1"
                d="M443.69,862.16c5.51-2.7,9.41-.73,11.69,2.75,2.46,3.76,2.4,9.84-1.78,12.35s-11,.7-13.28-3.75C438.29,869.55,439.3,864.32,443.69,862.16Z" />
            <path class="layer6-color1"
                d="M495.91,834.31c3,4.1,2.5,9.08-1.26,12.2-3.46,2.86-7.33,2.61-10.88-.72-4.06-3.81-4.77-8.26-1.56-12.11C485.68,829.51,492.74,830,495.91,834.31Z" />
            <path class="layer6-color1"
                d="M1684.5,2211.77c15,.18,26.5,11.63,26.46,26.43a27,27,0,0,1-54.06-.36C1656.87,2223.71,1670.52,2209.75,1684.5,2211.77Z" />
            <path class="layer6-color1"
                d="M1744.32,2257.76c13.45-1.66,25.13,12.29,25,24.07-.18,14.62-11.18,25.41-26.3,25.36-13.42-.05-23.69-11.19-24.12-25.13C1718.53,2270.67,1729.76,2256,1744.32,2257.76Z" />
            <path class="layer6-color1"
                d="M1941.4,1208.85c-.91,13.15-11.73,21.9-25.73,20.82a22.44,22.44,0,0,1-20.85-24.28c1-12.51,12.55-22.61,24.81-21.67C1933,1184.76,1942.32,1195.5,1941.4,1208.85Z" />
            <path class="layer6-color1"
                d="M1396.83,2146.69c-13.11-.17-24.28-10.86-24.28-23.23,0-12,10.12-21,23.31-20.66,13.68.32,24.59,11.16,24.22,24.06C1419.74,2138.51,1409.94,2146.86,1396.83,2146.69Z" />
            <path class="layer6-color1"
                d="M1988.38,1202.94c12.46,1,21.68,10.91,20.82,22.47-1,13.61-11,22.64-24.08,21.72-12.47-.88-22.38-11.88-21.53-23.89S1975.69,1202,1988.38,1202.94Z" />
            <path class="layer6-color1"
                d="M1543.85,2178.05c-12.41,0-22-9.24-22-21.2a22,22,0,0,1,22.12-22.23c13.44-.2,23.78,8.5,23.91,20.13C1568,2167.3,1557,2178,1543.85,2178.05Z" />
            <path class="layer6-color1"
                d="M1637.56,2191.2c-.1,12.23-10,21.26-23,21-11.4-.19-20.88-10-21-21.78-.09-12.38,10.52-22.87,22.84-22.58C1628.27,2168.16,1637.68,2178.51,1637.56,2191.2Z" />
            <path class="layer6-color1"
                d="M1469.84,2153.34a21.54,21.54,0,1,1,21.58-21.92C1491.53,2143.16,1481.52,2153.34,1469.84,2153.34Z" />
            <path class="layer6-color1"
                d="M2046.08,1263.41c-11.59-.7-20.82-11-20-22.42s11.23-20.85,22.51-20.09,19.33,11.5,18.67,24.49C2066.66,1256.25,2057.45,1264.11,2046.08,1263.41Z" />
            <path class="layer6-color1"
                d="M1098.43,1088.65a19.23,19.23,0,0,1,20.3-17.34c11,.77,19.66,10.89,18.6,21.8a21.08,21.08,0,0,1-22.06,18.6C1104.84,1111,1097.43,1100.85,1098.43,1088.65Z" />
            <path class="layer6-color1"
                d="M1184.68,1114.83c-.79,10-10.29,17.93-20.56,17.11a19.37,19.37,0,0,1-17.85-20.75c.75-10.86,9.83-19.33,20.06-18.69S1185.55,1103.94,1184.68,1114.83Z" />
            <path class="layer6-color1"
                d="M1198.72,1164.86a18.12,18.12,0,0,1-16.29-20c1.14-10.8,10.81-18.35,21.91-17.1a17.72,17.72,0,0,1,16,19.47A19.56,19.56,0,0,1,1198.72,1164.86Z" />
            <path class="layer6-color1"
                d="M729.43,1186.12c-.35,5.29-5.64,10.15-10.71,9.84a10.41,10.41,0,0,1-9.41-11.62c.53-5.42,5.2-9.49,10.28-8.94C725.14,1176,729.76,1181,729.43,1186.12Z" />
            <path class="layer6-color1"
                d="M1140.2,1578.52a9.88,9.88,0,0,1,10.11-9.32c5.38.13,10.44,5.11,10.38,10.21-.07,5.38-5.84,10.79-11,10.37C1144.83,1589.39,1140,1583.57,1140.2,1578.52Z" />
            <path class="layer6-color1"
                d="M1128.6,1594.09c5.22-.1,9.82,4.58,10,10.21.21,5.43-4.24,10.67-9.34,11-4.66.28-9.66-5-9.94-10.46C1119.07,1599,1123.25,1594.19,1128.6,1594.09Z" />
            <path class="layer6-color1"
                d="M909.57,1638c0-5.3,4.83-10.38,9.92-10.48s10.06,5,9.89,10.31-5.3,10.25-10.33,10.09A10.23,10.23,0,0,1,909.57,1638Z" />
            <path class="layer6-color1"
                d="M1123.71,1646.88a10,10,0,0,1-9.9-9.36c-.25-5.28,5.21-11.23,10.15-11.07,4.36.15,9,5.53,9.11,10.51A10,10,0,0,1,1123.71,1646.88Z" />
            <path class="layer6-color1"
                d="M454,847.8c0-5.43,4.4-9.86,9.55-9.72,5,.14,9.31,4.8,9.4,10.11.08,4.8-4.24,9.65-8.77,9.83C459.06,858.23,453.93,853.07,454,847.8Z" />
            <path class="layer6-color1"
                d="M951,1626.1c4.87,0,8.32,3.49,8.47,8.67.17,6-3.78,10.65-9.18,10.88-4.85.22-9.06-4-9.15-9.08C941,1631.19,945.77,1626.15,951,1626.1Z" />
            <path class="layer6-color1"
                d="M733.69,1169.86c0-5.4,3.72-9.71,8.4-9.66,4.89,0,9.32,4.74,9.4,10,.07,4.8-4.43,9.41-9,9.22A9.48,9.48,0,0,1,733.69,1169.86Z" />
            <path class="layer6-color1"
                d="M983.78,1644.36c-4.71-.16-9.23-4.92-9-9.48.24-4.78,4.78-9.29,9.37-9.3,5,0,10,4.8,9.93,9.63S989,1644.54,983.78,1644.36Z" />
            <path class="layer6-color1"
                d="M710.08,1215.31a8.58,8.58,0,0,1-8.94,8.37,9.22,9.22,0,0,1-8.25-8.42c-.12-4.66,4-9,8.49-8.85A9.38,9.38,0,0,1,710.08,1215.31Z" />
            <path class="layer6-color1"
                d="M740.22,985.91c4.88-1.25,10.7,2,12,6.6s-2.16,10.44-7.11,11.57-10.69-2.42-11.75-7.08A9.72,9.72,0,0,1,740.22,985.91Z" />
            <path class="layer6-color1"
                d="M761.1,1021.12c1.21,4.46-1.21,8.48-5.93,9.86-5.45,1.59-10.7-.92-12.21-5.83-1.36-4.41,1.48-9.28,6.16-10.59C754,1013.19,759.81,1016.34,761.1,1021.12Z" />
            <path class="layer6-color1"
                d="M752.19,1055.64c-1-4.36,2.31-9.66,6.55-10.55,4.45-.93,9.69,2.16,10.8,6.38,1.22,4.63-2,10.34-6.47,11.43S753.27,1060.45,752.19,1055.64Z" />
        </g>
    
        <g class="layer5">
            <path class="layer5-color1"
                d="M2336.64,1556.53c-110.48-137-180.54-208.34-438.87-288s-251-96.9-494.81-104.17C904.67,1149.51,474,688.66,283,442.75c0,0-47.62,45.48,17.76,189.5S710.34,1042.3,789,1106.64c236,172.93,1098.82,482.61,1334.83,606.64,148.14,108.26,41.33,244.53-67.4,271.14-2,.65-20.76,7-26.81,9.41a179.71,179.71,0,0,1-28.26,8.21c-17.4,11.94-37.21,20.72-57.15,27.22-12.36,4-24.9,6.3-37.71,8.29-21.27,3.3-42.62,6.2-64,8.86q-51,6.34-102.3,9.84c-69.64,4.86-139.46,6.24-209.24,6.25a49.21,49.21,0,0,1-23.69-6.15,49,49,0,0,1-21.13-5.16q-14.58.29-29.17.16c58.19,59.28,180.64,124.31,250.67,138.71,50.36,10.36,141.08,6.81,141.08,6.81s209.81-11.65,341.5-55.15C2371.13,2082,2447.12,1693.5,2336.64,1556.53Z" />
            <path class="layer5-color2"
                d="M1763.93,2168.57c220.83,27.66,515.58,22.66,595.1-240.5,56.33-186.45,4.8-382.71-173.92-495.26-622.22-399.22-1215.1-52-1756.28-805.47-10-35.15,71,56.78,71,56.78C707,852.52,891.55,987.7,1187.32,1022.26,1565.23,1092.89,1988,991,2310.73,1215.42c319.44,216.06,446.76,712,156.56,1001.38-107.49,110.82-396.73,203.76-542.61,128C1844.52,2301.85,1578.61,2158.4,1763.93,2168.57Z" />
            <path class="layer5-color2"
                d="M334.55,770.55s38.81,95.89,120.51,215.22,248.27,331.61,321,412.42,281.6,286.63,386.94,351.88c124.45,77.08,230.16,121,333.21,159.53,102.34,38.26,178.42,54.1,252.06,63.66s223.11,17.53,272.3,18.18-28.43,32.3-98.39,50.18c-75.34,19.24-211.37,33.73-273.19,39.83-28.33,2.79-42.39,2.4-63.31.51-130.87-11.82-230.82-67.68-281.89-90.52s-97-52.46-179.74-110.67l-82.72-58.22s-124.71-116.34-162.45-156.12-110.44-122.51-110.44-122.51l-67.21-89.47S645.24,1377.14,621.3,1340s-91.17-139.72-91.17-139.72L422.4,1015.37Z" />
        </g>
    
        <g class="layer4">
            <path class="layer4-color1"
                d="M2046.46,2006.57C1314.77,2173.91,334.14,1179.39,275.83,509c188.86,369.89,636.57,741.89,998,817.7,156,30.3,342,71,504.52,119.23,132.76,39.44,288,94.21,380.93,193.28C2258.3,1744.72,2323.45,1943.22,2046.46,2006.57Z" />
            <path class="layer4-color2"
                d="M997.84,1029c184.47,51.79,348.43,62.67,531.46,79.58,78.86,7.29,223,15.59,299.16,25.61,244.22,32.14,417.59,115.77,558.55,266,168.82,180,196.38,529.21,18.52,775.65-30,47.91-155.51,201-23.61,91.55,358.76-297.73,255.71-857.87-179.61-1073-341.74-168.88-583.58-112.4-952.14-162-136.37-18.36-446.1-94.87-516.46-128C629.73,855.44,830.77,982.12,997.84,1029Z" />
            <path class="layer4-color3"
                d="M379.78,902.38c256.7,482.11,620.8,1050.44,1208.91,1163.22,51.43,11.4,151.14,52.1,192,85.8s84.53,81,122.13,99.88,123,50.25,158.72,52.29,160.77-2.65,191-13.78c60.32-22.23,88.85,16.34,21.45,46.92-226.18,140.54-466-82.8-635.36-147.18-165.94-63.09-366.84-75-541.15-218.89-280.13-223-436.19-438.75-571.93-743.48C490,1139.92,371.17,976.11,379.78,902.38Z" />
            <path class="layer4-color3"
                d="M2314.62,1441.5c-7.41-43.86-40.51-78-80.6-94.38-22.6-9.26-46.77-10.8-70.69-6.93-5.9,1-12.25,6.23-15.85,11.28-19.39,5.65-37.74,13.73-53.9,27.09-22.92,19-35.52,49.08-32.53,78.72,5.87,58.31,54.37,109,112.51,117.9,16.77,2.57,33.94,2.24,50.17-1.83,7.6,2.84,16.14,2.74,23.06-2.31,1-.73,2-1.49,2.95-2.24a28.69,28.69,0,0,0,27.45-7.13C2309.63,1530.86,2322,1484.91,2314.62,1441.5Z" />
            <path class="layer4-color3"
                d="M603,1062.81c-5.5-6.11-9.49-13.25-10.29-21.53-.72-7.47,1.07-14.63,3.6-21.59.68-1.85,1.36-3.72,1.89-5.62a26.82,26.82,0,0,1-3.93-4.32c-3.86-5.31-5.72-11.93-9.41-17.42-.95-1.42-2-2.81-3-4.18.14.22-1.87-2.38-2.11-2.68-2.57-3.17-5.16-6.32-7.82-9.41a385.77,385.77,0,0,0-29.18-30.65,10.71,10.71,0,0,1-6,3.81c-45.35,11.56-55.82-53.25-55.92-84.62a12.31,12.31,0,0,1,.57-3.82,24.74,24.74,0,0,1,.29-6.26C467.08,860,457.57,871.29,453,886.05c-6.47,20.74-3.73,46,1.06,66.77,9.36,40.53,34.28,76.89,66.83,102.39a229.08,229.08,0,0,0,56.31,32.85c11.25,4.51,24.2,6.56,36,2.68a41.62,41.62,0,0,0,19.16-13.21C621.47,1077.38,610.54,1071.14,603,1062.81Z" />
            <path class="layer4-color3"
                d="M975.65,1414.55a9.48,9.48,0,0,1,2.07-6.63c-2.7-10.76-5.38-21.53-8.68-32.14-2-4.59-4.31-9.1-6.77-13.54-5.84-6-11.5-12.12-17-18.38-18.85-21.27-36.66-43.53-57.29-63.15a228.92,228.92,0,0,0-29.16-23.37c-6.56-2.85-13.1-5.74-19.66-8.57-11.08-2.83-22.32-5.15-33.52-7.32a14,14,0,0,1-8.41,3.84c-26.91,3-46.31-21.33-48.18-46.17a23.27,23.27,0,0,1-4.8-8.12,75.48,75.48,0,0,0-10.38,7.48c-15,12.69-21.15,33.63-20.16,52.69.9,17.27,5.8,34.11,11.6,50.3a351,351,0,0,0,19.21,44,338.66,338.66,0,0,0,124.24,132.06c30.62,18.48,65.19,32.92,101.34,34.24,17.3.62,37.43-1.58,52-11.79,9.16-6.41,16-14.64,19.82-25.08C1014,1484,978,1440.27,975.65,1414.55Z" />
            <path class="layer4-color3"
                d="M1608.05,1855.5c-33.87,9.21-70.36-8.39-83-41.45a9.43,9.43,0,0,0-6.47-6,7.43,7.43,0,0,0-.9-.43c.71-3.07,1.59-6.12,2.41-9.12.14-.52.27-1,.41-1.58l-1.13-2.46c-4-8.61-8-17.19-12.45-25.58-2-3.84-4.09-7.69-6.34-11.4-.49-.8-.78-1.3-.94-1.6-.69-.82-1.35-1.66-2-2.48-7.71-9.15-15.84-17.94-22.75-27.74-.76-1.07-1.49-2.17-2.2-3.28l-.25-.22q-2.37-2-4.79-4c-14-9-27.44-19-40.76-29.12a299.07,299.07,0,0,0-30.14-16.08c-25.9-11.91-53.39-19.84-79.34-31.62-17.84-1.2-35.92.42-53.57,3.73a10.21,10.21,0,0,1,1,2.41c1.71,6.2-2.13,12.2-8,14.15a35,35,0,0,1-14.69,1.45,7.58,7.58,0,0,0-6-6.76,70.35,70.35,0,0,1-50.08-50,9,9,0,0,0-.66-1.79,29.6,29.6,0,0,1,.59-3,11.54,11.54,0,0,1,2.1-4.35c-1.71-1.5-3.42-3-5.11-4.52a84.18,84.18,0,0,0-8.61,8.49,8.15,8.15,0,0,0-4.92,6.15,82.48,82.48,0,0,0-13.51,69.12c5.16,20,17.07,37.93,29.19,54.35a392.81,392.81,0,0,0,39.46,46.07c57.66,57.12,132.13,95.08,210.29,115.31a533.91,533.91,0,0,0,64.73,12.64c23,3,46.13,1.34,67.16-9.16a69.57,69.57,0,0,0,12.89-8.36,51.42,51.42,0,0,0,29.18-5.29,7.43,7.43,0,0,0,3.57-10l.22-.06C1623.11,1869,1618.64,1852.62,1608.05,1855.5Z" />
            <path class="layer4-color4"
                d="M797.46,1018.33c-5.1-3.77-12.22-8.93-18.76-9.13a13.09,13.09,0,0,0-11,5.08,9.74,9.74,0,0,0-4.5,8.87c.28,14.21,2.44,29.22,15.1,37.86,10.65,7.26,26.64,4.82,33.37-6.66C820.09,1040.06,808.48,1026.5,797.46,1018.33Z" />
            <path class="layer4-color4"
                d="M1019.12,1675c-9.65-18.31-33.89-11.07-50.24-9.23-5.9.67-11,4.58-11,11a12.07,12.07,0,0,0,4.62,9c.81,4.9,4.63,8.46,7.93,12l9.12,9.87c6.36,6.87,12.6,15.15,23.24,12.58,9.73-2.34,13.6-11.24,16.62-19.78C1022.32,1692.3,1023.33,1683,1019.12,1675Z" />
            <path class="layer4-color4"
                d="M1142,1842.93a23.14,23.14,0,0,0-29.73-5.17c-10.74,6.47-14.6,20.63-10.57,32.11,4.15,11.86,15.45,22.23,28.42,22.74,12.61.5,22.78-9.12,24.71-21.27A28.06,28.06,0,0,0,1142,1842.93Z" />
            <path class="layer4-color4"
                d="M1262.7,1919.13c-6.26-16.47-27.27-27.64-43.29-16.36a22.72,22.72,0,0,0-7.15,8.25,24.25,24.25,0,0,0-5.89,7c-4.51,8.14-4.39,18.56-1.57,27.26,5.75,17.72,26.49,30.44,43.76,18.71C1262,1954.88,1268.49,1934.37,1262.7,1919.13Z" />
            <path class="layer4-color4"
                d="M1375.43,1951.64c-10.07-12.27-29.9-12.45-42.1-3.55-11.14,8.14-21.92,22.81-18.58,37.38a17.88,17.88,0,0,0,.65,4.8c5.52,19.55,28.38,30.2,46.38,19.48a31.76,31.76,0,0,0,15.32-23,33.11,33.11,0,0,0-.32-10.59C1382.63,1968.48,1381.57,1959.13,1375.43,1951.64Z" />
            <path class="layer4-color4"
                d="M1507.36,2010.35a41.21,41.21,0,0,0-22.13-34.17,18.07,18.07,0,0,0-3.86-1.71,37,37,0,0,0-5.28-1.58c-6.95-1.53-14.76.74-19.31,6.08-11.33,6.87-19.24,19.34-19.38,32.85-.2,19.44,15.09,36,34.67,36.48C1492.26,2048.84,1508.38,2029.94,1507.36,2010.35Z" />
            <path class="layer4-color4"
                d="M1654.22,2000.83A40.18,40.18,0,0,0,1632,1995a35.47,35.47,0,0,0-13.92.28c-24.49,1.06-36.94,29.5-29.11,50.78.37,1,.79,2,1.23,3,2.48,11.43,9.63,22,20.73,27.62,26.62,13.51,58.62-10.55,62.3-37.91C1675.28,2023.58,1667,2008.73,1654.22,2000.83Z" />
        </g>
    
        <g class="layer3">
            <path class="layer3-color1"
                d="M2065.7,1747.37c-12.6-25.38-32.94-47.06-58.58-59.54a132.8,132.8,0,0,0-92.14-9.08,128.36,128.36,0,0,0-26.85,6.31c-44,15.53-83.22,52.47-90.55,100.16-1,6.75-1.11,12.75,2.47,18.88,3,5.08,8.8,9.93,14.64,11.26a24.86,24.86,0,0,0,4.7.58c34.46,28.63,79.62,40.38,124,40.63,26.94.15,53.82-3.72,80.3-8.28,25.26-4.34,57.63-7.08,65.54-36.82C2095.31,1788.68,2080.1,1765.37,2065.7,1747.37Z" />
            <path class="layer3-color1"
                d="M2522.68,1823.24c-4.21-41.58-33-79.08-68.67-99.45a140.55,140.55,0,0,0-59.47-18c-20.94-1.55-41.52,3.21-60.66,11.37-40,17-72.37,54.83-81,97.7-1.15,5.7-.93,11,1.15,15.86-2.5,13.47,4.94,24,17.37,28.89A362.58,362.58,0,0,0,2407,1884a358.18,358.18,0,0,0,70.69-7.8c11.29-2.43,22.24-6.9,30.9-14.7C2519.14,1852,2524.1,1837.22,2522.68,1823.24Z" />
            <path class="layer3-color1"
                d="M2206.23,2029.14a4.33,4.33,0,0,0,.25-.47h0A4.19,4.19,0,0,1,2206.23,2029.14Z" />
            <path class="layer3-color2"
                d="M2232.41,1970.63c-6.35-6.35-15.24-8.33-23.84-6.3-2.77.66-5.55,1.27-8.35,1.8-1.25.24-2.49.46-3.74.67-.69.12-4.84.49-1.44.27,3.77-.24-1.64.19-2.4.27-1.26.13-2.53.25-3.79.35-2.84.24-5.68.4-8.53.5q-8.07.27-16.15-.21-3.8-.23-7.57-.62l-1.54-.17c1.83.18-3-.49-3.24-.52a44.26,44.26,0,0,0-6.26-.63c-9.56-6.66-23.56-7-31.94,2.16-8.66,9.44-10.08,25.39,0,34.65,2.93,2.69,5.34,6.19,8.26,8.84.45.66.9,1.32,1.34,2,1.3,2,2.51,4.09,3.63,6.21.49.95,1,1.9,1.43,2.86l.06.13c.21.53.46,1.14.55,1.4q.54,1.5,1,3,1,3,1.68,6.17c.43,1.87,1.5,9.58.6,2.15,1.08,8.88,4,16.39,12.13,21.15a23,23,0,0,0,15.38,2.95c6,6.26,16.37,9.28,24.38,6.68,10.05-3.25,18.36-12.56,18-23.62-.05-1.41,0-2.79,0-4.2.48-1.48,1.91-4.7,2.06-6.32l.08-.16c.4-.7,1.43-2,2-3-.85,1.4-2.52,2.6-.2,0,.14-.16.3-.31.44-.47a2.48,2.48,0,0,0,.14-.37,3.3,3.3,0,0,1-.13.37c.75-.82,1.52-1.6,2.33-2.35l0,0,.06,0c.12-.12.24-.25.37-.36,2.6-2.36,1.37-.65-.06.19,1.08-.59,2.49-1.71,3.21-2.11,2.74-1.54,5.56-2.89,8.18-4.64,8.51-5.7,16.64-14.37,18.19-24.92C2240,1985.52,2239.16,1977.39,2232.41,1970.63Z" />
            <path class="layer3-color1" d="M2208.81,2026.32a3.3,3.3,0,0,0,.32-.18l-.31.17Z" />
            <path class="layer3-color3" d="M2336.92,1711.37c1.81.55,2.29.61,2,.49-.62-.14-1.23-.3-1.84-.46Z" />
            <path class="layer3-color3"
                d="M2328.35,1711.58l-.16,0a4.26,4.26,0,0,0,1.76-.1A14.42,14.42,0,0,1,2328.35,1711.58Z" />
            <path class="layer3-color3"
                d="M2282.74,1746.44c2.21-2.58,1.79-2.2,1.09-1.39-.26.34-.53.66-.8,1C2282.94,1746.18,2282.84,1746.31,2282.74,1746.44Z" />
            <path class="layer3-color3"
                d="M2342.45,1689.5c9.34-5.92,18.83-12.62,29.12-17.1-24.64-14.81-55.66-12.11-80.39,1-22.29,11.78-38.88,31.87-53.4,51.94a315,315,0,0,0-54,127.63,321.41,321.41,0,0,0-4.72,81.21c1,12.75,10.58,25.12,24.5,24.5,12.45-.56,25.54-10.81,24.5-24.5a295.76,295.76,0,0,1-.72-31.65q.24-7.49.86-15,.28-3.32.63-6.63c.15-1.38.31-2.76.47-4.14,0-.17.05-.34.07-.51a316.87,316.87,0,0,1,15.13-60.12c.86-2.35,1.74-4.68,2.66-7,.64-1.64,4.15-8.76,1-2.63,2.53-4.93,4.53-10.16,7-15.13a292.58,292.58,0,0,1,14.68-26.14q4-6.35,8.33-12.47c1.5-2.13,3-4.21,4.59-6.31l-.47.56c.26-.31.51-.64.76-1l0,0c.21-.29.51-.65.77-1,.5-.65,1-1.29,1.51-1.92,3.12-3.85,6.37-7.6,9.8-11.18q2.57-2.68,5.27-5.22c1.5-1.39,4.8-5.37,6.83-5.9-.29.08-4.75,3.41-1,.88,1.35-.93,2.67-1.87,4.06-2.75,1.8-1.14,3.65-2.2,5.54-3.2C2320.41,1703.79,2332,1696.12,2342.45,1689.5Z" />
            <path class="layer3-color3"
                d="M2214.46,1508.94c-.25-.17-1.41-.15-3,.61h.06A11.26,11.26,0,0,1,2214.46,1508.94Z" />
            <path class="layer3-color3"
                d="M2276.17,1344.46c-21.46-16.7-98.07-36.38-100,5.5,7.06,39.19,18.43,22,47,33.65,60.67,29.91,58.74,85.65,7.09,124.61-11.06,9.33-27.16,9.26-41.72,8.85-1.53,10.74-12,17.07-11.33,28.46,2,21.18,24.81,30.91,37,45,25.27-23.57,66.76-25,87.6-59.42C2342.32,1474.07,2336.49,1385.66,2276.17,1344.46Z" />
            <path class="layer3-color3"
                d="M2240.32,1968.58c-5.3-8.22-14.69-10.28-23.26-6.1-.79.38-4.83,2.15-3.8,1.78-1.78.7-3.58,1.37-5.4,2a107.3,107.3,0,0,1-13.09,3.46c-1,.21-2.09.4-3.13.57l-1.76.27-1.63.17c-1.06.1-2.12.19-3.18.26a113.6,113.6,0,0,1-13.56.09c-2.13-.11-4.25-.3-6.36-.52l-.38,0,.15,0-.15,0c-1-.12-1.32-.22-.44-.08-.86-.14-1.71-.27-2.56-.43a109.58,109.58,0,0,1-12.39-3c-2-.61-4.05-1.29-6.05-2l-2.46-1-1.56-.7a108.51,108.51,0,0,1-11.88-6.51c-7.55-4.73-19.07-1.85-23.26,6.1a17.35,17.35,0,0,0,6.1,23.26c37.19,23.33,84.76,24.8,123.95,5.69C2242.23,1987.93,2245,1975.89,2240.32,1968.58Z" />
            <path class="layer3-color3" d="M2164.77,1970.5l-.44-.08.44.08Z" />
            <path
                d="M2106.92,1766.26c-42.65-167.73-225.3-148.43-312.4-40.54-25.76,31.91-32.44,87,1.73,112.93C1894.78,1913.41,2152.05,1914.35,2106.92,1766.26Zm-222.66,49.79a142,142,0,0,0,10.1,29.59c-146.66-21.68-67.46-125.38,25-159.37A145.58,145.58,0,0,0,1884.26,1816.05Zm193.23,2.41c-2.83,11.47-45.09,26.78-66.87,31.26,31.24-40.65,37.93-99,14.91-145C2053.74,1730.47,2079.88,1777.15,2077.49,1818.46Z" />
            <path
                d="M2184,1905.36c-11-2-37.9-1.49-32.67,14.16,4.29,12.85,39.22,16.86,45.55,3C2200.55,1913.42,2192.05,1906.66,2184,1905.36Z" />
            <path d="M2192,1875.31c-4.35-15.32-64.62-1.19-39.58,12.74C2162.45,1893.61,2197.39,1894.17,2192,1875.31Z" />
            <path
                d="M2189.53,1842.24c-9.13-10.18-35.79-11.15-42.05,1.8C2138.69,1862.23,2207.52,1862.3,2189.53,1842.24Z" />
            <path d="M2191.59,1811.26c-3.67-9.33-27.64-13.07-29.17,0C2160.71,1825.84,2197.8,1827,2191.59,1811.26Z" />
            <path d="M2189.5,1784.34c-2.66-7.87-19.58-9.61-20.12.58C2168.87,1797.47,2192.81,1797.94,2189.5,1784.34Z" />
            <path
                d="M2222.07,1742.18c-7.71-6.78-17.88.44-17.67,9.46C2208.13,1771.12,2235.63,1756.66,2222.07,1742.18Z" />
            <path
                d="M2240.87,1706.69c-7.46-6.54-21.25.91-19.13,10.63C2227.36,1736.57,2254.79,1721.55,2240.87,1706.69Z" />
            <path d="M2274.8,1677.44c-3.29-13.45-23.17-12-26.32.63C2244.74,1700.26,2279,1699.27,2274.8,1677.44Z" />
            <path d="M2311.76,1653.1c-2.8-11.61-21.34-12.65-24.67-1C2282.49,1672.65,2315.48,1674.26,2311.76,1653.1Z" />
            <path d="M2347.62,1631c-18.8-11.27-27.7,24.76-5.82,24.92C2355.42,1656.1,2360.59,1636.16,2347.62,1631Z" />
            <path
                d="M2396.16,1632.43c-3.76-10.55-21-11.54-24.63-.26C2366.71,1653.24,2402.17,1654.45,2396.16,1632.43Z" />
            <path d="M2436.68,1633.4c-24.41-14.22-28.88,25.2-4,20.4C2441.3,1650.67,2443.91,1639.43,2436.68,1633.4Z" />
            <path
                d="M2485.59,1653.75c-4.26-12.14-25.44-10.27-23.59,3.9C2463.89,1675.83,2490.71,1671.63,2485.59,1653.75Z" />
            <path
                d="M2513.67,1667.18c-15.53-5.41-21.39,17.72-6.78,22.11C2521.9,1694,2528.59,1672.36,2513.67,1667.18Z" />
            <path d="M2549.52,1698.83c-2.38-11.14-21.8-13-24-.74C2522.51,1717.08,2552.25,1718.32,2549.52,1698.83Z" />
            <path
                d="M2131.28,1712.47a12.58,12.58,0,0,0-15.32-7.63,5.47,5.47,0,0,0-1.19.51,10.21,10.21,0,0,0-7.18,10.61,9.87,9.87,0,0,0,3.52,9.59c.25.24.51.48.78.7a7.84,7.84,0,0,0,2.67,1.42,10.86,10.86,0,0,0,7.31.48,11.7,11.7,0,0,0,9.41-15.68Z" />
            <path
                d="M2092.29,1674.19c7.45-6.54,21.24.91,19.12,10.64C2105.79,1704.07,2078.36,1689.05,2092.29,1674.19Z" />
            <path d="M2058.35,1644.94c3.3-13.45,23.17-12,26.32.64C2088.41,1667.76,2054.17,1666.77,2058.35,1644.94Z" />
            <path d="M2021.4,1620.6c2.79-11.61,21.33-12.65,24.66-1C2050.66,1640.15,2017.67,1641.76,2021.4,1620.6Z" />
            <path
                d="M1985.54,1598.47c18.79-11.27,27.69,24.77,5.82,24.92C1977.73,1623.6,1972.56,1603.66,1985.54,1598.47Z" />
            <path d="M1961.62,1599.67c-3.66-11.28-20.87-10.29-24.62.26C1931,1622,1966.44,1620.74,1961.62,1599.67Z" />
            <path d="M1896.47,1600.9c24.41-14.22,28.89,25.21,4,20.4C1891.86,1618.17,1889.25,1606.93,1896.47,1600.9Z" />
            <path
                d="M1847.56,1621.25c4.26-12.14,25.45-10.27,23.6,3.9C1869.26,1643.33,1842.44,1639.13,1847.56,1621.25Z" />
            <path
                d="M1819.48,1634.68c15.53-5.4,21.39,17.72,6.79,22.11C1811.25,1661.51,1804.57,1639.86,1819.48,1634.68Z" />
            <path d="M1783.63,1666.33c2.38-11.14,21.8-13,24-.74C1810.64,1684.58,1780.9,1685.82,1783.63,1666.33Z" />
            <path
                d="M2150.65,1755.78a10.72,10.72,0,0,0-6.84-8.35,10.16,10.16,0,0,0-3-1.35,4.76,4.76,0,0,0-2.37-.43l-.45,0a7.62,7.62,0,0,0-1.35-.23,11.73,11.73,0,0,0-12.14,12.5,13.11,13.11,0,0,0,14.81,11.78C2146.23,1768.88,2151.72,1762.9,2150.65,1755.78Z" />
            <path
                d="M1776.63,1688.75c-12.54-9.78-27.58,8.79-12.36,16.94C1774.08,1710.13,1785.13,1696.5,1776.63,1688.75Z" />
            <path d="M1755.83,1720.66c-8.18-7.76-21.95-.45-18.85,10.76C1743.14,1749.66,1769,1735,1755.83,1720.66Z" />
            <path
                d="M1741.5,1751.82c-9.19-6.88-21.51,1.15-17.56,12.22C1730.83,1783.38,1758.11,1764.25,1741.5,1751.82Z" />
            <path
                d="M2057.27,1933a85.45,85.45,0,0,0,1.06-9c0-.19,0-.39-.07-.58a4.16,4.16,0,0,1,.2-2,80.64,80.64,0,0,0-1.9-20.23,5.17,5.17,0,0,0-5.61-4.29,6.27,6.27,0,0,0-1.95.27c-74.7,21.93-156,17-228-12.46a333.77,333.77,0,0,1-57.82-30.77c-3.78-2.51-7.41,0-8.48,3.4a5.69,5.69,0,0,0-1.14,2.53c-1.59,8.09-3.47,21.79-1.13,31.36.47,1.88,1.3,7.33,4.69,9.42,36.57,22.49,76,40.5,117.88,49.85a358.91,358.91,0,0,0,110.53,7.22,349.87,349.87,0,0,0,64.17-11.94,13.58,13.58,0,0,0,4.1-4,37,37,0,0,0,3.08-7.87A5.42,5.42,0,0,1,2057.27,1933Z" />
            <path
                d="M2050.77,2005.08a12.86,12.86,0,0,0,2.19-1.82,10.53,10.53,0,0,0,1.51-3.4,4.94,4.94,0,0,1,.56-1.4,92.46,92.46,0,0,0,2.28-9,88.63,88.63,0,0,0,.93-12.61,82.46,82.46,0,0,0-1.92-15.76,5.18,5.18,0,0,0-5.61-4.28,6,6,0,0,0-2,.27c-74.7,21.92-156,17-228-12.46a333.77,333.77,0,0,1-57.82-30.77c-3.78-2.51-7.41,0-8.48,3.4a5.59,5.59,0,0,0-1.13,2.52c-1.6,8.09-3.48,21.8-1.13,31.37.46,1.88,1.3,7.33,4.68,9.41,36.57,22.5,76,40.5,117.88,49.85a358.61,358.61,0,0,0,110.53,7.23,350.28,350.28,0,0,0,64.22-12C2050,2005.42,2050.54,2005.21,2050.77,2005.08Z" />
            <path
                d="M2504.13,1900.23c18.79-12,46.4-41.86,48.93-56.45,2.3-13.31-3.89-29.45-8.51-46.62-98.81-259.5-372.33-92.29-323.12,146.53-17-1.68-32,8.63-48.52,9.94,1.42-.14-3.85-.14-2.43,0-19.78-2-39.23-15.76-59.48-7.61-19.45,7.41-31.89,29.85-25.78,50.25,4.17,14.94,16.67,23.09,24.06,36.32,6.32,23.08,17.3,54,47.12,49.27,13.59,84.87-82.35,130.49-138.09,65.08-13.26-16.18-38.68-6.06-26.73,14.54,36.73,71.92,148.79,68.44,180.11-6.36,17.62,38.61,60.2,64.37,102.73,58.61,25.44.74,96.83-43.66,75.73-72.12-11.24-7.27-19.09.13-25.07,5.33-57.18,65.16-150,21.06-136.89-64.94,40.67,2.28,35-37,52.68-59.08a78.86,78.86,0,0,0,8.35-9.34q16.07,6.32,32.69,11.05a358.23,358.23,0,0,0,110,13.35c42.89-1.44,85-11.84,125.06-27.18,3.72-1.42,5.55-6.62,6.35-8.38,4.07-9,4.76-22.79,4.69-31a5.7,5.7,0,0,0-.64-2.7c-.43-3.51-3.53-6.67-7.71-4.91a334.45,334.45,0,0,1-62.51,19.55c-67.38,13.81-138.4,7.41-201.9-18.73-1-4.17-2.1-8.55-3.18-13.21a352.25,352.25,0,0,0,40.72,14.33,358.23,358.23,0,0,0,110,13.35c42.89-1.43,85-11.83,125.06-27.17,3.72-1.42,5.55-6.63,6.35-8.39,4.07-9,4.76-22.78,4.69-31a5.77,5.77,0,0,0-.64-2.69c-.43-3.52-3.53-6.68-7.71-4.92a333,333,0,0,1-62.51,19.55c-74.13,15.2-152.67,5.94-220.75-27.16.4-5.33,1.08-11,2.09-16.88C2302.75,1923,2436.9,1943.22,2504.13,1900.23Zm-41-164.63c28.22,25.77,54.35,72.44,52,113.75-2.83,11.48-45.08,26.78-66.87,31.26C2479.48,1840,2486.17,1781.67,2463.15,1735.6ZM2357,1717.16a145.59,145.59,0,0,0-35.14,129.78,142.47,142.47,0,0,0,10.1,29.6c-20.85-5.93-58-10.13-66.87-28.47C2260.32,1798.16,2308.11,1729.06,2357,1717.16Zm-125.86,271.67c-8.38,15.54-24.06,26.87-27.21,45.39-2,6.9,1.13,16.73-5.87,21.48-21.55,7.06-7.73-31.42-26.91-31.28-16.68,1.35-2.82,31.72-20.26,29.8-2.1.25-4.9-3.22-5.38-3.44-6.52-11.61-6.91-26.31-15.07-37.3-7.42-11.54-29.05-26.68-12.61-39.78,17.61-7.28,35.45,10.3,53.84,7.71C2190,1984.92,2232.37,1953.37,2231.16,1988.83Z" />
            <path
                d="M2057.07,2067.51c-3.64-14.25-29.41-15.92-30.23,1.08C2026.62,2090.37,2060.28,2090,2057.07,2067.51Z" />
            <path d="M2103.16,2086c-1.33-15.76-26.56-15.31-28.14-.2C2072.59,2109.05,2106.71,2109.5,2103.16,2086Z" />
            <path
                d="M2066.41,2114.82c-3.86-13.74-28.89-12.91-29.07,2.69C2037.24,2141,2072.71,2137.2,2066.41,2114.82Z" />
            <path
                d="M2269.69,2076.06c3.65-14.25,29.42-15.91,30.24,1.09C2300.14,2098.92,2266.49,2098.54,2269.69,2076.06Z" />
            <path d="M2223.6,2094.53c1.34-15.77,28.3-15.4,28.14-.21C2256.83,2117.17,2220.06,2118.06,2223.6,2094.53Z" />
            <path d="M2273.71,2142.39c16.86,1.7,22.67-28,3.93-28.14C2256.91,2110.11,2252.89,2140.11,2273.71,2142.39Z" />
        </g>
    
        <g class="layer2">
            <path
                d="M2102.53,1226.2c-81-52.89-162.89-68.19-256.84-82.13-142.69-21.17-319.18-34-442.08,40.26-34.2,22.3-74.77,70.26-83.77,109.9-11.24,49.45,25.68,112.87,69.71,134,80.4,37,165.62-19.77,149.13-110.28-11.48-63,90.56-43.58,141.27,2l120,109.2c14.13,13.87,23,22,37.81,34.35,17.88,14.68,55,33.38,68.85,35.19,15.68,2,32.19-2,43.33-13.73,19.84-20.83,17.26-52.94,25.23-78.79,8.21-26.66,18.35-51.46,41.48-73.44,14-13.35,37.28-29.68,61.27-39.77,27.31-11.48,54.91-16.21,59.29-23C2146.91,1254.76,2117.71,1236.12,2102.53,1226.2Z" />
            <path
                d="M2156.77,1538.45c5,1.51,7.75,2,17.86,3.49h0c97.76,7.13,139.41-127.79,40-161.57C2110.31,1351.34,2047.53,1500.1,2156.77,1538.45Zm-14.56-92.1c7.87-33.68,66.94-41.62,81.21-10.25a43,43,0,0,1-27.49,61.26h0C2164.65,1506.37,2131.56,1478.46,2142.21,1446.35Z" />
            <path
                d="M2176.35,1477.59h0c42.21,4.85,48.29-47.92,3.41-45.45C2152,1435.55,2149.6,1471.06,2176.35,1477.59Z" />
            <path
                d="M2327.3,1349.7c32.29,27.93,54.3,68.64,62,105.55,2.73,13,6.34,40.56,9.43,75.78,2.47,28.22,16.71,57.11,48.3,54.44,13.24-1.12,26.79-6.39,28.9-20,2.24-14.44-3.8-31.77-13.61-57.31-9-23.38-22.22-48.19-29.55-60.45-16.9-28.24-36.16-55-50.77-70.4-7-7.43-24.58-23.5-31-29C2314,1316.78,2303.26,1328.91,2327.3,1349.7Z" />
            <path
                d="M2018.52,1491.77c16.09,71.36,79.22,125.21,152.53,133.86h0c266.25,14.56,230-358-23.56-322.55C2060.34,1316.67,1997.25,1406.58,2018.52,1491.77Zm54.21-57.74c22.37-78.67,139.76-107.58,195.05-45.43,62,64.22,7.85,167.55-77.53,174.86h0C2116.1,1573.8,2049.21,1506.22,2072.73,1434Z" />
            <path
                d="M1203.64,1418.75c-8.87,8.48-6.64,22.27,4.51,27.88h0c8.44,4.25,19.62-.59,22.88-9.9,1.49-4.25,1.49-6.62,0-11C1227.17,1414.3,1212.25,1410.51,1203.64,1418.75Z" />
            <path
                d="M1285.9,1190.43c39.34-24.71,78.61-92.83-.3-73-10.42,2.66-16.42,3.51-23.25,3.31-18.31-.53-34.63-10.45-60.45-36.75-63-61.36-124.33-46-149.4-4.52-33.17,54.93-7.23,153.1,119.22,154.42C1202.27,1234.23,1251.41,1216.43,1285.9,1190.43Z" />
            <path
                d="M1177.7,1431.83c-7.91,0-14.3,5.5-15.78,13.5-1.84,9.93,3.89,18.78,14.43,22.26h0c2.89,1,8.7.19,12.2-1.62,4-2.07,7.39-6.79,8.43-11.84,1.16-5.61-.45-10.75-5-15.79C1187.92,1433.73,1183.68,1431.8,1177.7,1431.83Z" />
            <path
                d="M1228,1486.49c6.4-3,9.57-7.94,9.57-14.8,0-12.4-14.71-21-26.49-15.46a15.18,15.18,0,0,0-8.82,11.1c-1.87,8.17,3.35,16.73,12.16,19.89h0A17.62,17.62,0,0,0,1228,1486.49Z" />
            <path
                d="M621.35,1190.36c-10.29,6.7-10.64,20.67-.72,28.24h0c7.52,5.74,19.39,3.05,24.32-5.5,2.25-3.9,2.68-6.24,2-10.84C645.3,1190.34,631.33,1183.85,621.35,1190.36Z" />
            <path
                d="M593.44,1198.43a16,16,0,0,0-18,10.35c-3.65,9.42.36,19.18,10.07,24.54h0c2.66,1.48,8.51,1.79,12.29.67,4.34-1.29,8.52-5.32,10.47-10.08,2.18-5.3,1.54-10.65-1.94-16.43C603.14,1202.19,599.33,1199.51,593.44,1198.43Z" />
            <path
                d="M632.78,1261.44c6.85-1.81,10.87-6,12.14-12.78,2.29-12.19-10.58-23.34-23.18-20.08a15.17,15.17,0,0,0-10.72,9.27c-3.35,7.69.21,17.06,8.27,21.8h0A17.66,17.66,0,0,0,632.78,1261.44Z" />
            <path
                d="M1707.29,1545.73c67.19,9.81,83.87-79.6,21.53-101.07-75.52-20.26-96.15,84.74-21.53,101.07Zm-9.54-60.11c13.76-19.35,49,9.63,26.25,24.17h0C1709.47,1517.45,1688.68,1499.33,1697.75,1485.62Z" />
            <path
                d="M1605.18,1505.87c-83,6.3-53.6,123.85,23.43,107.31C1690.85,1593.92,1664.83,1505,1605.18,1505.87Zm14.15,64.15h0c-12.36,6.34-32.31-5.31-28.92-19.85C1600.07,1528.07,1640.21,1555.09,1619.33,1570Z" />
            <path
                d="M1623.57,1381.71c-41.84-22.9-89.11,20.28-75,64.1,7.8,26.62,37.75,42.19,64.15,34.53C1657.39,1467.5,1665.26,1403.3,1623.57,1381.71Zm-16.9,59.88c-29.86,12.9-36.56-32.64-6.3-32.56C1620.15,1408.4,1623.66,1433.74,1606.67,1441.59Z" />
            <path
                d="M1590,2093.51c52.49,22.83,86.55-.88,100.75-35.55,15.29-37.32,2-84.7-59.91-89.33-34.17-1.25-60.14,21.66-69.68,49S1557.31,2079.29,1590,2093.51Zm11.31-89c28.53-20.83,58.12-5,66.63,15.25,10.63,25.28-6.79,45.26-27.28,51.58-19,5.86-40.47-1.53-49.68-23.08C1585,2034.25,1586.87,2015.05,1601.29,2004.53Z" />
            <path
                d="M1668.58,1862.9c38.53-177.87-269-357.38-449.86-337-65.33,6.91-121.25,45.77-117.67,111.82,21.41,163,230.46,284,401.15,301.47h0C1566.94,1946.15,1652.41,1922.15,1668.58,1862.9Zm-135.54,29c-46,7.77-140.19-18.23-220.1-66.78-106.78-64.88-192.78-164.21-127-218.54,49.29-40.68,153.21-18.62,244.74,32.66,76.57,42.9,144.46,107.72,164.43,159.28,9.75,25.2,8.06,48.4-9.65,66.64C1574.88,1876.1,1547.56,1889.43,1533,1891.89Z" />
            <path
                d="M1477.91,1994.35c-18-6.37-31.88,20-14.28,30.52h0C1484.18,2036.56,1500.79,2003.09,1477.91,1994.35Z" />
            <path
                d="M1340.67,1637.87a272.36,272.36,0,0,0-29.86-8.31c-34.58-7.51-73.88-8.57-88.88,13.69-12.4,18.4-11.73,38-2.62,57.42,26,55.58,121.08,109.8,176.22,130.77,56.33,24.17,169.35,29.77,129-57.94C1499,1722.55,1419,1663.49,1340.67,1637.87Zm112.47,141.75c-36.24,29-191.32-73.16-157.59-95.45C1333.64,1659,1482.37,1756.2,1453.14,1779.62Z" />
            <path
                d="M724.13,960.57c-12,8.69-5.17,27.3,3.43,51.42,4.62,13,6,22.32,12.73,42.92,2.09,6.36,3.47,11.92,5.59,16.43,10.25,21.71,26.62,22.27,49.29,20.49,7.07-.56,14.76-1.35,23.06-1.79,106.28-8,86.88-38.18-.77-91.64C783.09,981.42,747.66,943.56,724.13,960.57Zm55.19,61.16c7.32,3.27,20,11.94,26.2,16,1.43.93,2.5,1.64,3.06,2,1.77,1.43,1.95,2-1.9,3.16-1.57.46-9.9,2.93-11.27,3.32-15.32,4.42-19.06-7.22-19.73-22.84C775.62,1022.2,777.34,1020.84,779.32,1021.73Z" />
            <path
                d="M845.33,1396.87c25.36,21.61,56.77,44.46,85.16,53.63,18.24,5.89,33.87,9.07,50.38-7,.86-.84,1.67-1.7,2.42-2.58,10.46-12.19,8.67-29.45,2.62-47.22-10.85-31.91-40.52-68.13-73.84-98.45-23.8-21.65-48.28-39.69-66.27-49.52-25.15-11.8-48.53-18.67-65.29-.21C747.24,1282.17,794.17,1344,845.33,1396.87Zm-28.81-116c18.21-14.48,55.71,32.17,73.12,47.2,17.22,19.41,63.89,66,47.73,79.53-10.06,8.45-42.37-15.48-73-48.2C833.23,1326.17,806.75,1288.67,816.52,1280.9Z" />
            <path
                d="M670.28,1214.51c-22.8,149.85,161.13,324.37,306.5,336.13,120.61,9.76,137.77-111.54,90.67-200.83-48.32-91.61-155.53-187.44-253.16-207C752,1127.93,683.55,1148.51,670.28,1214.51Zm59.51,18.55c18.84-63.91,103.18-30.78,155.53,4,69.23,44.76,167.72,156.35,145.35,235.66-5.24,13.81-16.43,23-32.27,26.47h0C890.44,1513.11,717.49,1347.27,729.79,1233.06Z" />
            <path
                d="M518.76,914.07c-4.75-1-5.82-1-9.45.07-7.89,2.28-11.86,7.67-12.47,16.92-1.38,20.93,19.28,57.86,48.61,86.92,15.73,15.58,30.52,25.28,41.15,27h0c11.42,1.84,19.29-3.34,21.56-14.18,1.79-8.59-1.31-20.72-9.54-37.25C580,956.1,542.74,919,518.76,914.07ZM568,998.51c-2.7,0-11.64-6.5-17.65-12.83a93.17,93.17,0,0,1-15.38-22c-2.41-5.12-3.68-11-2.37-11,1.54,0,7.72,5,14.44,11.77,11.79,11.8,21.13,24.86,22.31,31.17h0C569.83,998.33,569.74,998.51,568,998.51Z" />
            <path
                d="M407.84,730.19c-16.14,5.73-29.56,20.74-34.22,38.25-3.75,14.11-.36,30.41,7,33.71h0c6.19,2.77,10.31-.06,17.43-12,6.59-11,15.07-18.22,25.64-21.78A143.19,143.19,0,0,1,438,765c11.39-2.18,15.9-4.46,17.64-8.92,1.41-3.63.64-6.83-3.09-12.76C443.66,729.24,425.52,723.92,407.84,730.19Z" />
            <path
                d="M448.17,830.28c-39.95,25-21,126.24,28.17,205.07,33.84,54.25,126.3,121.08,185.8,88.81,54.09-29.34,3.28-147.19-42.67-206.91C556,834.72,483.91,807.91,448.17,830.28Zm180.54,250.58c-23.49,18.72-76.13-14.52-114.92-66.9-42-56.66-67.83-134-26.72-144.45,25.35-6.45,67.81,27.57,101.68,70.67C629.64,992.21,658,1057.49,628.71,1080.86Z" />
            <path
                d="M1459.16,2064c33.44,9.07,58.06-12,65.59-36.88,7.44-24.55-1.19-54.84-34.17-65.36-33.23-10.6-58.26,9-67,33.17C1414.23,2020.71,1422.84,2054.09,1459.16,2064Zm41.6-45.18c-2.86,11.85-16.34,25.21-35.06,21.87-19.41-3.46-24.16-17.4-21.45-33.44,2.38-14.08,15.77-29.7,33.4-26.47C1501.29,1985.07,1503.28,2008.33,1500.76,2018.77Z" />
            <path
                d="M336.5,620.06c-9.9,6.62-16,20.61-14.14,32.63.94,6.2,3.11,9.18,7.8,10.71h0a16.77,16.77,0,0,0,4.82,1c2.74-.46,7.91-4.3,10.95-9.23s10.07-8.27,15.29-8.58c7.11-.43,9.49-2.41,12.17-4.28,8.41-5.85,7.34-15.88-2.51-23.72C362.27,611.72,348.06,612.33,336.5,620.06Z" />
            <path
                d="M390,673a43,43,0,0,0-27,3.78c-11.26,5.62-20.16,24.27-18.53,38.87.58,5.26,3.22,8.75,7.29,9.66a21.26,21.26,0,0,0,3.51.55c2.33-.18,7.89-3.88,12.5-10.44,4.32-6.15,12.94-10.59,19.26-11.8,10.68-2.05,13.31-4,17.3-7.47,3.72-3.23,4.93-7,3.39-10.64C405.51,680.33,397,674.31,390,673Z" />
            <path
                d="M324.9,572.24c-5.31,1.8-11.41,7.69-14.69,14.2-4.12,8.18-3.4,14.08,2.13,17.43h0c5.28,3.2,12.48,1.37,19.37-4.92,3.53-3.23,5.06-3.94,11.46-5.39,3.61-.81,7.37-5.08,7.37-8.37C350.54,574.52,337.55,568,324.9,572.24Z" />
            <path
                d="M1238.66,1883.62c-62.53-9.45-75.21,82.38-14.62,94C1287,1989.64,1301.32,1893.09,1238.66,1883.62Zm20.11,53.94c-3.57,17.7-20.56,23.89-34.52,19.64-13.79-4.19-21.1-21.28-14.63-36.45,5.22-12.24,21.11-16.69,31.49-13.45A26.15,26.15,0,0,1,1258.77,1937.56Z" />
            <path d="M1233,1920.76c-13.39-2.26-17.49,18.44-3.5,21.29C1244.49,1945.11,1249.11,1923.49,1233,1920.76Z" />
            <path
                d="M1390.76,2003c17.49-32.18-8.72-73.44-44.62-72.13-60.14.44-69.13,85.49-10.39,98.8h0C1357.27,2034.34,1381,2022.86,1390.76,2003Zm-56,2.51c-26.39-10.79-23.36-33.38-10.82-45.71,12.08-11.88,34.87-16.06,47.26,7.07,2.68,5,3,10.8,2.23,16.17a28,28,0,0,1-10.37,18.09,33.72,33.72,0,0,1-11,5.09C1346.3,2007.76,1339.62,2007.46,1334.81,2005.5Z" />
            <path
                d="M1346.47,1963.18c-8.11-1.39-14.31,4.55-16.29,11.14s.21,14.19,8.71,17.25h0c7.7,3.39,17.71-2.41,19.34-10.3C1360,1972.83,1354.36,1964.53,1346.47,1963.18Z" />
            <path
                d="M1008.28,1609.06c-47.08-.69-81.31-1.07-115.36,13.33-30.63,17.4-1.2,43.38,30.74,77.41,35.35,34,68.87,84.89,110.69,94.37h0c8.71,1.1,16.54-3.86,20.74-11.86,10.89-20.74,15-106.79,10.45-132.17C1059.15,1614.34,1058.72,1611.81,1008.28,1609.06Zm8.74,84.56a111.87,111.87,0,0,1-3.82,13.79,41.87,41.87,0,0,1-2,5h0c-1.22,2.62-4.36,1.84-8.44-.88-10-6.63-25.51-24.8-32.4-33.31-2.48-3.08.27-5.43,4.4-6.13,6.14-1,14.55-2.19,20.25-2.69C1020.1,1665.46,1018.93,1677.16,1017,1693.62Z" />
            <path
                d="M1626.05,2013c-23.12,5.27-21.07,41.12,4.29,40.28h0C1659.57,2051.72,1655.87,2006.93,1626.05,2013Z" />
            <path
                d="M1118.77,1864.28c-1.37,20,33.11,9.08,18.15-6.25C1130.28,1851.22,1119.41,1854.89,1118.77,1864.28Z" />
            <path
                d="M1079.31,1864.18c-2,52.12,78.78,74.65,94.87,19.87C1193.26,1819.06,1082.12,1789.25,1079.31,1864.18Zm70.69,18c-24.15,31.52-68.33-19.74-32.81-38C1140.21,1832.3,1165.92,1861.39,1150,1882.16Z" />
        </g>
    
        <g class="layer1">
            <path
                d="M2623.59,1658.52c-57-275-207.35-434.45-407.68-527.22-84-38.9-176.77-66.08-275.13-85.17-189.15-36.7-697.11-54.65-754.52-65.05-36.34-6.58-75-14-114.25-20.93-103.2-18.15-207.56-61.36-287.53-106-103.86-56.89-181.75-113.7-278.3-207.2C420.76,573.1,330.39,394,250.35,409.45c-31.34,6.05-35,59-26.4,122.61,24.3,167.93,45.2,246.6,111.13,430.81,122.68,302.37,254,526.22,440.66,766.75,232.64,299.82,757.43,789.31,1275,709.34C2456.44,2366,2700.28,2094.45,2623.59,1658.52Zm-78.18,344.13c-38.28,86.21-109.87,195.6-167.53,239.7-96.13,75.3-258.08,115.75-390.82,85.08-113.47-27.67-205-109.31-292.41-156.71-128.19-63.91-173.88-73.31-306.39-105.11-68.78-16.51-145.3-37.54-218.81-84.79-87.56-56.27-173.73-145.43-277.29-248.72C700,1540.4,494.64,1160.26,403.27,937.25,364,841.33,299.12,664.61,286.09,553.73c-1.35-12.38-7.71-55.12,3.08-61.64,6.48-3.92,21.47,3.55,45.09,40.09,42.45,65.74,91.95,128.22,134.64,173.7,348.2,375.43,846.93,330.45,1320.59,386.5,308.53,36.51,651.94,161.88,756.71,510.8,20.23,54.55,38.81,155.6,30,246.8C2570.11,1913.44,2562.18,1964.88,2545.41,2002.65Z" />
            <path class="layer1-color1"
                d="M2464.46,1862.2c-19.81,7.67-48.84-4-56-23.06s-.62-34.53,17.18-45.23c19.54-11.74,48.26-5.86,60.89,14.73C2496.38,1824.42,2488.21,1853,2464.46,1862.2Z" />
            <path class="layer1-color1"
                d="M2027.48,1837.31c-19.91.51-36.37-9.25-44.92-24.94-7.69-14.09-2.6-32,9.79-41.73,22.52-17.7,54.12-11.4,68.55,9.66,9.56,13.93,7.37,31.49-4.6,43.67C2048.34,1832.06,2034.48,1837.13,2027.48,1837.31Z" />
            <path class="layer1-color1"
                d="M443.69,862.16c5.51-2.7,9.41-.73,11.69,2.75,2.46,3.76,2.4,9.84-1.78,12.35s-11,.7-13.28-3.75C438.29,869.55,439.3,864.32,443.69,862.16Z" />
            <path class="layer1-color1"
                d="M495.91,834.31c3,4.1,2.5,9.08-1.26,12.2-3.46,2.86-7.33,2.61-10.88-.72-4.06-3.81-4.77-8.26-1.56-12.11C485.68,829.51,492.74,830,495.91,834.31Z" />
            <path class="layer1-color1"
                d="M1684.5,2211.77c15,.18,26.5,11.63,26.46,26.43a27,27,0,0,1-54.06-.36C1656.87,2223.71,1670.52,2209.75,1684.5,2211.77Z" />
            <path class="layer1-color1"
                d="M1744.32,2257.76c13.45-1.66,25.13,12.29,25,24.07-.18,14.62-11.18,25.41-26.3,25.36-13.42-.05-23.69-11.19-24.12-25.13C1718.53,2270.67,1729.76,2256,1744.32,2257.76Z" />
            <path class="layer1-color1"
                d="M1941.4,1208.85c-.91,13.15-11.73,21.9-25.73,20.82a22.44,22.44,0,0,1-20.85-24.28c1-12.51,12.55-22.61,24.81-21.67C1933,1184.76,1942.32,1195.5,1941.4,1208.85Z" />
            <path class="layer1-color1"
                d="M1396.83,2146.69c-13.11-.17-24.28-10.86-24.28-23.23,0-12,10.12-21,23.31-20.66,13.68.32,24.59,11.16,24.22,24.06C1419.74,2138.51,1409.94,2146.86,1396.83,2146.69Z" />
            <path class="layer1-color1"
                d="M1988.38,1202.94c12.46,1,21.68,10.91,20.82,22.47-1,13.61-11,22.64-24.08,21.72-12.47-.88-22.38-11.88-21.53-23.89S1975.69,1202,1988.38,1202.94Z" />
            <path class="layer1-color1"
                d="M1543.85,2178.05c-12.41,0-22-9.24-22-21.2a22,22,0,0,1,22.12-22.23c13.44-.2,23.78,8.5,23.91,20.13C1568,2167.3,1557,2178,1543.85,2178.05Z" />
            <path class="layer1-color1"
                d="M1637.56,2191.2c-.1,12.23-10,21.26-23,21-11.4-.19-20.88-10-21-21.78-.09-12.38,10.52-22.87,22.84-22.58C1628.27,2168.16,1637.68,2178.51,1637.56,2191.2Z" />
            <path class="layer1-color1"
                d="M1469.84,2153.34a21.54,21.54,0,1,1,21.58-21.92C1491.53,2143.16,1481.52,2153.34,1469.84,2153.34Z" />
            <path class="layer1-color1"
                d="M2046.08,1263.41c-11.59-.7-20.82-11-20-22.42s11.23-20.85,22.51-20.09,19.33,11.5,18.67,24.49C2066.66,1256.25,2057.45,1264.11,2046.08,1263.41Z" />
            <path class="layer1-color1"
                d="M1098.43,1088.65a19.23,19.23,0,0,1,20.3-17.34c11,.77,19.66,10.89,18.6,21.8a21.08,21.08,0,0,1-22.06,18.6C1104.84,1111,1097.43,1100.85,1098.43,1088.65Z" />
            <path class="layer1-color1"
                d="M1184.68,1114.83c-.79,10-10.29,17.93-20.56,17.11a19.37,19.37,0,0,1-17.85-20.75c.75-10.86,9.83-19.33,20.06-18.69S1185.55,1103.94,1184.68,1114.83Z" />
            <path class="layer1-color1"
                d="M1198.72,1164.86a18.12,18.12,0,0,1-16.29-20c1.14-10.8,10.81-18.35,21.91-17.1a17.72,17.72,0,0,1,16,19.47A19.56,19.56,0,0,1,1198.72,1164.86Z" />
            <path class="layer1-color1"
                d="M729.43,1186.12c-.35,5.29-5.64,10.15-10.71,9.84a10.41,10.41,0,0,1-9.41-11.62c.53-5.42,5.2-9.49,10.28-8.94C725.14,1176,729.76,1181,729.43,1186.12Z" />
            <path class="layer1-color1"
                d="M1140.2,1578.52a9.88,9.88,0,0,1,10.11-9.32c5.38.13,10.44,5.11,10.38,10.21-.07,5.38-5.84,10.79-11,10.37C1144.83,1589.39,1140,1583.57,1140.2,1578.52Z" />
            <path class="layer1-color1"
                d="M1128.6,1594.09c5.22-.1,9.82,4.58,10,10.21.21,5.43-4.24,10.67-9.34,11-4.66.28-9.66-5-9.94-10.46C1119.07,1599,1123.25,1594.19,1128.6,1594.09Z" />
            <path class="layer1-color1"
                d="M909.57,1638c0-5.3,4.83-10.38,9.92-10.48s10.06,5,9.89,10.31-5.3,10.25-10.33,10.09A10.23,10.23,0,0,1,909.57,1638Z" />
            <path class="layer1-color1"
                d="M1123.71,1646.88a10,10,0,0,1-9.9-9.36c-.25-5.28,5.21-11.23,10.15-11.07,4.36.15,9,5.53,9.11,10.51A10,10,0,0,1,1123.71,1646.88Z" />
            <path class="layer1-color1"
                d="M454,847.8c0-5.43,4.4-9.86,9.55-9.72,5,.14,9.31,4.8,9.4,10.11.08,4.8-4.24,9.65-8.77,9.83C459.06,858.23,453.93,853.07,454,847.8Z" />
            <path class="layer1-color1"
                d="M951,1626.1c4.87,0,8.32,3.49,8.47,8.67.17,6-3.78,10.65-9.18,10.88-4.85.22-9.06-4-9.15-9.08C941,1631.19,945.77,1626.15,951,1626.1Z" />
            <path class="layer1-color1"
                d="M733.69,1169.86c0-5.4,3.72-9.71,8.4-9.66,4.89,0,9.32,4.74,9.4,10,.07,4.8-4.43,9.41-9,9.22A9.48,9.48,0,0,1,733.69,1169.86Z" />
            <path class="layer1-color1"
                d="M983.78,1644.36c-4.71-.16-9.23-4.92-9-9.48.24-4.78,4.78-9.29,9.37-9.3,5,0,10,4.8,9.93,9.63S989,1644.54,983.78,1644.36Z" />
            <path class="layer1-color1"
                d="M710.08,1215.31a8.58,8.58,0,0,1-8.94,8.37,9.22,9.22,0,0,1-8.25-8.42c-.12-4.66,4-9,8.49-8.85A9.38,9.38,0,0,1,710.08,1215.31Z" />
            <path class="layer1-color1"
                d="M740.22,985.91c4.88-1.25,10.7,2,12,6.6s-2.16,10.44-7.11,11.57-10.69-2.42-11.75-7.08A9.72,9.72,0,0,1,740.22,985.91Z" />
            <path class="layer1-color1"
                d="M761.1,1021.12c1.21,4.46-1.21,8.48-5.93,9.86-5.45,1.59-10.7-.92-12.21-5.83-1.36-4.41,1.48-9.28,6.16-10.59C754,1013.19,759.81,1016.34,761.1,1021.12Z" />
            <path class="layer1-color1"
                d="M752.19,1055.64c-1-4.36,2.31-9.66,6.55-10.55,4.45-.93,9.69,2.16,10.8,6.38,1.22,4.63-2,10.34-6.47,11.43S753.27,1060.45,752.19,1055.64Z" />
        </g>
    </g>
</svg>