<svg xmlns="http://www.w3.org/2000/svg" viewBox="0 0 3000 3000">
    <defs>
        <style>
            .background {
                fill: #ddd6d6;
            }
        </style><style>
            .layer6-color1 {
                fill: #fff;
            }
        </style><style>
            .layer5-color1 {
                fill: #69f;
            }

            .layer5-color2 {
                fill: #ff99cb;
            }

            .layer5-color3 {
                fill: #f55;
            }
        </style><style>
            .layer4-color1 {
                fill: #fff599;
            }

            .layer4-color2 {
                fill: #fff;
            }

            .layer4-color3 {
                fill: #339;
            }

            .layer4-color4 {
                fill: #2acfd3;
            }
        </style><style>
            .layer3-color1 {
                fill: #f97878;
            }

            .layer3-color2 {
                fill: #0cf;
            }

            .layer3-color3 {
                fill: #fff;
            }
        </style><style>
            .layer2-color1 {
                fill: #fff;
            }
        </style><style>
            .layer1-color1 {
                fill: #fff;
            }
        </style>
    
    
    
    
    
    
    </defs>
    <rect class="background" width="3000" height="3000" style="fill: #85F8F6;"></rect>
    <g class="patterns">
     
    
        <g class="layer6">
            <path class="layer6-color1"
                d="M2576.22,1006.2c-6.11-63.47-14-114.9-30.81-152.67-14.41-32.45-28.7-71.18-50-105.48-35.33-56.83-79.75-107.41-115.08-135.71-45.2-36.2-120.51-84.42-188-107.23-65-22-148.8-36.52-223.23-36.52-139.09,0-316.16,38.74-504.44,134.89-113,57.72-224,143.51-307.91,216.71-49.43,43.12-156.13,156.36-200.36,202.27-30.74,31.91-79.38,88.3-110.67,125.07-6.34,7.45-350.32,495.25-431.48,713.69-40.62,109.31-69.88,204.77-89.9,277.3-15.9,52-29.15,103.36-35.83,146.74h0q-1.37,8.82-2.35,17.19c-1.35,12.37-7.71,55.11,3.08,61.64,6.48,3.91,21.47-3.55,45.09-40.1,42.45-65.74,91.95-128.22,134.64-173.7,295-318.08,698.09-334.16,1102.4-366,110.32-8.7,262.17-77.32,305.26-108.68,71-51.72,128.65-140.68,212.83-139.31,154.88,2.51,250.34-19.41,330.4-84.75,52.6-42.92,91.82-99.87,114.9-163.71q5.05-14,9.55-28.41,1.82-5.87,3.85-11.66C2567.57,1192.14,2584.74,1094.55,2576.22,1006.2Z" />
            <path
                d="M2050.73,417.21c-517.56-80-1042.35,409.52-1275,709.35-186.62,240.52-318,464.38-440.66,766.75-65.93,184.2-86.83,262.88-111.13,430.81-8.58,63.62-4.94,116.56,26.4,122.61,80,15.44,170.41-163.66,255.83-237.46,96.55-93.5,174.44-150.31,278.3-207.2,80-44.69,184.33-87.89,287.53-106,39.25-6.9,77.91-14.35,114.25-20.93,57.41-10.4,565.37-28.35,754.52-65.06,98.36-19.08,191.14-46.27,275.13-85.16,200.33-92.78,350.7-252.18,407.68-527.23C2700.28,761.72,2456.44,490.2,2050.73,417.21Zm493.51,842.2q-4.5,14.46-9.55,28.41c-23.08,63.84-62.3,120.79-114.9,163.71-80.06,65.34-175.52,87.26-330.4,84.75-84.18-1.37-141.79,87.59-212.83,139.31-43.09,31.36-194.94,100-305.26,108.68-404.31,31.86-807.39,47.94-1102.4,366-42.69,45.48-92.19,108-134.64,173.7-23.62,36.55-38.61,44-45.09,40.1-10.79-6.53-4.43-49.27-3.08-61.64q1-8.35,2.35-17.19h0c6.68-43.38,19.93-94.77,35.83-146.74,20-72.53,49.28-168,89.9-277.3,81.16-218.44,425.14-706.24,431.48-713.69,31.29-36.77,79.93-93.16,110.67-125.07,44.23-45.91,150.93-159.15,200.36-202.27,83.88-73.2,194.89-159,307.91-216.71,188.28-96.15,365.35-134.89,504.44-134.89,74.43,0,158.22,14.56,223.23,36.52,67.53,22.81,142.84,71,188,107.23,35.33,28.3,79.75,78.88,115.08,135.71,21.33,34.3,35.62,73,50,105.48,16.77,37.77,24.7,89.2,30.81,152.67,8.52,88.35-8.65,185.94-28.13,241.55Q2546.06,1253.54,2544.24,1259.41Z" />
            <path class="layer6-color1"
                d="M1992,1671.3c9.82-2.3,16.39-10.4,14.86-20.2a18.13,18.13,0,0,0-35.8,5.71C1972.44,1666.19,1982.75,1673.45,1992,1671.3Z" />
            <path class="layer6-color1"
                d="M2027,1634.74c9-1.37,15.41-10.69,14.11-18.49-1.6-9.67-10-15.7-20-14.14-8.89,1.4-14.57,9.83-13.44,19.11C2008.55,1628.8,2017.23,1636.23,2027,1634.74Z" />
            <path class="layer6-color1"
                d="M1810.62,1743.84c-7.95,1.32-13.74,8.85-12.59,16.37,1.12,7.29,8.1,11.8,16.08,10.39,8.29-1.47,13.91-9.07,12.48-16.87C1825.3,1746.68,1818.57,1742.52,1810.62,1743.84Z" />
            <path class="layer6-color1"
                d="M1902.16,1707.92c-8.23,1.24-13.68,8.36-12.44,16.29a14.78,14.78,0,0,0,16.92,12.49c8.93-1.23,14.9-8,13.81-15.77C1919.27,1712.59,1910.87,1706.62,1902.16,1707.92Z" />
            <path class="layer6-color1"
                d="M1964.71,1684.85c-1.46-9-9.75-14.52-19.34-12.89-8.38,1.43-14.24,9.73-13,18.39a16.9,16.9,0,0,0,19.35,14.05C1960.46,1702.85,1966.22,1694.18,1964.71,1684.85Z" />
            <path class="layer6-color1"
                d="M1855.61,1731.81a14.44,14.44,0,1,0,16.52,12.34A14.79,14.79,0,0,0,1855.61,1731.81Z" />
        </g>
    
        <g class="layer5">
            <path class="layer5-color1"
                d="M2377.88,613.82c-37.23-26.35-123.21-81.68-190.74-104.49-65-22-143.68-40.74-218.11-40.74-139.09,0-316.16,38.74-504.44,134.89-113,57.72-224,143.51-307.91,216.71-49.43,43.12-156.13,156.36-200.36,202.27-30.74,31.91-79.38,88.3-110.67,125.07-6.34,7.45-350.32,495.25-431.48,713.69-40.62,109.31-69.88,204.77-89.9,277.3-15.9,52-29.15,103.36-35.83,146.74h0q-1.37,8.82-2.35,17.19c-1.35,12.37-7.71,55.11,3.08,61.64,6.48,3.91,21.47-3.55,45.09-40.1,42.45-65.74,91.95-128.22,134.64-173.7,348.2-375.42,846.93-330.45,1320.59-386.49,308.53-36.51,651.94-161.89,756.71-510.8,20.23-54.55,38.81-155.6,30-246.8-6.11-63.47-14-114.9-30.81-152.67-14.41-32.45-28.7-71.18-50-105.48C2460.05,691.22,2414.83,640,2377.88,613.82Zm-19.2,569.62-2.21,6-1.82,6.08c-62,206.43-260,330.82-588.66,369.7-87,10.3-178.42,17.29-266.78,24-198,15.15-402.74,30.81-599.35,84.72q-109.23,29.94-205.26,73.32c30.78-53.37,71-119.55,123.47-201.25,86.84-135.14,167.21-250,184.66-274.47,42.59-49.93,78-90,97.62-110.33q11.26-11.68,26.79-28c44.21-46.23,126.52-132.27,161-162.39,66.48-58,166.84-137.94,267.38-189.28,192.55-98.33,341.71-113,413.48-113,41.68,0,96.41,10.73,154.1,30.22,34.29,11.58,97.71,48.89,139.21,78.26,8.79,6.28,36.9,34.29,63.2,76.59,8,12.91,16.84,33.71,25.37,53.83,3.72,8.78,7.57,17.87,11.67,27.11,2.29,5.49,8.26,25.29,14.57,90.78C2382.8,1084,2369.47,1154.36,2358.68,1183.44Z" />
            <path class="layer5-color2"
                d="M2413.65,934.31c-75.31-213.63-303.64-306-493.56-305.37-341-8.09-818,333.84-1046.3,643.78C715,1486.22,567.86,1578.37,307.56,2130.35c-82.23,340.06-34.23,308.17,122,31.25,281-311.85,554.76-373.4,963.76-383.65C1968.88,1736.79,2566.4,1552.05,2413.65,934.31Z" />
            <path class="layer5-color3"
                d="M275.8,2421.78a86.66,86.66,0,0,0,1.17-9.38,239,239,0,0,1,8.06-45.19l3.11-11.15,8.47,3.76C328,2308.9,378,2232.91,439.85,2156.54c75.17-92.77,149-162.92,219.54-208.51,91.19-59,101.91-105.93,178.72-134.67,117.68-44,202.66-79.91,267.56-99.3,57.43-17.15,189.27-53.29,227.52-57.76,86.73-10.14,506.52-26.57,759.83-176.65,156.37-92.66,181.52-214.88,194.6-330.84,3.85-34.13-26.61-74.79-36.39-96.3-10.77-23.68-19.14-83.74-19.14-83.74l228.21-47.88,2.89,9.59c23,76.36,31.77,150.84,26.1,221.35-5.07,63-21,111.09-33.42,140.37-27.9,65.59-70.25,128.18-122.47,181-8.39,8.49-17.17,17.44-26.46,26.93-60.44,61.7-135.66,138.5-182.92,162.65-62.52,32-205.42,97.57-255.66,109.1-105.53,24.23-229,36.63-371.95,51-50.57,5.08-102.87,10.34-157.6,16.44-150.19,16.75-429.76,47.92-622.43,177.17-134.56,90.27-259.26,232-341.78,325.76-34.87,39.63-89.07,74.72-89.07,74.72Z" />
        </g>
    
        <g class="layer4">
            <path class="layer4-color1"
                d="M2043.34,832.44C1463.91,571.81,741.46,1363,416.28,1985.52c-49,93.87-106.48,272.86-132.35,369.64-2.29,8.58,9.47,13.38,13.68,5.57,55.78-103.46,183.47-318,336.76-429.87,141-102.94,452.31-266.92,582.25-297,189.19-38.53,579.74-103.12,819.71-249.67,89.46-54.64,150.22-117.88,170-187.56,15.75-55.52,20.06-112.11,9.63-164.48C2198,941.89,2127.72,870.39,2043.34,832.44Z" />
            <path class="layer4-color2"
                d="M2606.09,1003.32C2589.64,673.39,2292,431.78,1969,438.6,1278.54,455.48,761.14,1159.23,456.25,1736.85c78.47-103.53,146.73-207.36,226.56-317.67C785,1278,890.28,1139,980.27,1040.71,1216.8,763.34,1598,504.14,1969,508.6c279.7-7.65,545.57,199.57,564.74,484.64,18.31,164.53-25.14,347.6-146.45,465.74-62.83,59.32-217.61,131.24-210.88,142.89,109.8-26.64,343.18-104.47,386.44-303.86C2593.83,1213.37,2615.7,1118.18,2606.09,1003.32Z" />
            <path class="layer4-color3"
                d="M2343.39,1468.62C2270.75,1499,2103.15,1500,2102.14,1500c-38.47,0-75.25,11.44-112.45,35-31.68,20-57.67,46.38-84.63,69.82-98.34,85.53-262.72,123-336.31,132.71-58.8,7.73-447.94,34.49-632.27,85.1-101.29,27.81-190.1,63.69-271.53,109.7C573,1984.25,495.22,2049.47,420.7,2125.52c-48.62,49.63-122.35,175.73-141.95,226.61a97.24,97.24,0,0,1-7.66,15.86c.59,15.86,4.33,26.55,13.27,32a21.88,21.88,0,0,0,11.35,3.1c15.79,0,33-15.22,54.1-47.9,39.33-60.9,87.8-123.44,133-171.63C759.68,1885,1127.59,1856.73,1517.1,1826.77q29.14-2.25,58.33-4.53c111.12-8.75,265.74-77.17,312.91-111.5,22.2-16.17,43.05-35.76,63.21-54.71,44.73-42,87-81.75,138.87-81.75l1.68,0c7.91.13,15.74.19,23.26.19h0c148.18,0,240-25.59,316.85-88.31,53.8-43.91,95.13-102.78,119.52-170.24,3.44-9.51,6.72-19.28,9.76-29,1.18-3.78,2.42-7.53,3.69-11.16,17.37-49.59,14.22-8.52,13.26-85.6C2578.46,1190.13,2530.3,1390.55,2343.39,1468.62Z" />
            <path class="layer4-color3"
                d="M1045.49,1508.6a52.45,52.45,0,0,0-19.22-16.37l-10.81,14.15c7.11,10-2.93,29.66-18.7,40.82-17.26,12.23-33.5,7.43-46.3.88-16.52-8.45-52.6,22.36-76.09,39.08S850.85,1640,850.85,1640c8.31,11.74,1.06,31.16-16.21,43.38-14.92,10.57-32.43,12.29-42.27,5l-1.73,7.1c30.6,34.79,107.86,24.86,176.56-23.78C1038.47,1621.2,1073.53,1548.19,1045.49,1508.6Z" />
            <path class="layer4-color3"
                d="M650.16,1745.11c-.81-.55-1.66-1-2.51-1.52l-5.91,11.18c4,4.87.86,16.84-7.52,27.92-9,11.88-20.12,17.44-26,14.16-13.56-7.58-53.07,41.28-67.46,59.92s-2.69,46.67-2.69,46.67c5.38,4.07,2.45,17-6.54,28.87-5.83,7.71-12.93,13.27-18.57,15l-13.34,6a34.84,34.84,0,0,0,7,6.21c30.43,20.38,87.23-11.11,126.87-70.33S680.6,1765.48,650.16,1745.11Z" />
            <path class="layer4-color3"
                d="M1624.31,1288.43c-4.65-6.81-15-17.9-28.23-29.3-2.13-1-4.29-1.92-6.46-2.87,10.92,24.16,9.48,48.21-4.77,57.35-15.69,10.07-41.36-1.53-59.26-26a76.05,76.05,0,0,0,2.7,12.55c-34.66-23.76-68-18.19-136.8,5.07-62.61,21.17-120.71,55-117.16,94.54q-2.52-2.35-5.15-4.38c7.29,29.09,0,55.91-17.63,61.61-13.5,4.38-29.38-4.84-41.09-21.91a80.36,80.36,0,0,0,3.65,12.26l.7.93,39.83,39.25,82.71,32c40.52,5.31,85.79,3.65,131.84-15.41,74.55-30.86,137.65-75.35,155.12-115.4S1633.39,1301.7,1624.31,1288.43Z" />
            <circle class="layer4-color3" cx="2064.46" cy="660.29" r="129.37" />
            <polygon class="layer4-color4" points="758.53 1863.62 765.91 1815.4 826.81 1828.44 758.53 1863.62" />
            <polygon class="layer4-color4" points="998.38 1346.64 1065.79 1298.13 1070.77 1382.38 998.38 1346.64" />
            <circle class="layer4-color4" cx="1750.46" cy="1604.96" r="46.36" />
            <circle class="layer4-color4" cx="1604.27" cy="1667.22" r="38.07" />
            <circle class="layer4-color4" cx="1477.78" cy="1704.64" r="38.07" />
            <circle class="layer4-color4" cx="1355.97" cy="1721.64" r="34.48" />
            <circle class="layer4-color4" cx="1234" cy="1718.52" r="34.48" />
        </g>
    
        <g class="layer3">
            <path class="layer3-color1"
                d="M2218.65,1244.85s-24.56-4.29-29.32-14.46-16.57-30.59-14-39.66,19-12.3,42-18.56,51.8-24.24,62.47-30.36,24.54-12.62,34.91-7.32,24,24.83,20.59,34.34-22.79,33.22-23,42.35,6.89,34-1.18,45.66-44.83,19.86-44.83,19.86S2230.12,1242.86,2218.65,1244.85Z" />
            <path class="layer3-color2"
                d="M1835,1133.51s-26.77-99.81,71.51-154.84,135.9-21.18,135.9-21.18,36.78,8.72,52.17,32,18,45.7-5.59,74.79-53.11,57.56-96.53,75.63-89.31,26-106.59,22.82S1835,1133.51,1835,1133.51Z" />
            <path class="layer3-color2"
                d="M2266,967.85s-11.08-30.9-5.38-57.25,19.37-59.81,46.74-76,31.81-28.41,77.09-30.44,59.91-2.11,80.47,15.33a128.31,128.31,0,0,1,30.53,38.71s-5,32.77-21.42,50.62-39.93,42.37-69.47,53.94-53.09,21.47-85.49,19.72S2266,967.85,2266,967.85Z" />
            <path class="layer3-color3"
                d="M2185.54,1212.71s-11.35-11.6-.89-23,38-10.44,46.92-12.38a131,131,0,0,0,34.15-13.17c12.06-6.77,31.82-20,31.82-20s9.38-5.24,18.22-2.61,15.16,23.35-21.09,42.85c-33.54,18-63.63,26.68-82.91,30.07S2185.54,1212.71,2185.54,1212.71Z" />
            <path class="layer3-color3"
                d="M2292.15,835.62c-4.44-5.2-13.15-6.21-18.34-1.44a167.53,167.53,0,0,0-51.47,95.75c-7,41.9,5.62,82.67,22.26,120.76a621.62,621.62,0,0,0,36.21,70.21c3.61,6,10.47,9.45,17.29,6.26,5.87-2.75,9.89-11.22,6.26-17.29a623.13,623.13,0,0,1-31-58.49c-8.53-18.46-16.7-37.39-21.79-57.13-8.66-33.54-6.62-66.23,8-97.82A138.6,138.6,0,0,1,2290.7,854,13.28,13.28,0,0,0,2292.15,835.62Z" />
            <path
                d="M2202.91,1370.54c-8.5.79-15.25-5.08-15.31-13.31-.09-13,13.44-21.45,22.58-14.16,6.11,4.89,7.79,11.09,4.88,18.07-2.43,5.83-6.34,8.86-12.15,9.4Z" />
            <path
                d="M2393.21,1280.66c-10.39.83-17.37-8.28-14.37-18.74,1.67-5.78,5.77-10.48,10.54-12.05s6.35-1.36,11.37,1.84c6.83,4.35,9.19,9.59,7.4,16.4-1.64,6.23-8.56,12.05-14.94,12.55Z" />
            <path
                d="M2404.35,1234.34c-8.59-.43-16.65-9.82-17-17.7-.3-6.73,6.7-12.65,11.85-15.08,3.39-1.6,10.72-1,14.22,1.16,6.56,4,9.17,13.45,5.92,21.28-2.41,5.79-9.41,10.62-15,10.34Z" />
            <path
                d="M2488.58,817.68c-113.49-101.89-292.57,10.87-243.5,158.47,9.7,39.92,33.45,99.75,57.9,131.47-12.83,3.09-17.92,5.22-29.9,16-11.91,10.46-17.27,14.44-25.41,18.82-13.1,9.77-51.7,8-65,16.17-48.06,24.61-19.59,101.13,31,106.1,12.07,2.47,12.17,2.81,22.62,12.09,34,34.11,37.11-1.3,38.65,45.27,1.14,38.25-39.05,63.46-75.4,71-22.41,4.13-37.65,4.88-51.82,2.53-9.86-1.63-15.54-1.37-21.42,1s-8,4.86-8.5,9.91c.21,19.77,41.94,24.25,61.92,21,53-6.42,117.9-36.59,125.64-91,47.51,34.09,115.13,4.68,150.2-36.75,12.54-15.08,21.4-38.21,13.13-44-5.62-4-12.44-3.25-19.62,2.67-2.11,1.75-9.6,11.5-17.73,20.74-29.62,32.24-40.21,43.79-77.07,39.48-21.81-2.53-33.55-11.36-41.18-28.15-2.24-6.63-2.07-7.49,1.91-9.9,7.33-4.43,13-13,16.36-24.91,4-7.92,1-33.92,1.76-46.3.76-4.06,1.17-4.86,9.32-18,14-21.77,13-44.74,0-63.22-3-3.86-9.35-10-11.92-11.66-3.76-2.39-1.12-2,2.85-2.7,79.29,14.63,151.1,4.39,191.89-76.16,13.48-22.83,20.2-63.67,7-81.48-17-20.53-33.29-10.83-49.74,11.68-32.39,42.25-78.66,56.47-132.22,60.83-19.6,1.33-49.84,2.11-59.87-14.11-3-4-8.23-13.88-7.54-14.2.16-.08,4.3.27,9.2.77,83.41,10.73,193.12-35.45,216.53-102.91C2520.43,866.94,2514.06,840.52,2488.58,817.68Zm-179.47,365.5c-27.39,30.59-4.78,40.67-11.23,56.09h0c-6.8,10.27-18.3-23.61-26-23.12-18.12-3.68-2.11,33.93-8.74,36-3.25,1.52-11.17-5.49-18.87-16.72-8.75-12.77-14.19-16.74-22.7-16.58-18.54.34-22.08-.11-25-3.21-2.59-2.76-5.66-5.4-5.36-12.38-.87-15.36,15.25-20.55,30-19.76,15.67-1.28,19.32.83,35.49-7.21,15-5.9,32.2-22.89,44.8-24.81C2321,1151.38,2325.17,1166,2309.11,1183.18Zm24.95-221.89c-13.69,1.84-46.36-.36-55.19-5.95-8.83-22.1-3.55-60.75,9.77-81.87,1.93-2.12,2.11,1.49,2.41,3,4.29,28.78,21.33,58,44,83.35h0C2335.6,960.36,2334.7,961.22,2334.06,961.29Zm142.07-96.91c-.17.89-.39,1.79-.64,2.72-4.45,16.69-19.87,39.18-30.76,50.11h0c-5.95,5.74-5.73,5.74-7.05.09-4.18-27.53-17.91-75.43-35.78-98.2-1.81-3-1.05-3.81.42-3.64,27.47,3.52,53.89,18.14,70.78,40.18A13.21,13.21,0,0,1,2476.13,864.38Z" />
            <path
                d="M2229.63,1314.59c6.46-7.16,6-17.77-1-23.89-26.73-19.59-45,29.21-11.42,29.83h0C2220.92,1320.2,2227.33,1317.14,2229.63,1314.59Z" />
            <path d="M2361.63,1218c-24.92-.3-24.06,37.74,1.09,33.72h0C2381.56,1248.56,2381.69,1218.55,2361.63,1218Z" />
            <path
                d="M2167.65,1342.39a21.23,21.23,0,0,1-18-4.86c-5.3-4.54-7.16-12.75-4.43-19.51,2.29-5.67,5-8.59,10.26-11,7.22-3.37,14.72-2.63,20.57,2,8.27,6.59,9.76,17,3.63,25.38-2.85,3.9-7.9,7.27-12,8Z" />
            <path
                d="M2029.23,1293.72c-74.91,27-191,17.36-232.16-51.89-5.19-10.1-5.78-19.32,2.91-24.42,5.09-2.94,11-3.7,37.27-4.79,110.16-10.17,164.34-21.4,236.4-78.86,22.08-17.25,29.35-33.63,47.94-37.8,28.49,1.24,34.1,46.07,29.56,69.51-14.22,61.52-56.88,105.42-121.92,128.25Z" />
            <path
                d="M2229.18,1127.26c-12.78,3.69-23.67,2.68-26.06-2.43-1.51-3.21-.91-7.53,1.68-12.29,9.87-18.06,30.84-26.45,48.52-19.4,8.33,3.33,10,7,6,13.5-3.8,6.36-8.86,10.49-19,15.55-4.9,2.43-9.92,4.71-11.14,5.06Z" />
            <path
                d="M2211.36,1086.79c-13.33,3.49-23.21,2.45-25.62-2.7-1.49-3.18-.56-9.59,1.83-12.69,7.42-9.6,21.11-16.43,33.43-16.68,14-.28,20.19,9.66,12.34,19.77-2.38,3.07-3.68,4-10.59,7.44a83,83,0,0,1-11.39,4.86Z" />
            <path
                d="M2094.48,962.17c-83.1-71-226-26.21-273.14,68.92-16.49,27.08-27.65,88.16-13.31,110.77,31.63,49.86,122.56,49,179.09,23.34C2059.8,1139,2179.61,1022,2094.48,962.17Zm-146.83,174.72c-19.16,11.14-71.48,4.59-90.89-7.28-6.69-4.08-7.11-5.29-6.76-11.48,1.64-28.6,11.94-68.78,28.08-87.68.59-.69,1.34-.67,1.58-.12,4.9,13.55,19.47,44.54,26.67,56.11,13.87,22.11,25.46,34.4,41.4,47.22C1948.77,1134.58,1949,1136.26,1947.65,1136.89Zm125.94-84.36c-5,8.64-15,17.45-22.48,23.35-4.42,4.21-3.29-12.85-5.14-19.26-1.31-8.78-1.71-19.73-13.81-43.52a253.24,253.24,0,0,0-19.72-32.49c-1.27-3-12.15-10.44-6.88-10.9C2055.38,966.8,2103.33,1002.5,2073.59,1052.53Z" />
            <path
                d="M2203.31,1044.48c-13.33,4.12-23.91,2.33-28.68-4.84-2.53-3.8-2.19-11.15.68-14.73s13.86-9.33,21.52-11.14c6.49-1.54,16.81-1.84,21.25-.61,9.67,2.66,12,12.37,4.79,20.47C2219.56,1037.38,2211.05,1042.1,2203.31,1044.48Z" />
            <path
                d="M2193.44,1003.08c-11.18,3.95-22,4.67-26.34,1.76-5.34-3.56-5.87-10.51-1.19-15.54,5-5.42,18.73-12,28.59-13.76s16.67,1.49,17.91,8.42-6.49,14.71-19,19.12Z" />
            <path
                d="M2177.88,968.63c-9.3,1.48-16.52.37-19.72-3-2.76-2.94-2.82-8.49-.12-11.77,5.25-6.41,15.72-11,24.62-10.68,5.72.17,7.53.77,10.76,3.58,2.21,1.92,2.8,2.89,3.24,5.34,1.44,8.07-5.85,14.5-18.78,16.56Z" />
            <path
                d="M1772.1,1124.63a19.59,19.59,0,0,1-9.41-.9c-10.26-4.31-14.78-17-9.39-26.36,2-3.45,13.17-8.67,16.7-8a22.34,22.34,0,0,1,7.66,3.42c9,6.48,10.28,20,2.64,27.5A13.56,13.56,0,0,1,1772.1,1124.63Z" />
            <path
                d="M2173.13,932.62c-11.46,3.66-20.1,2.17-23-3.94-3.53-7.55,4.43-17.6,17.27-21.78,9.76-3.18,16.69-2.23,21.15,2.9,3.61,4.17,1.93,12.71-3.35,17-2.92,2.4-5.83,3.79-12.11,5.78Z" />
            <path
                d="M2106.35,940.08c-7,.86-14.45-2-17.89-6.76-3.15-4.4-3.44-11.82-2.16-16.83,1.61-6.33,14.94-11.65,18.75-11.19,6.18.74,11.12,4.11,13.56,9.27a31.27,31.27,0,0,1,2.23,6.12c.52,3-1.6,9.65-4.09,12.86-2.35,3-7.29,6.14-10.4,6.53Z" />
            <path
                d="M2431,732c6.56-.1,11.71,4.77,13.64,8.28,4.25,7.67,3.17,17.76-3.75,21.68-7.19,3.92-19.07,3.08-22.33-2.33C2407.56,741.47,2420.13,732.2,2431,732Z" />
            <path
                d="M2220.52,861.83c-6.26,1.54-12.25.29-16.76-3.51-5.58-4.7-7.29-10.75-5-17.58,1.25-3.68,6-9,9.53-10.63,9.19-4.3,21.48-.34,25.44,8.2,1.41,3,1.17,10.35-.43,13.2a20.6,20.6,0,0,1-12.81,10.32Z" />
            <path
                d="M1774.13,1066.28c-6.57.88-13.25-2.52-17.09-8.71-6.23-10.06-.33-26.19,10.74-29.34,4.08-1.16,9.87-.62,13.29,1.24C1797.13,1038.21,1792.3,1063.83,1774.13,1066.28Z" />
            <path
                d="M2382.42,766c-10.92,1.5-20-6.7-19.81-17.95a16.78,16.78,0,0,1,5.43-12.74c3.18-3.15,5.33-4.13,10.44-4.76,7.16-.89,15.23,3.55,18.27,10,2.86,6.12.57,16.19-4.77,21-3.64,3.24-4.84,3.81-9.56,4.45Z" />
            <path
                d="M2245,821.36c-6,1.24-11.33-.12-15.49-3.92a14.9,14.9,0,0,1-4.8-11.2c-.2-12.72,10.83-21.75,22.54-18.46,4.44,1.25,6.77,2.84,9.22,6.3C2263,803.32,2256.44,819,2245,821.36Z" />
            <path
                d="M2058.12,908c-6.46,1-14.18-3.43-17.17-9.79-4.17-8.9-.34-18.89,8.9-23.22,17.69-8.28,33.15,12.6,20.06,27.1-2.2,2.44-8,5.34-11.79,5.91Z" />
            <path
                d="M2335.87,771.75a17.32,17.32,0,0,1-18.82-9.56c-4.93-10.81,1.64-22.35,13.75-24.14,4.5-.67,12.13,2.2,15,5.65C2354.41,753.92,2348.9,769.46,2335.87,771.75Z" />
            <path
                d="M2288.17,790.12c-9.53,2.31-19.72-3.76-21.37-12.73a17.07,17.07,0,0,1,3.67-14.06c3.21-4.16,6.66-6.09,12.32-6.91a16.55,16.55,0,0,1,13.56,3.67c4.24,3.39,6.11,7.09,6.19,12.27.07,4.93-.56,6.86-3.44,10.56a19.28,19.28,0,0,1-10.93,7.2Z" />
            <path
                d="M1800,1009.13c-14.85-1.67-20.67-19.19-10-30.12,4.92-5.06,11.87-6.2,18.86-3.12a16.59,16.59,0,0,1,10.16,18C1818.26,1000.21,1807.74,1010.85,1800,1009.13Z" />
            <path
                d="M1999.19,901.26c-17.17-.13-25-19-12.47-30,7.45-6.58,19.64-5.61,26.47,2.09C2022.89,884.25,2014.31,901.38,1999.19,901.26Z" />
            <path
                d="M1836.11,966.43c-10.65-.29-17.13-9.52-14.21-20.22a23,23,0,0,1,3.18-6.67c10.41-13.46,31-6.69,29.73,9.75A18.22,18.22,0,0,1,1836.11,966.43Z" />
            <path
                d="M1940.93,912.32c-14.09.34-23.36-14.85-16.24-26.61,2.24-3.69,8-7.31,13-8.17a19.18,19.18,0,0,1,7.42.67c12.66,3.9,17,18.7,8.26,28.37-2.27,2.52-9,5.66-12.4,5.74Z" />
            <path
                d="M1884.55,934.3a17.67,17.67,0,0,1-17-10.1c-6.33-16.48,12.46-27.53,23.59-23a16.18,16.18,0,0,1,10.7,15.75c0,5-.68,6.86-4,10.74a21.67,21.67,0,0,1-13.33,6.65Z" />
            <path class="layer3-color3"
                d="M2416.59,826.66c-21.19-1.45-45.46,18.3-46.6,38.63s9.65,33.15,29.82,38.09c22.14,5.42,47.83-8.72,53.78-32.12C2458.28,853.28,2442,828.4,2416.59,826.66Z" />
            <path class="layer3-color3"
                d="M1993.88,987.32c-19.17,5.42-32,19.62-35.51,37.13-3.16,15.75,7,31.34,21.73,37,26.76,10.22,55.07-5.17,62.61-29.56,5-16.13-2.31-32.26-17.35-40.34C2015.36,986.14,2000.61,985.42,1993.88,987.32Z" />
        </g>
    
        <g class="layer2">
            <path class="layer2-color1"
                d="M2163.77,602.43c-28.39-54.81-96.57-67.64-157.28-39.33a48.78,48.78,0,0,0-5.41,3,20.12,20.12,0,0,0,3,35.59h0a20.1,20.1,0,0,0,18.33-1.5c25.09-15.62,57.52-9.77,73,.13,22.67,13.3,41.48,48.19,33.36,78.23-3.38,12.49-9,24.57-19.28,33.74-22.89,20.47,1.57,60.65,34.51,39.68,8.46-5.39,16.13-15.38,20.68-21.67C2198.65,683.31,2188.47,647.55,2163.77,602.43Z" />
            <path
                d="M2357.37,633.73c-30.38-35.35-217.49-139.46-131-53.66,38.18,37.46,38.76,140.64,113.08,86.54C2349.67,659.14,2368,646.15,2357.37,633.73Z" />
            <path
                d="M1879.05,529.16c-125.24-67.87-570.64,215.58-681.83,308.7-57,47.73-8,85.09,49.88,60,87.08-32.79,98.56,65.64,168.1-72.17,80.2-185.87,408.77,55.06,441.62-172.25C1867.12,612.8,1920.33,567,1879.05,529.16Z" />
            <path
                d="M1256.11,966.36c-43.1,38-160.51-24.11-221.44,38.14-28.7,29.32-31.55,63.74-16.86,90.16,44.09,79.34,143.23,44.46,212.45-5C1292.89,1044.86,1420.12,821.84,1256.11,966.36Z" />
            <path
                d="M2079.62,738.31h0c81.15-17.15,82.53-134.07,3-154C1957.86,559.78,1954,757.11,2079.62,738.31Zm26.84-69.78c-4.07,23.19-28.84,39-51.05,33.49h0c-31.27-6.33-44.19-49.56-20.65-71.38C2063,599.86,2115.3,628.34,2106.46,668.53Z" />
            <path
                d="M2076.44,809.68h0c184.18-18.93,203.7-260.43,13.48-289.22C1856.83,498,1834.6,821.13,2076.44,809.68ZM2178.15,683c-40.88,168.5-307.93,57.73-195.37-86.14C2051.47,520.53,2195.21,575.05,2178.15,683Z" />
            <path
                d="M2038,656.14c-.34,16.78,18.08,29.66,34,25h0a24.5,24.5,0,0,0,16.62-34.42C2077.16,622.73,2037.74,629,2038,656.14Zm23.34,6.87h0c-14.18-8.4,5.51-21.63,11.33-8.78C2075.29,661.38,2067.15,665.75,2061.35,663Z" />
            <path
                d="M1857.88,785.56c-3.3-13.09-10.61-20-26.62,2.11-27.32,37.74-86.14,20-130.65,17.73-88.4-6.18-188.39-25.56-247.4,29-18.74,17.33-33.35,42.12-42.14,77.16-4.84,19.27-5.38,40.19-.46,59.43,24.9,100.32,154.78,96.89,198.35,13.45,64.81-119.66,102.46-69.16,178.27-106.85C1820.27,861.16,1867.53,823.81,1857.88,785.56Z" />
            <path
                d="M1170.24,1586.64c6.36,10.5.63,23.24-11.59,25.76h0c-9.26,1.92-18.8-5.65-19.53-15.49-.34-4.49.28-6.79,2.86-10.65C1148.66,1576.24,1164.06,1576.45,1170.24,1586.64Z" />
            <path
                d="M1191.89,1606c7.64,2.08,12.39,9,11.74,17.13-.79,10.07-8.63,17.12-19.71,17.75h0c-3,.17-8.45-2.07-11.36-4.72-3.35-3.05-5.38-8.49-5.07-13.63.34-5.72,3.22-10.26,8.87-14C1181.53,1605.19,1186.12,1604.43,1191.89,1606Z" />
            <path
                d="M1129.14,1645.75c-5.39-4.6-7.18-10.15-5.4-16.78,3.21-12,19.64-16.45,29.59-8a15.19,15.19,0,0,1,5.64,13c-.32,8.38-7.58,15.28-16.9,16.06h0A17.64,17.64,0,0,1,1129.14,1645.75Z" />
            <path
                d="M636.12,1630.21c-10.29-6.7-10.64-20.66-.72-28.24h0c7.52-5.73,19.4-3,24.32,5.51,2.25,3.9,2.69,6.23,2,10.84C660.08,1630.24,646.11,1636.72,636.12,1630.21Z" />
            <path
                d="M608.21,1622.14c-7.78,1.44-15.06-2.75-18-10.35-3.65-9.42.36-19.17,10.07-24.54h0c2.66-1.47,8.51-1.79,12.29-.66,4.34,1.29,8.52,5.31,10.47,10.08,2.18,5.3,1.54,10.64-1.94,16.43C617.91,1618.39,614.1,1621.07,608.21,1622.14Z" />
            <path
                d="M647.55,1559.13c6.85,1.81,10.87,6,12.14,12.79,2.29,12.18-10.58,23.33-23.18,20.08a15.2,15.2,0,0,1-10.72-9.28c-3.35-7.69.21-17.06,8.28-21.8h0A17.68,17.68,0,0,1,647.55,1559.13Z" />
            <path
                d="M804.7,1868c81.39-43.38,99.4-67.92.72-74.37-7.71-.36-14.84-1-21.41-1.45-21-1.45-36.25-1-45.76,16.63-2,3.66-3.25,8.17-5.19,13.33-6.26,16.72-7.53,24.32-11.82,34.83-8,19.58-14.34,34.68-3.18,41.73C739.9,1912.53,772.8,1881.81,804.7,1868Zm-38.79-20.28c.63-12.68,4.1-22.12,18.32-18.54,1.28.32,9,2.32,10.47,2.7,3.57.91,3.4,1.4,1.76,2.56-.52.33-1.51.91-2.84,1.66-5.77,3.28-17.53,10.31-24.33,13C767.46,1849.81,765.86,1848.71,765.91,1847.75Z" />
            <path
                d="M407.84,2126c-16.14-5.73-29.56-20.73-34.22-38.24-3.75-14.11-.36-30.42,7-33.71h0c6.19-2.77,10.31,0,17.43,12,6.59,11,15.07,18.22,25.64,21.78a143.63,143.63,0,0,0,14.25,3.42c11.39,2.19,15.9,4.47,17.64,8.93,1.41,3.62.64,6.83-3.09,12.75C443.66,2126.93,425.52,2132.26,407.84,2126Z" />
            <path
                d="M336.5,2236.11c-9.9-6.61-16-20.61-14.14-32.63.94-6.19,3.11-9.17,7.8-10.7h0a16.42,16.42,0,0,1,4.82-1c2.74.45,7.91,4.29,10.95,9.23s10.07,8.26,15.29,8.58c7.11.43,9.49,2.41,12.17,4.28,8.41,5.84,7.34,15.87-2.51,23.72C362.27,2244.46,348.06,2243.84,336.5,2236.11Z" />
            <path
                d="M390,2183.22a43,43,0,0,1-27-3.78c-11.26-5.62-20.16-24.28-18.53-38.87.58-5.26,3.22-8.76,7.29-9.66a20.2,20.2,0,0,1,3.51-.55c2.33.18,7.89,3.87,12.5,10.44,4.32,6.14,12.94,10.58,19.26,11.79,10.68,2,13.31,4,17.3,7.48,3.72,3.22,4.93,7,3.39,10.63C405.51,2175.85,397,2181.87,390,2183.22Z" />
            <path
                d="M324.9,2283.94c-5.31-1.8-11.41-7.7-14.69-14.2-4.12-8.18-3.4-14.09,2.13-17.43h0c5.28-3.2,12.48-1.38,19.37,4.92,3.53,3.22,5.06,3.94,11.46,5.38,3.61.81,7.37,5.09,7.37,8.38C350.54,2281.66,337.55,2288.22,324.9,2283.94Z" />
            <path
                d="M1100.5,1387.83c8-22.73,17.15-102.72,10.23-123.49-2.67-8-9.16-13.75-17.35-14h0c-40,2.46-78.56,44.31-116.28,70.41-34.58,26.59-65.62,46.12-40,66.77,29.25,18.41,60.88,23.2,104.41,29.64C1088.46,1422.16,1089.23,1419.89,1100.5,1387.83Zm-62.14-28.38c-5.18-1.32-12.77-3.65-18.28-5.53-3.7-1.26-5.89-3.85-3.13-6.31,7.63-6.81,24.7-21.24,34.88-25.86,4.18-1.89,7.19-2.14,7.92.46h0a40,40,0,0,1,1.08,4.93,103.6,103.6,0,0,1,1.45,13.3C1061.57,1355.91,1060.89,1366.87,1038.36,1359.45Z" />
            <path
                d="M1747,1678.31c56.77-7.3,73.86-45.11,68.28-82.17-6-39.88-41.73-73.73-97.23-46-30,16.45-40.53,49.43-34.7,77.83S1711.61,1682.85,1747,1678.31Zm-35.9-82.2c13.82-32.5,47.35-34,65-21,22.09,16.26,17.36,42.34,3,58.27-13.29,14.76-35.53,19.43-54.49,5.65C1712.25,1630,1704.06,1612.54,1711.05,1596.11Z" />
            <path
                d="M1599.89,1650.62c-18.7,3.75-17.12,33.52,3.39,33.53h0C1626.91,1683.65,1624,1646.4,1599.89,1650.62Z" />
            <path
                d="M1619.47,1720c33.36-9.35,43.68-40.1,37.41-65.29-6.19-24.88-29.14-46.47-62.84-38.6-34,7.94-45.4,37.63-40.52,62.83C1558.73,1705.9,1583.23,1730.15,1619.47,1720Zm12.56-60.11c3.62,11.64-1.11,30-18.9,36.75-18.43,7-29.66-2.56-35.55-17.72-5.18-13.3-1.69-33.59,15.11-39.85C1615.21,1630.67,1628.84,1649.62,1632,1659.88Z" />
            <path
                d="M1337.71,1678.19c-58.53,23.94-22.35,109.29,35.61,88.19C1433.53,1744.46,1396.36,1654.2,1337.71,1678.19Zm44.91,36c6,17-5.4,31-19.57,34.56-14,3.47-29-7.46-31.25-23.8-1.79-13.19,9.57-25.15,20.15-27.7A26.16,26.16,0,0,1,1382.62,1714.2Z" />
            <path d="M1351.86,1713c-12.65,4.92-5.57,24.8,7.9,20.07C1374.23,1728,1367.11,1707.07,1351.86,1713Z" />
            <path
                d="M1529.49,1702.72c-1.48-36.6-45.12-58.59-75.28-39.06-51.42,31.2-15.54,108.84,41.72,90.16h0C1516.81,1746.8,1531.27,1724.79,1529.49,1702.72Zm-46.75,30.83c-28.19,4.26-37.16-16.68-32.72-33.7,4.28-16.39,21.71-31.67,44.2-18.16,4.86,2.92,8.13,7.73,10.2,12.75a28,28,0,0,1,.37,20.84,33.61,33.61,0,0,1-6.82,10C1493.77,1729.6,1487.87,1732.77,1482.74,1733.55Z" />
            <path
                d="M1471.05,1691.24c-7.67,3-9.94,11.24-8.27,17.91s7.46,12.08,16.32,10.35h0c8.35-1,14-11.15,11.33-18.76C1487.6,1692.6,1478.52,1688.35,1471.05,1691.24Z" />
            <path
                d="M1736.64,1590.7c-17.14,16.38,3,46.1,24.34,32.39h0C1785.28,1606.77,1759.14,1570.2,1736.64,1590.7Z" />
            <path d="M1224.86,1723c9.09,17.9,33.08-9.17,12.38-14.67C1228,1705.93,1220.59,1714.65,1224.86,1723Z" />
            <path
                d="M1190.92,1743.18c25,45.75,105.91,23.72,91.64-31.57C1265.64,1646,1154.92,1677.41,1190.92,1743.18Zm69.91-20.79c-4.58,39.44-68.79,18.07-47.66-15.83C1226.87,1684.59,1263.85,1696.39,1260.83,1722.39Z" />
            <path
                d="M1748.58,1516.66a61.33,61.33,0,0,1-8.49.35,6.84,6.84,0,0,1-6.15-5.23c-.92-3.28.18-6.14,3.44-9,10.41-9.08,15.31-14.36,21.57-23.24,21.32-30.25,31.3-53.55,48.15-112.39,7.55-26.38,12.17-34,21.73-35.58a12,12,0,0,1,7,.56c9,3.09,14.35,12,17.27,28.62,3.3,18.87,1.57,39.13-5.28,61.85-5.72,19-12.48,33.24-22.76,48-8.26,11.86-13.44,17.36-23.54,25-12,9.13-23.19,14.66-36.76,18.24-7.59,2-7.23,1.93-16.15,2.78Z" />
            <path
                d="M1688.79,1494.53c-3.56-.57-5.55-1.83-6.58-4.16-1.62-3.67-.15-7.65,7.83-21.27,15.42-26.27,32.22-61.24,39.67-82.57,5.46-15.64,11.6-39.37,16.88-65.25,3.7-18.14,4.48-21.24,6.6-26.21,3-6.92,7.46-11.06,13.17-12.09,7.88-1.42,13.72,3,19.48,14.88,9.89,20.31,13.93,46.17,10.62,68-3.08,20.29-13,45.35-25.64,64.94-11.16,17.26-28,35.89-43,47.66-14.53,11.36-29.66,17.61-39,16.12Z" />
            <path
                d="M716.3,1805.41c2.81-30.31-1.72-53.23-14.21-71.81a66.66,66.66,0,0,0-28.83-23.49c-9.37-3.82-22.17-5.76-34.24-5.19-31.78,1.5-69.51,20.31-103.26,51.47a273,273,0,0,0-29.66,32.52c-20.62,26.14-34,49.83-45,79.75-3.24,8.83-10.05,37.91-10.75,45.91-2.33,26.79,1.13,48.42,10.44,65.34A67.2,67.2,0,0,0,492.56,2009h0c7.09,3.07,21.06,5.78,29.48,5.72a113.75,113.75,0,0,0,37.44-6.65c36.48-12.68,73.44-41.26,103.21-79.77a281.88,281.88,0,0,0,43.78-79.89C710.4,1837.16,715.37,1815.42,716.3,1805.41ZM546.34,1945c-7.66,3.59-17.23,6.15-22.8,6.09-10.62-.11-17.19-5-20.37-15.12-2.69-8.57-2.38-20.57.9-35,6.15-27,21.3-56.7,43-84.27C572,1785,599,1764,622.73,1757.76c9.58-2.51,17.91-1.5,23.14,2.79,8.58,7,11,21.19,7,41.7C642.69,1855.79,592.12,1923.53,546.34,1945Z" />
            <path
                d="M625.45,1813.35c-.37-11.84-4.67-18.78-13.21-21.31-5.33-1.58-10.33-1.2-16.79,1.27-21.41,8.17-48,37.37-61.63,67.78-4,8.9-7.31,21.26-7.54,28.17-.36,10.94,3.32,18.91,10.36,22.48,13.76,7,37.78-6.4,59.3-33a162.07,162.07,0,0,0,22.27-36.18C622.13,1833.83,625.64,1819.67,625.45,1813.35Zm-30.51,20.43c-6.09,17.13-20.51,36.44-31,41.43h0a13.55,13.55,0,0,1-3.33,1.28c-.8-.18-.61-4.51.38-8.86,2.17-9.58,8.36-21.33,16.61-31.58,6.27-7.79,10.56-11.5,14.17-12.25,2.46-.51,2.75-.46,3.77.65C597.12,1826.12,597,1828,594.94,1833.78Z" />
            <path
                d="M814,1769.61a129.89,129.89,0,0,1-35.46-8.09c-20.77-8.16-36.44-21.07-46.57-38.36-11.76-20.07-15.27-42.11-11.05-69.35,1.1-7.14,7.07-27.41,10.29-35,21-49.37,63-96,118.12-131.32,10.18-6.52,36.83-20.68,47.53-25.24,41.76-17.84,81-25.19,116.7-21.85,1.62.15,3.27.33,4.88.52,10.53,1.29,29.79,6.89,38.17,11.11a98.72,98.72,0,0,1,30.6,23.74c5.56,6.53,12.81,19.68,15.51,28.14,4.81,15,6,31,3.63,48.91-1.3,9.83-7.74,31.74-12.3,41.86-11.78,26.12-27.53,49.15-49.59,72.45-39.42,41.66-87.92,72.89-140.26,90.32-31.58,10.51-62.77,14.71-90.2,12.14ZM992.22,1506c-30.55-2.86-73.68,13.18-112.57,41.85-51.77,38.17-86.33,91.75-80.39,124.63,1.57,8.65,5.89,14.7,13.59,19,2.27,1.23,12.93,4.29,17.89,4.76l.23,0c42.22,3,104.28-28,147.54-73.91,19.42-20.58,32.07-39.56,39.81-59.73,5.79-15.06,6.79-30,2.69-39.84-3-7.28-10.9-13.2-20.58-15.47A60.43,60.43,0,0,0,992.22,1506Z" />
            <path
                d="M969.21,1554.37c-2.77-5.18-6.41-8.27-12.38-10.48s-12.33-2.58-21.46-1.07c-10.08,1.66-19.37,5.11-31.32,11.63-35,19.13-62.3,53.08-61.85,77.06.18,9.58,4.81,17.11,12.93,21h0c4.27,2,11.75,3.17,18.15,2.72,11.52-.81,28.22-6.78,41.37-14.79,20.8-12.67,38.2-29.42,48.36-46.56a58.62,58.62,0,0,0,7.56-17.92C973,1566.49,972.65,1560.8,969.21,1554.37Zm-40,32.72c-8.8,12.62-27.22,26.29-39.22,29.11h0c-2.79.66-5.17.6-5.57-.15s1-5.24,2.82-8.34a69.6,69.6,0,0,1,11.3-13.53c11.81-11.21,28.85-20.28,34.78-18.52C935,1576.15,933.06,1581.64,929.25,1587.09Z" />
            <path
                d="M1710.52,1312.52c.28-13.1-1.43-29.86-4-39.76-.65-2.48-1.31-5.2-1.45-6-.61-3.56-6-17.91-9.21-24.72a138.87,138.87,0,0,0-15.54-25.72c-24.67-33.15-63.5-57.55-111.22-69.89-97.46-25.21-220.11,1-315,67.35-75.79,53-123.8,124.74-130.18,194.61-2.12,23.28.05,43.55,6.9,64.53a144.58,144.58,0,0,0,21.57,42.15c27.59,38,72.83,64.13,130.4,75.36h0c9.86,1.92,37.15,4.84,48.08,5.14,44.11,1.2,87.16-5.11,133.07-19.52,9.93-3.11,35.83-13,45.62-17.51,35.89-16.34,64.74-34.11,93.45-57.55a313.06,313.06,0,0,0,30.88-28c37.34-38,62.8-82.24,72.5-126A249.5,249.5,0,0,0,1710.52,1312.52Zm-91.35,33.1a87.87,87.87,0,0,1-6.43,25.29c-8.67,22-25.81,44.23-49,63.7-56.24,47.19-138.82,73.54-216.33,69h0c-43.1-2.51-81.93-16.22-106.28-37.54-40.75-35.67-40.83-87.82-.2-137.22,44.59-54.23,131.38-92.62,215.15-95.18,18.65-.57,45.67,1.63,61.39,5,56,12,92.78,41.28,100.82,80.24C1620.24,1328.47,1620.47,1335,1619.17,1345.62Z" />
            <path
                d="M1342.18,1457.84c-15.67-1.47-29-4.61-40.72-9.6-31.58-13.44-45.49-38.78-37.19-67.78,3.89-13.57,13-27.77,26.45-41,6.47-6.4,21.91-18.39,31.17-24.21a309.29,309.29,0,0,1,31.59-16.82,296.26,296.26,0,0,1,96.65-24.45c8.24-.61,26.37-.27,36.61.69,1.19.11,2.26.23,3.18.35,12.39,1.67,26.32,5.39,35.48,9.48,9.63,4.29,19.87,11.64,25.47,18.29a61.19,61.19,0,0,1,10.79,20.29c1.37,5.06,1.49,7.49,1.24,14.47-.23,6.52-.55,9.33-2.08,14.26-6,19.29-20.24,37.61-42.32,54.43-37.39,28.48-90.53,47.83-142.17,51.76a267.5,267.5,0,0,1-32.53,0l-1.6-.15Zm132.72-127a133.89,133.89,0,0,0-28.4.81c-46,5.77-97.19,29.73-111.75,52.31-3,4.63-3,5.95-2.92,7.22,0,1.06,0,1.28,1.34,2.4,1.6,1.38,6.71,4.72,19.55,5.92a128.31,128.31,0,0,0,23.72-.26,216.45,216.45,0,0,0,58.23-14.3c18.44-7.19,32.53-14.87,44.34-24.15,15-11.83,17-18.85,17.11-21.32,0-.44,0-.75,0-1l-.11-.21C1495,1336.27,1489.3,1332.15,1474.9,1330.8Z" />
            <path
                d="M760.44,1422.87c6.36-10.5.63-23.24-11.59-25.76h0c-9.26-1.91-18.8,5.65-19.53,15.49-.34,4.49.28,6.79,2.86,10.66C738.86,1433.27,754.26,1433.06,760.44,1422.87Z" />
            <path
                d="M803.56,1348.48c7.88.8,14.79-4,17.1-11.78,2.86-9.69-1.92-19.08-12-23.64h0c-2.78-1.25-8.63-1.09-12.3.34-4.22,1.64-8.06,6-9.62,10.9-1.73,5.46-.66,10.74,3.28,16.22C793.59,1345.53,797.61,1347.89,803.56,1348.48Z" />
            <path
                d="M763.57,1359.18c-5.39,4.6-7.18,10.16-5.4,16.78,3.21,12,19.64,16.45,29.59,8a15.19,15.19,0,0,0,5.64-13c-.32-8.38-7.58-15.28-16.91-16.06h0A17.68,17.68,0,0,0,763.57,1359.18Z" />
            <path
                d="M989.68,1131.84c30.38,2.73,73.65,30.89,21.57,42.79-6.89,1.55-10.66,2.84-14.59,5-10.56,5.77-17.15,16.43-24.42,39.51-18.56,54.67-59,64-86.07,47.16-35.77-22.26-49.84-87.43,23.75-125.87C927.7,1131.13,961.76,1126.9,989.68,1131.84Z" />
            <path class="layer2-color1"
                d="M1523.73,983.74c-5.21,9.44-1.65,20.26,8.45,25.73a18.37,18.37,0,0,0,25.12-7.44c4.88-9,1.41-21.12-7.44-25.91A18.87,18.87,0,0,0,1523.73,983.74Z" />
            <path class="layer2-color1"
                d="M1491.17,976.54c-9-4.88-19.75-2.13-24.28,6.2-5.34,9.82-2.47,20.47,6.91,25.63,9,4.93,20.66,1.77,25.41-6.88S1500.33,981.51,1491.17,976.54Z" />
            <path class="layer2-color1"
                d="M1442.41,963.07c8.28,4.66,19.21,1.66,23.75-6.51s1.53-19.33-6.57-23.81-18.39-.68-23.71,8.55C1431.44,949,1434.29,958.5,1442.41,963.07Z" />
            <path class="layer2-color1"
                d="M1183.43,1450.84a19.22,19.22,0,0,0-17,20.56c.95,11,11.2,19.48,22.09,18.26a21.08,21.08,0,0,0,18.26-22.34C1205.87,1456.89,1195.62,1449.65,1183.43,1450.84Z" />
            <path class="layer2-color1"
                d="M1226.52,1536.21c10-1,17.77-10.57,16.79-20.83a19.35,19.35,0,0,0-21-17.52c-10.85.91-19.18,10.12-18.38,20.34S1215.64,1537.24,1226.52,1536.21Z" />
            <path class="layer2-color1"
                d="M1298.19,1533.16a18.11,18.11,0,0,0-20.25-16c-10.78,1.3-18.18,11.09-16.76,22.17A17.71,17.71,0,0,0,1280.9,1555,19.55,19.55,0,0,0,1298.19,1533.16Z" />
            <path class="layer2-color1"
                d="M809.2,1735.7a11.26,11.26,0,0,0,14.83,5c5.53-2.62,8.5-10.14,6.08-15.42-2.55-5.56-11.05-8.53-16.29-5.68C809,1722.25,806.61,1730.56,809.2,1735.7Z" />
            <path class="layer2-color1"
                d="M789.94,1724.85c5.48-2.31,8.1-9.29,5.73-15.25-2.29-5.76-9.35-9.15-14.78-7.11-5,1.87-7.76,9.65-5.52,15.47C777.74,1724.1,784.33,1727.22,789.94,1724.85Z" />
            <path class="layer2-color1"
                d="M760.46,1672.17a11.37,11.37,0,0,0-6,14.32c2.18,5.61,10.61,9.28,15.67,6.83,4.47-2.17,6.85-9.93,4.63-15.15A11.39,11.39,0,0,0,760.46,1672.17Z" />
            <path class="layer2-color1"
                d="M476.46,1951.56c5.51,2.7,9.41.73,11.69-2.76,2.46-3.75,2.4-9.83-1.79-12.34s-11-.7-13.27,3.75C471.06,1944.17,472.07,1949.4,476.46,1951.56Z" />
            <path class="layer2-color1"
                d="M528.68,1979.41c3-4.1,2.5-9.08-1.26-12.2-3.46-2.86-7.33-2.61-10.88.72-4.06,3.81-4.78,8.26-1.56,12.11C518.45,1984.21,525.51,1983.7,528.68,1979.41Z" />
            <path class="layer2-color1"
                d="M486.74,1965.92c.05,5.43,4.4,9.86,9.55,9.72,5-.14,9.31-4.8,9.4-10.11.08-4.81-4.25-9.65-8.77-9.83C491.83,1955.49,486.69,1960.65,486.74,1965.92Z" />
            <path class="layer2-color1"
                d="M758.77,1814.06c3.73,1.48,6,6.27,4.68,9.89s-6.27,5.74-10,4.15-5.78-6.56-4.29-10.07A7.75,7.75,0,0,1,758.77,1814.06Z" />
            <path class="layer2-color1"
                d="M755.81,1846.58c-1.31,3.45-4.75,4.91-8.45,3.59-4.26-1.52-6.48-5.59-5.16-9.47a6.88,6.88,0,0,1,8.92-4A8,8,0,0,1,755.81,1846.58Z" />
            <path class="layer2-color1"
                d="M733.91,1864.72c1.41-3.28,6-5.17,9.16-3.76,3.31,1.48,5.25,5.93,4,9.17-1.38,3.56-6.13,5.74-9.52,4.37S732.36,1868.33,733.91,1864.72Z" />
            <path class="layer2-color1"
                d="M1078.14,1097c-2.32-4.77-9.05-7.27-13.63-5.06-5.16,2.48-7.12,9-4.32,14.3,2.53,4.82,8.39,6.83,12.9,4.4C1078,1108,1080.37,1101.56,1078.14,1097Z" />
            <path class="layer2-color1"
                d="M1088.22,1110.43c2,5,7.13,7.58,11.44,5.77,4.5-1.89,6.83-7.9,4.94-12.76-1.75-4.47-7.65-7-11.82-5.14A9.5,9.5,0,0,0,1088.22,1110.43Z" />
            <path class="layer2-color1"
                d="M1052.65,1083a8.57,8.57,0,0,0-11.44-4.38,9.24,9.24,0,0,0-4.46,10.91c1.65,4.36,7.1,6.79,11.21,5A9.37,9.37,0,0,0,1052.65,1083Z" />
            <path class="layer2-color1"
                d="M915.33,1243.84c-2.54-3.14-8-3.85-11-1.43a7.9,7.9,0,0,0-.76,11.34,7.35,7.35,0,0,0,10.31,1.06C917.1,1252,917.76,1246.85,915.33,1243.84Z" />
            <path class="layer2-color1"
                d="M925.94,1247c2.35,3.37,6.57,4.41,9.46,2.34s3.72-7,1.49-10.31c-2.06-3-6.88-3.91-9.64-1.79A7.22,7.22,0,0,0,925.94,1247Z" />
            <path class="layer2-color1"
                d="M894.05,1232.75a6.53,6.53,0,0,0-9.23-1.29,7,7,0,0,0-1.45,8.85,6.7,6.7,0,0,0,9.16,1.78A7.13,7.13,0,0,0,894.05,1232.75Z" />
            <path class="layer2-color1"
                d="M1051.15,1391.47c-2.62,4.3-9,6.08-13.22,3.67s-5.74-9-3-13.24,9.34-5.74,13.35-3.15A9.72,9.72,0,0,1,1051.15,1391.47Z" />
            <path class="layer2-color1"
                d="M1006.85,1385.7c-4-2.35-5.07-6.91-2.64-11.2,2.79-4.94,8.29-6.81,12.8-4.36a8.65,8.65,0,0,1,3,11.88C1017.43,1386.45,1011.11,1388.22,1006.85,1385.7Z" />
            <path class="layer2-color1"
                d="M985.31,1362c3.76,2.45,5.1,8.53,2.68,12.13-2.53,3.78-8.44,5.22-12.18,3-4.1-2.46-5.78-8.81-3.36-12.7S981.18,1359.32,985.31,1362Z" />
        </g>
    
        <g class="layer1">
            <path
                d="M2050.73,417.21c-517.56-80-1042.35,409.52-1275,709.35-186.62,240.52-318,464.38-440.66,766.75-65.93,184.2-86.83,262.88-111.13,430.81-8.58,63.62-4.94,116.56,26.4,122.61,80,15.44,170.41-163.66,255.83-237.46,96.55-93.5,174.44-150.31,278.3-207.2,80-44.69,184.33-87.89,287.53-106,39.25-6.9,77.91-14.35,114.25-20.93,57.41-10.4,565.37-28.35,754.52-65.06,98.36-19.08,191.14-46.27,275.13-85.16,200.33-92.78,350.7-252.18,407.68-527.23C2700.28,761.72,2456.44,490.2,2050.73,417.21Zm493.51,842.2q-4.5,14.46-9.55,28.41c-23.08,63.84-62.3,120.79-114.9,163.71-80.06,65.34-175.52,87.26-330.4,84.75-84.18-1.37-141.79,87.59-212.83,139.31-43.09,31.36-194.94,100-305.26,108.68-404.31,31.86-807.39,47.94-1102.4,366-42.69,45.48-92.19,108-134.64,173.7-23.62,36.55-38.61,44-45.09,40.1-10.79-6.53-4.43-49.27-3.08-61.64q1-8.35,2.35-17.19h0c6.68-43.38,19.93-94.77,35.83-146.74,20-72.53,49.28-168,89.9-277.3,81.16-218.44,425.14-706.24,431.48-713.69,31.29-36.77,79.93-93.16,110.67-125.07,44.23-45.91,150.93-159.15,200.36-202.27,83.88-73.2,194.89-159,307.91-216.71,188.28-96.15,365.35-134.89,504.44-134.89,74.43,0,158.22,14.56,223.23,36.52,67.53,22.81,142.84,71,188,107.23,35.33,28.3,79.75,78.88,115.08,135.71,21.33,34.3,35.62,73,50,105.48,16.77,37.77,24.7,89.2,30.81,152.67,8.52,88.35-8.65,185.94-28.13,241.55Q2546.06,1253.54,2544.24,1259.41Z" />
            <path class="layer1-color1"
                d="M1992,1671.3c9.82-2.3,16.39-10.4,14.86-20.2a18.13,18.13,0,0,0-35.8,5.71C1972.44,1666.19,1982.75,1673.45,1992,1671.3Z" />
            <path class="layer1-color1"
                d="M2027,1634.74c9-1.37,15.41-10.69,14.11-18.49-1.6-9.67-10-15.7-20-14.14-8.89,1.4-14.57,9.83-13.44,19.11C2008.55,1628.8,2017.23,1636.23,2027,1634.74Z" />
            <path class="layer1-color1"
                d="M1810.62,1743.84c-7.95,1.32-13.74,8.85-12.59,16.37,1.12,7.29,8.1,11.8,16.08,10.39,8.29-1.47,13.91-9.07,12.48-16.87C1825.3,1746.68,1818.57,1742.52,1810.62,1743.84Z" />
            <path class="layer1-color1"
                d="M1902.16,1707.92c-8.23,1.24-13.68,8.36-12.44,16.29a14.78,14.78,0,0,0,16.92,12.49c8.93-1.23,14.9-8,13.81-15.77C1919.27,1712.59,1910.87,1706.62,1902.16,1707.92Z" />
            <path class="layer1-color1"
                d="M1964.71,1684.85c-1.46-9-9.75-14.52-19.34-12.89-8.38,1.43-14.24,9.73-13,18.39a16.9,16.9,0,0,0,19.35,14.05C1960.46,1702.85,1966.22,1694.18,1964.71,1684.85Z" />
            <path class="layer1-color1"
                d="M1855.61,1731.81a14.44,14.44,0,1,0,16.52,12.34A14.79,14.79,0,0,0,1855.61,1731.81Z" />
        </g>
    </g>
</svg>