<svg xmlns="http://www.w3.org/2000/svg" xmlns:xlink="http://www.w3.org/1999/xlink" viewBox="0 0 300 300">
  <defs>
    <style>
      .octopus-shape {
        fill: none;
      }

      .background {
        fill: #C4EF7F;
      }

      .pattern {
        clip-path: url(#clip-path);
      }

      .color-1 {
        fill: #fff;
      }
      
      .color-2 {
        fill: #ffe1cc;
      }

      .color-3 {
        fill: #dd793e;
      }

      .color-4 {
        fill: #eb4d4b;
      }

    </style>
    <clipPath id="clip-path">
      <path class="octopus-shape" d="M242.05689,193.66166c-3.95613-1.88922-9.16174-7.6017-12.06435-10.88714-14.05135-15.90443-26.86653-21.65175-35.08514-23.68866,4.468.10674,10.46476,1.12437,18.36808,4.09548,21.89125,8.22954,38.34716,7.01149,38.34716,7.01149,19.645-.4718,26.30765-23.31819,26.30765-23.31819-5.44321,6.169-14.27661,9.59989-14.27661,9.59989a49.72278,49.72278,0,0,1-39.13777-7.13836c-26.64235-15.87208-36.16114-18.542-39.15-18.92709,39.04339-47.0318,14.38253-82.32218,14.38253-82.32218-16.18877-25.32674-47.86-25.27178-47.86-25.27178-25.10725-1.31231-60.55262,21.00519-58.28705,55.79552,1.33209,20.4556,15.5575,45.39656,21.1803,54.53487-6.03811,2.51766-15.6,7.26394-30.58423,16.19066a49.72261,49.72261,0,0,1-39.13766,7.13836s-8.83351-3.4309-14.27673-9.59989c0,0,6.66268,22.84639,26.30765,23.31819,0,0,8.7496.62868,21.94738-2.19849a94.963,94.963,0,0,0-14.65308,13.013c-2.98134,3.21412-8.32393,8.7988-12.32467,10.59139-7.11836,3.18964-16.80733,3.41278-30.28708-4.68814,0,0,23.263,28.44506,45.9738,11.39883,2.23286-1.676,7.75951-6.4925,9.89857-8.28662,7.29665-6.11944,13.411-11.93278,30.56682-13.53813-5.28139,14.00452-22.67527,46.04794-69.17136,36.07217,0,0,17.5604,19.05807,49.8605,10.25987,0,0,16.76461-5.513,31.56692-26.23669-1.42471,5.55984-2.38456,10.19091-2.38456,10.19091-8.36912,51.36311,23.138,51.36311,23.138,51.36311,21.3453,0,26.91232-20.02015,26.91232-20.02015-10.83064,12.14331-21.86382,9.18963-21.86382,9.18963-12.26889-3.77431-14.27661-16.87735-14.27661-16.87735-3.72359-19.00606,9.76264-37.20879,15.04792-43.46709a46.124,46.124,0,0,0,6.32351,29.57578,45.16124,45.16124,0,0,0,10.10557,10.32365,65.13658,65.13658,0,0,1,14.50939,12.73234c.29351.34164.57514.69776.84534,1.06458a20.85868,20.85868,0,0,1-.1484,25.27672c-3.46044,4.51773-9.20669,9.08948-18.74785,11.89382,0,0,5.13229,2.38279,12.67525.84793A28.92312,28.92312,0,0,0,195.176,245.21307c-1.26806-6.66044-4.78923-14.5201-12.30018-23.345,0,0-15.89173-15.60152-15.25411-33.94829,15.78005,27.90064,37.07933,34.897,37.07933,34.897,32.30022,8.7982,49.86062-10.25987,49.86062-10.25987C208.76222,222.383,191.197,191.43457,185.633,177.1203c17.60877,1.94582,23.649,7.97252,30.88422,14.34557,2.09505,1.84532,7.50319,6.79448,9.69486,8.52412,22.29078,17.59182,46.23659-10.28094,46.23659-10.28094C258.77654,197.4808,249.09581,197.02289,242.05689,193.66166Z"/>
    </clipPath>
  </defs>
  <g id="Layer_1" data-name="Layer 1">
    <rect class="background" x="-4.51356" y="-3.39063" width="308.7307" height="308.7307"/>
    <g class="pattern">
      <g>
        <rect class="color-2" x="239.9162" y="156.60399" width="39.33323" height="39.33323" transform="translate(406.90171 453.31159) rotate(-152.18079)"/>
        <rect class="color-3" x="99.20005" y="170.97652" width="39.33314" height="39.33314" transform="translate(135.02524 414.72557) rotate(-152.18079)"/>
        <g>
          <g>
            <path class="color-4" d="M259.58283,176.27064l0,0a19.66658,19.66658,0,0,1,26.57165-8.21554h0l0,.00005a19.66657,19.66657,0,0,1-26.57165,8.21554Z"/>
            <path class="color-4" d="M259.58283,176.27064l0,0a19.66658,19.66658,0,0,1,26.57165-8.21554h0l0,.00005a19.66657,19.66657,0,0,1-26.57165,8.21554Z"/>
          </g>
          <g>
            <path class="color-4" d="M253.85728,179.72312h1.89542a17.77119,17.77119,0,0,1,17.77119,17.77119v1.89542a0,0,0,0,1,0,0h-1.89542a17.77119,17.77119,0,0,1-17.77119-17.77119v-1.89542a0,0,0,0,1,0,0Z" transform="translate(408.44222 480.26476) rotate(-152.18079)"/>
            <path class="color-4" d="M253.85728,179.72312h1.89542a17.77119,17.77119,0,0,1,17.77119,17.77119v1.89542a0,0,0,0,1,0,0h-1.89542a17.77119,17.77119,0,0,1-17.77119-17.77119v-1.89542a0,0,0,0,1,0,0Z" transform="translate(408.44222 480.26476) rotate(-152.18079)"/>
          </g>
          <path class="color-4" d="M259.58283,176.27064h0a19.66658,19.66658,0,0,1-26.57166,8.21553l0,0h0a19.66657,19.66657,0,0,1,26.57165-8.21554Z"/>
          <g>
            <path class="color-4" d="M259.58281,176.27057h0a19.66656,19.66656,0,0,1-8.21554-26.57165h0a19.66657,19.66657,0,0,1,8.21554,26.57165Z"/>
            <path class="color-4" d="M259.58281,176.27057h0a19.66656,19.66656,0,0,1-8.21554-26.57165h0a19.66657,19.66657,0,0,1,8.21554,26.57165Z"/>
          </g>
        </g>
        <circle class="color-1" cx="118.86661" cy="190.64309" r="16.27042"/>
        <circle class="color-4" cx="118.86661" cy="190.64309" r="3.2306"/>
        <rect class="color-2" x="64.53477" y="152.68472" width="39.33323" height="39.33323" transform="translate(-107.52574 166.38764) rotate(-62.18079)"/>
        <rect class="color-3" x="29.69698" y="134.30193" width="39.33314" height="39.33314" transform="translate(-109.84711 125.77233) rotate(-62.18079)"/>
        <g>
          <g>
            <path class="color-4" d="M84.20135,172.35134l0,0A19.66657,19.66657,0,0,1,92.41693,198.923h0l0,0a19.66657,19.66657,0,0,1-8.21554-26.57165Z"/>
            <path class="color-4" d="M84.20135,172.35134l0,0A19.66657,19.66657,0,0,1,92.41693,198.923h0l0,0a19.66657,19.66657,0,0,1-8.21554-26.57165Z"/>
          </g>
          <g>
            <path class="color-4" d="M61.08225,166.62579h1.89542A17.77119,17.77119,0,0,1,80.74887,184.397v1.89542a0,0,0,0,1,0,0H78.85344a17.77119,17.77119,0,0,1-17.77119-17.77119v-1.89542A0,0,0,0,1,61.08225,166.62579Z" transform="translate(-118.2443 156.82807) rotate(-62.18079)"/>
            <path class="color-4" d="M61.08225,166.62579h1.89542A17.77119,17.77119,0,0,1,80.74887,184.397v1.89542a0,0,0,0,1,0,0H78.85344a17.77119,17.77119,0,0,1-17.77119-17.77119v-1.89542A0,0,0,0,1,61.08225,166.62579Z" transform="translate(-118.2443 156.82807) rotate(-62.18079)"/>
          </g>
          <path class="color-4" d="M84.20135,172.35134h0a19.66657,19.66657,0,0,1-8.21554-26.57165l0,0h0a19.66657,19.66657,0,0,1,8.21553,26.57165Z"/>
          <g>
            <path class="color-4" d="M84.20142,172.35132h0a19.66657,19.66657,0,0,1,26.57165-8.21554h0a19.66657,19.66657,0,0,1-26.57165,8.21554Z"/>
            <path class="color-4" d="M84.20142,172.35132h0a19.66657,19.66657,0,0,1,26.57165-8.21554h0a19.66657,19.66657,0,0,1-26.57165,8.21554Z"/>
          </g>
        </g>
        <circle class="color-1" cx="49.36355" cy="153.9685" r="16.27042"/>
        <circle class="color-4" cx="49.36355" cy="153.9685" r="3.2306"/>
        <rect class="color-4" x="47.94909" y="99.71172" width="39.33323" height="39.33323" transform="translate(71.70483 256.51457) rotate(-152.18079)"/>
        <g>
          <path class="color-2" d="M45.27824,119.46355h0c5.41254-10.25744,17.56638-14.47477,27.14639-9.4197h0c-5.41251,10.2574-17.56638,14.47477-27.1463,9.41975Z"/>
          <path class="color-2" d="M80.15292,137.86583h0c5.41253-10.25745,2.03415-22.67065-7.54582-27.72569l0,0h0c-5.41251,10.25741-2.03415,22.67065,7.54586,27.72572Z"/>
        </g>
        <rect class="color-1" x="82.78692" y="118.09455" width="39.33323" height="39.33323" transform="translate(76.13193 -31.89153) rotate(27.81921)"/>
        <g>
          <path class="color-2" d="M124.791,137.67594h0c-5.41253,10.25745-17.56638,14.47478-27.14638,9.41971h0c5.41251-10.25741,17.56638-14.47478,27.1463-9.41975Z"/>
          <path class="color-2" d="M89.91632,119.27367h0c-5.41253,10.25744-2.03415,22.67064,7.54581,27.72569l0,0h0c5.41251-10.2574,2.03415-22.67064-7.54585-27.72571Z"/>
        </g>
        <rect class="color-2" x="31.69184" y="46.7305" width="39.33323" height="39.33323" transform="translate(65.79472 149.08849) rotate(-152.18079)"/>
        <g>
          <g>
            <path class="color-4" d="M51.35847,66.39715l0,0a19.66656,19.66656,0,0,1,26.57165-8.21554h0l0,0a19.66657,19.66657,0,0,1-26.57165,8.21554Z"/>
            <path class="color-4" d="M51.35847,66.39715l0,0a19.66656,19.66656,0,0,1,26.57165-8.21554h0l0,0a19.66657,19.66657,0,0,1-26.57165,8.21554Z"/>
          </g>
          <g>
            <path class="color-4" d="M45.63292,69.84964h1.89542A17.77119,17.77119,0,0,1,65.29953,87.62083v1.89542a0,0,0,0,1,0,0H63.40411A17.77119,17.77119,0,0,1,45.63292,71.74506V69.84964A0,0,0,0,1,45.63292,69.84964Z" transform="translate(67.33523 176.04165) rotate(-152.18079)"/>
            <path class="color-4" d="M45.63292,69.84964h1.89542A17.77119,17.77119,0,0,1,65.29953,87.62083v1.89542a0,0,0,0,1,0,0H63.40411A17.77119,17.77119,0,0,1,45.63292,71.74506V69.84964A0,0,0,0,1,45.63292,69.84964Z" transform="translate(67.33523 176.04165) rotate(-152.18079)"/>
          </g>
          <path class="color-4" d="M51.35847,66.39715h0a19.66657,19.66657,0,0,1-26.57166,8.21554l0,0h0a19.66657,19.66657,0,0,1,26.57165-8.21554Z"/>
          <g>
            <path class="color-4" d="M51.35845,66.39709h0a19.66657,19.66657,0,0,1-8.21554-26.57166h0a19.66658,19.66658,0,0,1,8.21554,26.57166Z"/>
            <path class="color-4" d="M51.35845,66.39709h0a19.66657,19.66657,0,0,1-8.21554-26.57166h0a19.66658,19.66658,0,0,1,8.21554,26.57166Z"/>
          </g>
        </g>
        <rect class="color-4" x="-37.45108" y="10.24595" width="39.33323" height="39.33323" transform="translate(-47.47317 48.06825) rotate(-152.18079)"/>
        <rect class="color-1" x="-2.78413" y="28.53861" width="39.33323" height="39.33323" transform="translate(24.44777 -2.30743) rotate(27.81921)"/>
        <g>
          <path class="color-2" d="M39.22,48.12h0c-5.41253,10.25744-17.56638,14.47477-27.14639,9.4197h0C17.48608,47.28231,29.63994,43.06494,39.21987,48.12Z"/>
          <path class="color-2" d="M4.34528,29.71773h0c-5.41254,10.25745-2.03416,22.67065,7.54581,27.72569l0,0h0C17.30364,47.186,13.92528,34.7728,4.34528,29.71773Z"/>
        </g>
        <rect class="color-3" x="68.17839" y="-22.41606" width="39.33314" height="39.33314" transform="translate(166.82034 35.81455) rotate(-152.18079)"/>
        <circle class="color-1" cx="87.84496" cy="-2.74949" r="16.27042"/>
        <circle class="color-4" cx="87.84496" cy="-2.74949" r="3.2306"/>
        <rect class="color-2" x="33.70238" y="-40.608" width="39.33323" height="39.33323" transform="translate(46.98366 36.03246) rotate(-62.18079)"/>
        <g>
          <path class="color-4" d="M53.369-20.94137l.00005,0A19.66657,19.66657,0,0,1,61.58454,5.6303h0l0,0A19.66657,19.66657,0,0,1,53.369-20.94137Z"/>
          <path class="color-4" d="M53.369-20.94137l.00005,0A19.66657,19.66657,0,0,1,61.58454,5.6303h0l0,0A19.66657,19.66657,0,0,1,53.369-20.94137Z"/>
        </g>
        <rect class="color-4" x="84.51766" y="30.40958" width="39.33323" height="39.33323" transform="translate(11.27461 118.84961) rotate(-62.18079)"/>
        <g>
          <g>
            <path class="color-2" d="M112.20631,32.01668h0c10.25744,5.41253,14.47477,17.56638,9.4197,27.14638h0c-10.2574-5.41251-14.47477-17.56638-9.41975-27.1463Z"/>
            <path class="color-2" d="M93.804,66.89135h0c10.25745,5.41254,22.67065,2.03415,27.72569-7.54581l0,0h0C111.27234,53.933,98.8591,57.31135,93.804,66.89135Z"/>
          </g>
          <g>
            <path class="color-2" d="M95.99179,23.46079h0c10.25745,5.41253,14.47478,17.56638,9.41971,27.14638h0c-10.2574-5.41251-14.47477-17.56638-9.41975-27.1463Z"/>
            <path class="color-2" d="M77.58952,58.33546h0c10.25745,5.41253,22.67065,2.03415,27.72569-7.54581l0,0h0c-10.2574-5.41251-22.67064-2.03415-27.72571,7.54585Z"/>
          </g>
        </g>
        <rect class="color-4" x="49.93334" y="12.16052" width="39.33323" height="39.33323" transform="translate(116.30268 92.45696) rotate(-152.18079)"/>
        <g>
          <g>
            <path class="color-2" d="M51.54044,23.8051h0C56.953,13.54765,69.10682,9.33032,78.68683,14.38539h0c-5.41251,10.25741-17.56638,14.47478-27.1463,9.41975Z"/>
            <path class="color-2" d="M86.41512,42.20737h0c5.41253-10.25744,2.03415-22.67064-7.54581-27.72569l-.00005,0h0c-5.41251,10.2574-2.03415,22.67064,7.54586,27.72571Z"/>
          </g>
          <g>
            <path class="color-2" d="M42.98455,40.01961h0c5.41254-10.25745,17.56638-14.47477,27.14639-9.41971h0c-5.41251,10.25741-17.56638,14.47478-27.1463,9.41975Z"/>
            <path class="color-2" d="M77.85923,58.42188h0c5.41253-10.25744,2.03415-22.67064-7.54582-27.72569l0,0h0c-5.41251,10.2574-2.03415,22.67065,7.54586,27.72571Z"/>
          </g>
        </g>
        <rect class="color-2" x="188.86568" y="85.47076" width="39.33323" height="39.33323" transform="translate(343.89752 295.44197) rotate(-152.18079)"/>
        <rect class="color-1" x="170.62422" y="120.0408" width="39.33314" height="39.33314" transform="translate(293.38956 352.07351) rotate(-152.18079)"/>
        <g>
          <g>
            <path class="color-4" d="M208.5323,105.13741l0,0A19.66657,19.66657,0,0,1,235.104,96.92183h0l0,0a19.66656,19.66656,0,0,1-26.57165,8.21554Z"/>
            <path class="color-4" d="M208.5323,105.13741l0,0A19.66657,19.66657,0,0,1,235.104,96.92183h0l0,0a19.66656,19.66656,0,0,1-26.57165,8.21554Z"/>
          </g>
          <g>
            <path class="color-4" d="M202.80675,108.5899h1.89542a17.77119,17.77119,0,0,1,17.77119,17.77119v1.89542a0,0,0,0,1,0,0h-1.89542a17.77119,17.77119,0,0,1-17.77119-17.77119V108.5899a0,0,0,0,1,0,0Z" transform="translate(345.43803 322.39514) rotate(-152.18079)"/>
            <path class="color-4" d="M202.80675,108.5899h1.89542a17.77119,17.77119,0,0,1,17.77119,17.77119v1.89542a0,0,0,0,1,0,0h-1.89542a17.77119,17.77119,0,0,1-17.77119-17.77119V108.5899a0,0,0,0,1,0,0Z" transform="translate(345.43803 322.39514) rotate(-152.18079)"/>
          </g>
          <path class="color-4" d="M208.5323,105.13741h0a19.66656,19.66656,0,0,1-26.57165,8.21554l0,0h0a19.66656,19.66656,0,0,1,26.57165-8.21554Z"/>
          <g>
            <path class="color-4" d="M208.53228,105.13735h0a19.66657,19.66657,0,0,1-8.21554-26.57165h0a19.66656,19.66656,0,0,1,8.21554,26.57165Z"/>
            <path class="color-4" d="M208.53228,105.13735h0a19.66657,19.66657,0,0,1-8.21554-26.57165h0a19.66656,19.66656,0,0,1,8.21554,26.57165Z"/>
          </g>
        </g>
        <circle class="color-4" cx="190.29079" cy="139.70737" r="16.27042"/>
        <circle class="color-2" cx="190.29079" cy="139.70737" r="3.2306"/>
        <rect class="color-2" x="135.77922" y="101.65416" width="39.33323" height="39.33323" transform="translate(-24.3972 202.18252) rotate(-62.18079)"/>
        <rect class="color-3" x="101.11404" y="83.36245" width="39.33314" height="39.33314" transform="translate(-26.70707 161.76844) rotate(-62.18079)"/>
        <g>
          <g>
            <path class="color-4" d="M155.4458,121.32078l0,0a19.66656,19.66656,0,0,1,8.21554,26.57165h0l0,0a19.66657,19.66657,0,0,1-8.21554-26.57166Z"/>
            <path class="color-4" d="M155.4458,121.32078l0,0a19.66656,19.66656,0,0,1,8.21554,26.57165h0l0,0a19.66657,19.66657,0,0,1-8.21554-26.57166Z"/>
          </g>
          <g>
            <path class="color-4" d="M132.3267,115.59524h1.89542a17.77119,17.77119,0,0,1,17.77119,17.77119v1.89542a0,0,0,0,1,0,0h-1.89542a17.77119,17.77119,0,0,1-17.77119-17.77119v-1.89542A0,0,0,0,1,132.3267,115.59524Z" transform="translate(-35.11576 192.62295) rotate(-62.18079)"/>
            <path class="color-4" d="M132.3267,115.59524h1.89542a17.77119,17.77119,0,0,1,17.77119,17.77119v1.89542a0,0,0,0,1,0,0h-1.89542a17.77119,17.77119,0,0,1-17.77119-17.77119v-1.89542A0,0,0,0,1,132.3267,115.59524Z" transform="translate(-35.11576 192.62295) rotate(-62.18079)"/>
          </g>
          <path class="color-4" d="M155.4458,121.32078h0a19.66656,19.66656,0,0,1-8.21554-26.57165l0,0h0a19.66657,19.66657,0,0,1,8.21554,26.57165Z"/>
          <g>
            <path class="color-4" d="M155.44586,121.32076h0a19.66658,19.66658,0,0,1,26.57166-8.21554h0a19.66657,19.66657,0,0,1-26.57166,8.21554Z"/>
            <path class="color-4" d="M155.44586,121.32076h0a19.66658,19.66658,0,0,1,26.57166-8.21554h0a19.66657,19.66657,0,0,1-26.57166,8.21554Z"/>
          </g>
        </g>
        <circle class="color-1" cx="120.7806" cy="103.02902" r="16.27042"/>
        <circle class="color-4" cx="120.7806" cy="103.02902" r="3.2306"/>
        <rect class="color-4" x="119.35549" y="48.79241" width="39.33323" height="39.33323" transform="translate(230.02799 193.88515) rotate(-152.18079)"/>
        <g>
          <path class="color-2" d="M116.68465,68.54425h0c5.41253-10.25745,17.56638-14.47477,27.14638-9.4197h0c-5.41251,10.2574-17.56638,14.47477-27.1463,9.41974Z"/>
          <path class="color-2" d="M151.55932,86.94653h0c5.41253-10.25745,2.03415-22.67065-7.54581-27.7257l0,0h0c-5.41252,10.2574-2.03415,22.67065,7.54585,27.72572Z"/>
        </g>
        <rect class="color-1" x="154.02072" y="67.08417" width="39.33323" height="39.33323" transform="translate(60.55912 -71.0307) rotate(27.81921)"/>
        <g>
          <path class="color-2" d="M196.02479,86.66556h0c-5.41253,10.25745-17.56638,14.47478-27.14638,9.41971h0c5.41251-10.25741,17.56638-14.47478,27.1463-9.41975Z"/>
          <path class="color-2" d="M161.15012,68.26329h0c-5.41253,10.25744-2.03415,22.67064,7.54581,27.72569l0,0h0c5.41252-10.2574,2.03415-22.67064-7.54585-27.72571Z"/>
        </g>
        <rect class="color-4" x="-32.57687" y="70.00817" width="78.35124" height="78.35124" transform="translate(-38.51939 208.82814) rotate(-152.18079)"/>
        <g>
          <g>
            <path class="color-2" d="M-29.28743,93.037h0c10.78169-20.43269,34.992-28.83355,54.07521-18.76392h0c-10.78164,20.4326-34.992,28.83354-54.075,18.764Z"/>
            <path class="color-2" d="M40.18242,129.69409h0c10.78169-20.43268,4.052-45.1596-15.03115-55.22918l-.00008-.00005h0c-10.78165,20.43261-4.052,45.15961,15.03123,55.22923Z"/>
          </g>
          <g>
            <path class="color-2" d="M-46.33064,125.3361h0c10.78169-20.43268,34.992-28.83354,54.07521-18.76392h0c-10.78165,20.43261-34.992,28.83355-54.075,18.764Z"/>
            <path class="color-2" d="M23.13921,161.99317h0c10.78169-20.43268,4.052-45.1596-15.03115-55.22918l-.00008-.00005h0c-10.78165,20.4326-4.052,45.15961,15.03123,55.22923Z"/>
          </g>
        </g>
        <rect class="color-2" x="102.76266" y="-4.16705" width="39.33323" height="39.33323" transform="translate(193.27316 -85.5465) rotate(117.81921)"/>
        <rect class="color-1" x="137.60054" y="14.21584" width="39.33314" height="39.33314" transform="translate(260.62745 -89.39614) rotate(117.81921)"/>
        <g>
          <g>
            <path class="color-4" d="M122.42931,15.49956l0,0a19.66657,19.66657,0,0,1-8.21554-26.57166h0l0,0a19.66656,19.66656,0,0,1,8.21554,26.57165Z"/>
            <path class="color-4" d="M122.42931,15.49956l0,0a19.66657,19.66657,0,0,1-8.21554-26.57166h0l0,0a19.66656,19.66656,0,0,1,8.21554,26.57165Z"/>
          </g>
          <g>
            <path class="color-4" d="M125.8818,1.55849h1.89542a17.77119,17.77119,0,0,1,17.77119,17.77119v1.89542a0,0,0,0,1,0,0H143.653A17.77119,17.77119,0,0,1,125.8818,3.45392V1.55849A0,0,0,0,1,125.8818,1.55849Z" transform="translate(209.12625 -103.32161) rotate(117.81921)"/>
            <path class="color-4" d="M125.8818,1.55849h1.89542a17.77119,17.77119,0,0,1,17.77119,17.77119v1.89542a0,0,0,0,1,0,0H143.653A17.77119,17.77119,0,0,1,125.8818,3.45392V1.55849A0,0,0,0,1,125.8818,1.55849Z" transform="translate(209.12625 -103.32161) rotate(117.81921)"/>
          </g>
          <path class="color-4" d="M122.42931,15.49956h0a19.66657,19.66657,0,0,1,8.21554,26.57165l0,0h0a19.66656,19.66656,0,0,1-8.21554-26.57165Z"/>
          <g>
            <path class="color-4" d="M122.42925,15.49958h0a19.66658,19.66658,0,0,1-26.57166,8.21554h0a19.66657,19.66657,0,0,1,26.57166-8.21554Z"/>
            <path class="color-4" d="M122.42925,15.49958h0a19.66658,19.66658,0,0,1-26.57166,8.21554h0a19.66657,19.66657,0,0,1,26.57166-8.21554Z"/>
          </g>
        </g>
        <circle class="color-4" cx="157.26711" cy="33.8824" r="16.27042"/>
        <circle class="color-2" cx="157.26711" cy="33.8824" r="3.2306"/>
        <rect class="color-4" x="230.69794" y="76.14888" width="78.35124" height="78.35124" transform="translate(85.01076 -112.61677) rotate(27.81921)"/>
        <g>
          <g>
            <path class="color-2" d="M305.75974,131.47126h0c-10.78169,20.43269-34.992,28.83354-54.07522,18.76392h0c10.78165-20.4326,34.992-28.83355,54.07505-18.764Z"/>
            <path class="color-2" d="M236.28988,94.81419h0c-10.78169,20.43269-4.052,45.15961,15.03115,55.22919l.00009,0h0c10.78164-20.4326,4.052-45.1596-15.03124-55.22923Z"/>
          </g>
          <g>
            <path class="color-2" d="M322.803,99.17218h0c-10.78169,20.43269-34.992,28.83355-54.07521,18.76392h0c10.78164-20.4326,34.992-28.83354,54.075-18.764Z"/>
            <path class="color-2" d="M253.3331,62.51511h0c-10.78169,20.43269-4.052,45.15961,15.03115,55.22919l.00008,0h0c10.78165-20.4326,4.052-45.1596-15.03123-55.22923Z"/>
          </g>
        </g>
        <rect class="color-1" x="117.45219" y="136.38636" width="39.33314" height="39.33314" transform="translate(185.56269 358.06098) rotate(-152.18079)"/>
        <circle class="color-4" cx="137.11876" cy="156.05292" r="16.27042"/>
        <circle class="color-2" cx="137.11876" cy="156.05292" r="3.2306"/>
        <rect class="color-2" x="168.70342" y="207.65125" width="39.33323" height="39.33323" transform="translate(127.85638 -61.63676) rotate(27.81921)"/>
        <rect class="color-3" x="186.95561" y="173.06114" width="39.33314" height="39.33314" transform="translate(113.82323 -74.15251) rotate(27.81921)"/>
        <g>
          <g>
            <path class="color-4" d="M188.37,227.31784l0,0a19.66657,19.66657,0,0,1-26.57165,8.21554h0l0,0A19.66657,19.66657,0,0,1,188.37,227.31784Z"/>
            <path class="color-4" d="M188.37,227.31784l0,0a19.66657,19.66657,0,0,1-26.57165,8.21554h0l0,0A19.66657,19.66657,0,0,1,188.37,227.31784Z"/>
          </g>
          <g>
            <path class="color-4" d="M174.429,204.19874h1.89542a17.77119,17.77119,0,0,1,17.77119,17.77119v1.89542a0,0,0,0,1,0,0h-1.89542A17.77119,17.77119,0,0,1,174.429,206.09416v-1.89542A0,0,0,0,1,174.429,204.19874Z" transform="translate(121.18135 -61.25525) rotate(27.81921)"/>
            <path class="color-4" d="M174.429,204.19874h1.89542a17.77119,17.77119,0,0,1,17.77119,17.77119v1.89542a0,0,0,0,1,0,0h-1.89542A17.77119,17.77119,0,0,1,174.429,206.09416v-1.89542A0,0,0,0,1,174.429,204.19874Z" transform="translate(121.18135 -61.25525) rotate(27.81921)"/>
          </g>
          <path class="color-4" d="M188.37,227.31784h0a19.66657,19.66657,0,0,1,26.57165-8.21554l.00005,0h0a19.66657,19.66657,0,0,1-26.57166,8.21554Z"/>
          <g>
            <path class="color-4" d="M188.37,227.3179h0a19.66657,19.66657,0,0,1,8.21554,26.57165h0A19.66656,19.66656,0,0,1,188.37,227.3179Z"/>
            <path class="color-4" d="M188.37,227.3179h0a19.66657,19.66657,0,0,1,8.21554,26.57165h0A19.66656,19.66656,0,0,1,188.37,227.3179Z"/>
          </g>
        </g>
        <rect class="color-4" x="205.28264" y="138.32894" width="39.33323" height="39.33323" transform="translate(99.73248 -86.71963) rotate(27.81921)"/>
        <g>
          <g>
            <path class="color-2" d="M243.00876,166.01759h0c-5.41253,10.25744-17.56638,14.47477-27.14638,9.4197h0c5.41251-10.2574,17.56638-14.47477,27.1463-9.41975Z"/>
            <path class="color-2" d="M208.13409,147.61531h0c-5.41253,10.25745-2.03415,22.67065,7.54581,27.72569l0,0h0c5.41252-10.25741,2.03416-22.67065-7.54585-27.72572Z"/>
          </g>
          <g>
            <path class="color-2" d="M251.56465,149.80307h0c-5.41253,10.25745-17.56638,14.47478-27.14638,9.41971h0c5.41251-10.2574,17.56638-14.47477,27.1463-9.41975Z"/>
            <path class="color-2" d="M216.69,131.4008h0c-5.41253,10.25745-2.03415,22.67065,7.54581,27.72569l0,0h0c5.41251-10.25741,2.03415-22.67065-7.54586-27.72572Z"/>
          </g>
        </g>
        <circle class="color-1" cx="206.62218" cy="192.7277" r="16.27042"/>
        <circle class="color-4" cx="206.62218" cy="192.7277" r="3.2306"/>
        <rect class="color-4" x="134.04496" y="189.36307" width="39.33323" height="39.33323" transform="translate(192.10722 465.63528) rotate(-152.18079)"/>
        <g>
          <path class="color-2" d="M131.37411,209.11491h0c5.41254-10.25745,17.56638-14.47478,27.14639-9.41971h0C153.108,209.95261,140.95412,214.17,131.3742,209.115Z"/>
          <path class="color-2" d="M166.24879,227.51718h0c5.41253-10.25744,2.03415-22.67064-7.54582-27.72569l0,0h0c-5.41251,10.2574-2.03415,22.67064,7.54586,27.72571Z"/>
        </g>
        <rect class="color-2" x="184.946" y="260.77957" width="39.33323" height="39.33323" transform="translate(-138.91014 330.53109) rotate(-62.18079)"/>
        <rect class="color-3" x="150.31249" y="242.50457" width="39.33314" height="39.33314" transform="translate(-141.2179 290.15392) rotate(-62.18079)"/>
        <g>
          <g>
            <path class="color-4" d="M204.61259,280.4462l0,0a19.66657,19.66657,0,0,1,8.21554,26.57165h0l0,0a19.66657,19.66657,0,0,1-8.21554-26.57165Z"/>
            <path class="color-4" d="M204.61259,280.4462l0,0a19.66657,19.66657,0,0,1,8.21554,26.57165h0l0,0a19.66657,19.66657,0,0,1-8.21554-26.57165Z"/>
          </g>
          <g>
            <path class="color-4" d="M181.49349,274.72065h1.89542a17.77119,17.77119,0,0,1,17.77119,17.77119v1.89542a0,0,0,0,1,0,0h-1.89542a17.77119,17.77119,0,0,1-17.77119-17.77119v-1.89542A0,0,0,0,1,181.49349,274.72065Z" transform="translate(-149.62871 320.97152) rotate(-62.18079)"/>
            <path class="color-4" d="M181.49349,274.72065h1.89542a17.77119,17.77119,0,0,1,17.77119,17.77119v1.89542a0,0,0,0,1,0,0h-1.89542a17.77119,17.77119,0,0,1-17.77119-17.77119v-1.89542A0,0,0,0,1,181.49349,274.72065Z" transform="translate(-149.62871 320.97152) rotate(-62.18079)"/>
          </g>
          <path class="color-4" d="M204.61259,280.4462h0a19.66657,19.66657,0,0,1-8.21554-26.57166l0,0h0a19.66657,19.66657,0,0,1,8.21554,26.57165Z"/>
          <g>
            <path class="color-4" d="M204.61265,280.44618h0a19.66657,19.66657,0,0,1,26.57165-8.21554h0a19.66657,19.66657,0,0,1-26.57165,8.21554Z"/>
            <path class="color-4" d="M204.61265,280.44618h0a19.66657,19.66657,0,0,1,26.57165-8.21554h0a19.66657,19.66657,0,0,1-26.57165,8.21554Z"/>
          </g>
        </g>
        <rect class="color-4" x="115.65398" y="224.21633" width="39.33323" height="39.33323" transform="translate(-143.52732 249.74773) rotate(-62.18079)"/>
        <g>
          <g>
            <path class="color-2" d="M143.34263,225.82344h0c10.25744,5.41253,14.47477,17.56638,9.4197,27.14638h0c-10.2574-5.41251-14.47477-17.56638-9.41975-27.1463Z"/>
            <path class="color-2" d="M124.94035,260.69811h0c10.25745,5.41253,22.67065,2.03415,27.72569-7.54581l0,0h0c-10.25741-5.41252-22.67065-2.03416-27.72572,7.54585Z"/>
          </g>
          <g>
            <path class="color-2" d="M127.12811,217.26755h0c10.25745,5.41253,14.47478,17.56638,9.41971,27.14638h0c-10.25741-5.41251-14.47478-17.56638-9.41975-27.1463Z"/>
            <path class="color-2" d="M108.72584,252.14222h0c10.25744,5.41253,22.67064,2.03415,27.72569-7.54581l0,0h0c-10.2574-5.41251-22.67064-2.03415-27.72571,7.54586Z"/>
          </g>
        </g>
        <circle class="color-1" cx="169.97905" cy="262.17114" r="16.27042"/>
        <circle class="color-4" cx="169.97905" cy="262.17114" r="3.2306"/>
        <rect class="color-4" x="80.80902" y="205.82974" width="39.33323" height="39.33323" transform="translate(84.1034 471.82116) rotate(-152.18079)"/>
        <g>
          <g>
            <path class="color-2" d="M82.41612,217.47432h0c5.41254-10.25744,17.56638-14.47477,27.14639-9.4197h0c-5.41252,10.2574-17.56638,14.47477-27.1463,9.41975Z"/>
            <path class="color-2" d="M117.29079,235.8766h0c5.41254-10.25745,2.03416-22.67065-7.54581-27.7257l0,0h0c-5.41251,10.25741-2.03415,22.67065,7.54585,27.72572Z"/>
          </g>
          <g>
            <path class="color-2" d="M73.86023,233.68883h0c5.41253-10.25744,17.56638-14.47477,27.14639-9.4197h0c-5.41252,10.2574-17.56638,14.47477-27.14631,9.41975Z"/>
            <path class="color-2" d="M108.7349,252.09111h0c5.41254-10.25745,2.03415-22.67065-7.54581-27.72569l0,0h0c-5.41251,10.25741-2.03415,22.67065,7.54585,27.72572Z"/>
          </g>
        </g>
        <rect class="color-4" x="11.30596" y="169.15515" width="39.33323" height="39.33323" transform="translate(-150.48041 128.09473) rotate(-62.18079)"/>
        <g>
          <path class="color-2" d="M30.88735,166.4843h0c10.25745,5.41254,14.47478,17.56638,9.41971,27.14639h0c-10.25741-5.41251-14.47478-17.56638-9.41975-27.1463Z"/>
          <path class="color-2" d="M12.48508,201.359h0c10.25744,5.41253,22.67064,2.03415,27.72569-7.54582l0,0h0c-10.2574-5.41251-22.67064-2.03415-27.72571,7.54586Z"/>
        </g>
        <rect class="color-2" x="-23.27836" y="150.90609" width="39.33323" height="39.33323" transform="translate(-86.40947 319.74585) rotate(-152.18079)"/>
        <g>
          <g>
            <path class="color-4" d="M-3.61173,170.57273l0,0a19.66657,19.66657,0,0,1,26.57165-8.21554h0l0,0a19.66657,19.66657,0,0,1-26.57165,8.21554Z"/>
            <path class="color-4" d="M-3.61173,170.57273l0,0a19.66657,19.66657,0,0,1,26.57165-8.21554h0l0,0a19.66657,19.66657,0,0,1-26.57165,8.21554Z"/>
          </g>
          <g>
            <path class="color-4" d="M-9.33728,174.02522h1.89542a17.77119,17.77119,0,0,1,17.77119,17.77119v1.89542a0,0,0,0,1,0,0H8.43391A17.77119,17.77119,0,0,1-9.33728,175.92064v-1.89542A0,0,0,0,1-9.33728,174.02522Z" transform="translate(-84.86896 346.69901) rotate(-152.18079)"/>
            <path class="color-4" d="M-9.33728,174.02522h1.89542a17.77119,17.77119,0,0,1,17.77119,17.77119v1.89542a0,0,0,0,1,0,0H8.43391A17.77119,17.77119,0,0,1-9.33728,175.92064v-1.89542A0,0,0,0,1-9.33728,174.02522Z" transform="translate(-84.86896 346.69901) rotate(-152.18079)"/>
          </g>
        </g>
        <rect class="color-3" x="46.14384" y="187.53803" width="39.33314" height="39.33314" transform="translate(104.30497 -6.76485) rotate(27.81921)"/>
        <circle class="color-1" cx="65.81041" cy="207.2046" r="16.27042"/>
        <circle class="color-4" cx="65.81041" cy="207.2046" r="3.2306"/>
        <rect class="color-3" x="207.11073" y="50.89419" width="39.33314" height="39.33314" transform="translate(59.1394 -97.67806) rotate(27.81921)"/>
        <circle class="color-1" cx="226.7773" cy="70.56076" r="16.27042"/>
        <circle class="color-4" cx="226.9736" cy="70.18874" r="3.2306"/>
        <rect class="color-1" x="203.33698" y="225.9263" width="39.33323" height="39.33323" transform="translate(140.38783 -75.68752) rotate(27.81921)"/>
        <g>
          <path class="color-2" d="M245.34106,245.5077h0c-5.41254,10.25744-17.56638,14.47477-27.14639,9.4197h0c5.41251-10.2574,17.56638-14.47477,27.1463-9.41975Z"/>
          <path class="color-2" d="M210.46638,227.10542h0c-5.41253,10.25745-2.03415,22.67065,7.54582,27.72569l0,0h0c5.41251-10.25741,2.03415-22.67065-7.54586-27.72572Z"/>
        </g>
        <rect class="color-1" x="221.58918" y="191.33619" width="39.33314" height="39.33314" transform="translate(356.15682 510.20877) rotate(-152.18079)"/>
        <circle class="color-4" cx="241.25575" cy="211.00275" r="16.27042"/>
        <circle class="color-2" cx="241.25575" cy="211.00275" r="3.2306"/>
        <rect class="color-3" x="-19.20953" y="-24.324" width="39.33314" height="39.33314" transform="translate(4.36289 -2.07967) rotate(-62.18079)"/>
        <circle class="color-1" cx="0.45704" cy="-4.65743" r="16.27042"/>
        <rect class="color-4" x="172.26572" y="32.50755" width="39.33323" height="39.33323" transform="translate(337.33321 187.88986) rotate(-152.18079)"/>
        <g>
          <path class="color-2" d="M169.59488,52.25938h0c5.41253-10.25744,17.56638-14.47477,27.14638-9.4197h0c-5.41251,10.2574-17.56638,14.47477-27.1463,9.41975Z"/>
          <path class="color-2" d="M204.46955,70.66166h0c5.41254-10.25745,2.03415-22.67065-7.54581-27.72569l0,0h0c-5.41251,10.25741-2.03415,22.67065,7.54585,27.72572Z"/>
        </g>
        <rect class="color-1" x="15.45738" y="-6.03137" width="39.33323" height="39.33323" transform="translate(6.67287 38.33642) rotate(-62.18079)"/>
        <g>
          <path class="color-2" d="M35.03877-8.70222h0c10.25744,5.41254,14.47477,17.56638,9.4197,27.14639h0C34.20107,13.03166,29.9837.87779,35.03872-8.70213Z"/>
          <path class="color-2" d="M16.63649,26.17246h0c10.25745,5.41253,22.67065,2.03415,27.7257-7.54582l0,0h0c-10.25741-5.41251-22.67065-2.03415-27.72572,7.54586Z"/>
        </g>
        <rect class="color-1" x="66.2762" y="64.97961" width="39.33314" height="39.33314" transform="translate(122.44972 199.61739) rotate(-152.18079)"/>
        <circle class="color-4" cx="85.94277" cy="84.64618" r="16.27042"/>
        <circle class="color-2" cx="85.94277" cy="84.64618" r="3.2306"/>
        <rect class="color-4" x="152.29711" y="154.7729" width="39.33323" height="39.33323" transform="translate(242.64467 408.97069) rotate(-152.18079)"/>
        <g>
          <g>
            <path class="color-2" d="M153.90421,166.41749h0c5.41253-10.25745,17.56638-14.47478,27.14638-9.41971h0c-5.41251,10.2574-17.56638,14.47477-27.1463,9.41975Z"/>
            <path class="color-2" d="M188.77888,184.81976h0c5.41253-10.25745,2.03415-22.67065-7.54581-27.72569l0,0h0c-5.41252,10.2574-2.03415,22.67064,7.54585,27.72571Z"/>
          </g>
          <g>
            <path class="color-2" d="M145.34832,182.632h0c5.41253-10.25745,17.56638-14.47478,27.14638-9.41971h0c-5.41251,10.25741-17.56638,14.47478-27.1463,9.41975Z"/>
            <path class="color-2" d="M180.223,201.03427h0c5.41253-10.25744,2.03415-22.67064-7.54581-27.72569l0,0h0c-5.41252,10.2574-2.03416,22.67064,7.54585,27.72571Z"/>
          </g>
        </g>
      </g>
    </g>
  </g>
</svg>
