<svg xmlns="http://www.w3.org/2000/svg" xmlns:xlink="http://www.w3.org/1999/xlink" viewBox="0 0 300 300">
  <defs>
    <style>
      .octopus-shape {
        fill: none;
      }

      .background {
        fill: #bcbbbb;
      }

      .patterns {
        clip-path: url(#clip-path);
      }
      .grey-bg {
          fill: #a3a3a3;
      }
    </style>
    <style>
      .layer1-color1 {
        fill: #feffff;
      }

      .layer1-color2 {
        fill: #d2ebe6;
      }

      .layer1-color3 {
        fill: #69c8c3;
      }

      .layer1-color4 {
        fill: #89d1cb;
      }
    </style>
  <clipPath id="clip-path">
      <path class="octopus-shape" d="M242.2051,192.68693c-3.95613-1.88921-9.16174-7.60169-12.06435-10.88713-14.05135-15.90444-26.86653-21.65175-35.08513-23.68866,4.46794.10674,10.46475,1.12437,18.36807,4.09547,21.89125,8.22955,38.34716,7.0115,38.34716,7.0115,19.645-.4718,26.30765-23.31819,26.30765-23.31819-5.44321,6.169-14.27661,9.59988-14.27661,9.59988a49.72274,49.72274,0,0,1-39.13777-7.13836c-26.64235-15.87207-36.16114-18.542-39.15-18.92708,39.0434-47.0318,14.38253-82.32219,14.38253-82.32219-16.18877-25.32673-47.86-25.27177-47.86-25.27177-25.10725-1.31232-60.55262,21.00518-58.287,55.79552,1.33209,20.45559,15.5575,45.39655,21.1803,54.53487-6.03811,2.51766-15.6,7.26393-30.58423,16.19065A49.72257,49.72257,0,0,1,45.208,155.4998s-8.83351-3.4309-14.27673-9.59988c0,0,6.66268,22.84639,26.30765,23.31819,0,0,8.7496.62868,21.94738-2.19849a94.96251,94.96251,0,0,0-14.65308,13.013c-2.98134,3.21412-8.32393,8.79879-12.32467,10.59139-7.11835,3.18964-16.80733,3.41277-30.28708-4.68814,0,0,23.263,28.44506,45.9738,11.39883,2.23286-1.676,7.75951-6.4925,9.89857-8.28663,7.29665-6.11943,13.411-11.93277,30.56682-13.53812-5.28139,14.00451-22.67527,46.04794-69.17136,36.07217,0,0,17.5604,19.05807,49.8605,10.25986,0,0,16.76461-5.513,31.56692-26.23668-1.42471,5.55984-2.38456,10.1909-2.38456,10.1909-8.36912,51.36312,23.138,51.36312,23.138,51.36312,21.3453,0,26.91232-20.02016,26.91232-20.02016-10.83064,12.14332-21.86382,9.18963-21.86382,9.18963-12.26889-3.77431-14.27661-16.87735-14.27661-16.87735-3.72358-19.006,9.76264-37.20878,15.04792-43.46709a46.12408,46.12408,0,0,0,6.32351,29.57579,45.16185,45.16185,0,0,0,10.10557,10.32365,65.13652,65.13652,0,0,1,14.50939,12.73233c.29351.34164.57514.69776.84534,1.06459a20.85868,20.85868,0,0,1-.1484,25.27672c-3.46044,4.51773-9.20669,9.08948-18.74785,11.89382,0,0,5.13229,2.38278,12.67525.84792a28.92311,28.92311,0,0,0,22.57135-33.46083c-1.26806-6.66044-4.78923-14.5201-12.30018-23.345,0,0-15.89173-15.60152-15.25411-33.9483,15.78,27.90065,37.07933,34.897,37.07933,34.897,32.30022,8.79821,49.86062-10.25986,49.86062-10.25986-45.79939,9.82619-63.36462-21.12229-68.92858-35.43655,17.60877,1.94582,23.649,7.97252,30.88422,14.34557,2.09505,1.84531,7.50319,6.79448,9.69486,8.52411,22.29079,17.59182,46.23659-10.28093,46.23659-10.28093C258.92475,196.50608,249.244,196.04816,242.2051,192.68693Z"></path>
    </clipPath>
  </defs>
  <rect class="background" x="-3.77325" y="-3.77325" width="307.5465" height="307.5465" style="fill: #0d5268;"></rect>
  <g class="pattern">
    <path class="layer1-color1" d="M299.7582,300V0c.07988.04.22616.07575.229.12057.02.31849.01064.63883.01064.95857q0,148.92087-.00988,297.84172A5.21136,5.21136,0,0,1,299.7582,300Z"/>
    <path class="layer1-color2" d="M206.77043,69.30491c.09066,3.69835.44227,7.41282.21534,11.09155a61.69684,61.69684,0,0,1-4.43718,19.64139,6.992,6.992,0,0,0-1.16144.21852c-7.90772,2.895-15.8074,5.81206-23.719,8.69626-.87685.31965-1.02877.7203-.703,1.59491,2.55018,6.8469,5.05147,13.712,7.57376,20.56936.50373,1.3695,1.03271,2.72967,1.60611,4.242l7.58885-2.99725c3.35806,1.53269,6.76413,2.96955,10.06114,4.62408,3.54561,1.77931,6.99834,3.74573,10.47276,5.66468,1.68548.93092,3.3279,1.93991,4.98972,2.91354q1.07934,3.106,2.15887,6.212c-.3239.15253-.63835.33083-.9731.45374q-8.92446,3.27666-17.85333,6.54131c-1.43223-.18133-2.86392-.36707-4.29693-.54207-.65634-.08015-1.31527-.13918-1.973-.20778l-.13251.39475q1.83271.70691,3.66549,1.41389a12.371,12.371,0,0,0-1.23575.42066c-.98566.45046-1.95534.93593-2.93144,1.40737a2.63108,2.63108,0,0,0-.89439-.00574c-7.901,2.8898-15.78827,5.81754-23.698,8.68309-1.14725.41561-1.35269.96191-.94647,2.05431,2.60023,6.99264,5.1515,14.0035,7.74338,20.99927.382,1.03113.894,2.014,1.34589,3.01925q.61266,1.85485,1.22549,3.70968,1.021,3.08394,2.0435,6.16742a41.47805,41.47805,0,0,1-3.6387-3.66278c-2.9597-3.78958-5.80833-7.66682-8.66008-11.53951a35.58858,35.58858,0,0,1-1.9213-3.11745c-.13546-.23044-.15607-.5285-.44919-.61865a20.88116,20.88116,0,0,0,.5334,8.62746,52.66413,52.66413,0,0,0,10.056,20.028c2.11,2.717,4.4045,5.29059,6.61552,7.92941-1.46466.49881-2.93515.98153-4.3933,1.49916q-5.8397,2.07306-11.67092,4.1701c-2.33974-1.70139-4.69965-3.376-7.00986-5.11657-1.00346-.75605-1.90475-1.64789-2.85246-2.47807-1.94743-5.30209-3.89482-10.60415-5.87058-15.9834-1.32034.43045-2.52236.82232-3.7244,1.21418-.8106-3.28459-1.72028-6.549-2.39237-9.86176a32.82639,32.82639,0,0,1-.45744-5.56231c-.041-1.42473.12905-2.8552.19616-4.28356a2.34934,2.34934,0,0,0-.28055-1.31872c-.75744.90039-1.56523,1.76345-2.26389,2.70741a72.28288,72.28288,0,0,0-9.32173,16.11031c-1.11913,2.8044-1.85,5.764-2.75659,8.65329q-2.62323.8306-5.24646,1.66126a10.26231,10.26231,0,0,0-.28077-1.15163q-1.96632-5.37823-3.95995-10.74645c-.80573-2.15678-1.653-4.298-2.4816-6.44624q-.00543-.42019-.01074-.84026c-.21087-.41972-.45619-.82614-.62665-1.26189-.61683-1.57692-1.20851-3.16367-1.80967-4.74672-.76181-2.134-1.507-4.274-2.2885-6.40073q-3.62223-9.857-7.26669-19.70584l.05929-.26813c.46133-.11744.93644-.19686,1.38177-.35847,3.00168-1.08947,5.99712-2.19615,8.99445-3.29765q7.19382-2.64372,14.38729-5.28843c.68061-.25031,1.20275-.4852.8321-1.4566-1.49495-3.91793-2.92053-7.8625-4.35544-11.80317q-2.3771-6.5282-4.72635-13.06643c.43287-.19628.85537-.421,1.30026-.5848q11.14764-4.10331,22.29624-8.20389a21.28191,21.28191,0,0,0,2.09957-1.04117,6.18328,6.18328,0,0,0,1.28273-.18709q11.631-4.27047,23.24864-8.5772c1.43757-.53195,1.48858-.66169.97137-2.067-2.22026-6.03275-4.4236-12.07182-6.67185-18.0941-.73622-1.972-1.58975-3.90023-2.38964-5.84847a9.15673,9.15673,0,0,0-.26588-1.15392q-4.53349-12.3534-9.085-24.70015l-.017-.4352a5.72735,5.72735,0,0,0,.93506-.1806q12.49968-4.6063,24.99294-9.23a10.23013,10.23013,0,0,0,.28112,1.15568q4.42354,12.0855,8.869,24.163a5.10915,5.10915,0,0,0,.416.726ZM169.51971,170.92613a3.30208,3.30208,0,0,0-.0728-.516q-4.492-12.259-8.97826-24.52c-.3336-.91669-.83648-.854-1.57739-.58061q-11.51356,4.24863-23.039,8.46512c-1.63948.60268-1.6595.69339-1.05848,2.32619q4.2006,11.41166,8.38642,22.82872c.54458,1.48541.53593,1.50489,2.02869.95814q8.3196-3.04718,16.63267-6.11223C164.38229,172.83964,166.91861,171.89182,169.51971,170.92613Z"/>
    <path class="layer1-color3" d="M108.27176,164.04315q3.63493,9.85233,7.26677,19.70581c.7815,2.1267,1.52669,4.26677,2.28867,6.40077-1.961.64061-3.94327,1.22333-5.879,1.93329-4.60039,1.68725-9.17251,3.45159-13.76941,5.14853-1.56445.57752-3.16886,1.04663-4.755,1.56528,1.95941-2.30238,4.02-4.52711,5.85692-6.92348a64.95309,64.95309,0,0,0,8.72083-15.83828,4.19592,4.19592,0,0,0,.094-.614c-1.82538.23378-3.57294.4122-5.30511.68762a45.35767,45.35767,0,0,0-17.05684,6.365c-.93382-2.54442-1.91113-5.07408-2.78048-7.64037-.35552-1.0495-.74982-1.35084-1.876-.92184-5.47234,2.08452-10.97825,4.08075-16.47228,6.10825,1.73167-1.80528,3.36709-3.71723,5.21807-5.39029,2.62689-2.37439,5.41277-4.5726,8.12949-6.84755a.89193.89193,0,0,0,.33721-.62218c-1.0104.166-2.02339.31772-3.03078.50032A77.86972,77.86972,0,0,1,55.664,169.01418a34.54094,34.54094,0,0,1-4.8453-1.03752,14.85316,14.85316,0,0,0-.37718-1.4895c-1.13707-3.14057-2.29428-6.27385-3.44491-9.40951l1.53515-.72676c1.427.088,2.8566.14586,4.28058.26889a48.35177,48.35177,0,0,0,21.30377-3.07763c.29469-.11.60534-.17712.90835-.26419q1.56444,4.26,3.12841,8.52017c1.24434,3.40308,2.50934,6.799,3.70786,10.21822.4002,1.14174,1.01231,1.31526,2.08065.9115,3.834-1.449,7.686-2.85038,11.53706-4.25377Q101.87008,166.34487,108.27176,164.04315Z"/>
    <path class="layer1-color3" d="M97.77753,55.34282c1.68519-2.96348,3.15285-6.07972,5.101-8.85857A55.84774,55.84774,0,0,1,117.8728,32.223a4.05956,4.05956,0,0,1,.8479-.326q1.73522,4.7146,3.47045,9.42922c.41741,1.20066.81344,2.40928,1.25581,3.60066,2.25847,6.08249,4.54283,12.15539,6.78458,18.244.50743,1.37818.88129,2.80562,1.31661,4.21038l-25.62489,9.38977a7.175,7.175,0,0,1-.50458-.92944c-1.45268-3.92674-2.87959-7.863-4.3383-11.78751C99.99843,61.14329,98.87982,58.2461,97.77753,55.34282Z"/>
    <path class="layer1-color4" d="M131.54815,67.38132c-.43532-1.40476-.80918-2.8322-1.31661-4.21038-2.24175-6.08863-4.52611-12.16153-6.78458-18.244-.44237-1.19138-.8384-2.4-1.25582-3.6007Q134.593,36.7781,146.9996,32.24309c.79363-.28874.9306-.64809.63418-1.42172-1.08412-2.82952-2.10794-5.68219-3.15445-8.52615a43.406,43.406,0,0,1,12.35723.06452c3.17969.42372,6.31782,1.16521,9.46881,1.79369a7.50079,7.50079,0,0,1,1.29277.51353q-8.47468,3.11555-16.9492,6.2311c-2.527.92889-2.54877.93631-1.61715,3.4692q4.27667,11.62737,8.58251,23.244.00851.21759.01712.43517a7.65581,7.65581,0,0,0-1.27861.236q-5.9911,2.17356-11.96768,4.38713c-4.24275,1.57378-8.47734,3.16967-12.71536,4.75586A.11678.11678,0,0,1,131.54815,67.38132Z"/>
    <path class="layer1-color3" d="M182.50514,206.28513q-1.02182-3.08369-2.0435-6.16742-.61392-1.85443-1.22548-3.70968.89257-.3318,1.785-.66377,6.18044-2.31129,12.36058-4.62328c1.25325,1.4816,2.49534,2.97284,3.76182,4.443A50.896,50.896,0,0,0,211.774,207.30811a8.91327,8.91327,0,0,1,1.11591.83864c.56028,1.56405,1.12046,3.12805,1.71273,4.78164,1.88228-.69263,3.63238-1.33661,5.38247-1.98058,1.85037.42844,3.69154.90275,5.55282,1.2768a61.9849,61.9849,0,0,0,17.36651.97059c.3955-.03246.79605-.00355,1.19434-.00317q.77684,2.18595,1.55343,4.3719a4.99555,4.99555,0,0,1-.84738.72444,50.29911,50.29911,0,0,1-25.83159,5.68686c-.55111-.02051-1.09886-.13181-1.649-.20094,1.33027-.01888.84939-.90243.637-1.50211-.96984-2.73794-2.01834-5.44793-2.99628-8.1831-.32754-.91613-.85746-1.00641-1.6703-.68451-1.33.5267-2.683.995-4.02246,1.49839q-5.30125,1.99229-10.59915,3.99358c-2.54066-1.60134-5.17859-3.06974-7.59518-4.84067-2.52111-1.84751-4.83843-3.97535-7.22093-6.0087a9.36346,9.36346,0,0,1-1.05443-1.27089l-.284-.53133Z"/>
    <path class="layer1-color1" d="M124.845,128.50412q2.362,6.53369,4.72631,13.06655c1.43491,3.94067,2.86049,7.88524,4.35544,11.80317.37065.9714-.15149,1.20629-.8321,1.4566q-7.19324,2.64537-14.38729,5.28843c-2.99733,1.1015-5.99277,2.20818-8.99445,3.29765-.44533.16161-.92044.241-1.3818.35849q-4.40223-11.98434-8.80439-23.9687c3.59956-1.85476,7.19227-3.723,10.802-5.55772,1.46375-.744,2.9646-1.41486,4.44857-2.119l9.81-3.64789Z"/>
    <path class="layer1-color1" d="M157.6143,57.61123Q153.321,45.99,149.03179,34.36726c-.93162-2.53289-.90988-2.54031,1.61715-3.4692q8.47473-3.11512,16.9492-6.2311c2.22332.71528,4.45392,1.40878,6.66525,2.15914a15.75708,15.75708,0,0,1,1.86819.91084c.12864.45845.22688.92778.39027,1.37318,1.79394,4.89062,3.58347,9.783,5.40837,14.66205.53807,1.43855,1.18393,2.83672,1.7804,4.25339l-.16832.175q-12.4953,4.61823-24.99294,9.23A5.72735,5.72735,0,0,1,157.6143,57.61123Z"/>
    <path class="layer1-color4" d="M99.52671,139.80631q4.40217,11.98437,8.80439,23.9687l-.05926.26811q-6.39718,2.3144-12.7934,4.631c-3.851,1.40339-7.70307,2.80481-11.53706,4.25377-1.06834.40376-1.68045.23024-2.08065-.9115-1.19852-3.41921-2.46352-6.81514-3.70786-10.21822q-1.5585-4.2622-3.12841-8.52017c4.08311-1.50671,7.66175-3.93648,11.378-6.132C90.71688,144.59709,95.14689,142.24425,99.52671,139.80631Z"/>
    <path class="layer1-color1" d="M193.38176,191.121q-6.18027,2.31172-12.36058,4.62328-.89188.33351-1.785.66377c-.45188-1.00521-.96387-1.98812-1.3459-3.01925-2.59188-6.99577-5.14315-14.00663-7.74338-20.99927-.40622-1.0924-.20078-1.6387.94647-2.05431,7.90973-2.86555,15.797-5.79329,23.698-8.68309a2.63231,2.63231,0,0,1,.8946.00574q.5114,1.40712,1.02234,2.81426,2.83857,7.82514,5.67681,15.6504a56.56554,56.56554,0,0,0-11.923-3.45612c-1.622-.26521-3.255-.46341-5.1347-.7275A72.8516,72.8516,0,0,0,193.38176,191.121Z"/>
    <path class="layer1-color2" d="M97.77753,55.34282c1.10229,2.90328,2.2209,5.80047,3.30285,8.71132,1.45871,3.92447,2.88562,7.86077,4.3383,11.78751a7.17423,7.17423,0,0,0,.50458.92943,10.81067,10.81067,0,0,0,.30244,1.50792c.60192,1.72986,1.24253,3.44633,1.87683,5.16479q3.57788,9.69331,7.161,19.38465l-13.17836,4.83631A119.33931,119.33931,0,0,1,95.21939,87.5271a54.63477,54.63477,0,0,1-1.51506-16.31969A46.07934,46.07934,0,0,1,97.77753,55.34282Z"/>
    <path class="layer1-color3" d="M183.5423,48.20058c.0561-.05834.11221-.11668.16767-.17531q6.41373-2.33,12.82873-4.65938a6.33372,6.33372,0,0,1,1.03413.88678,47.52029,47.52029,0,0,1,8.461,19.75612c.35127,1.744.4966,3.52963.73661,5.29612l-13.662,4.94033a5.10915,5.10915,0,0,1-.416-.726q-4.44447-12.07781-8.869-24.163A10.23013,10.23013,0,0,1,183.5423,48.20058Z"/>
    <path class="layer1-color1" d="M238.11568,204.32987c-5.75266-.95079-10.40875-3.91388-14.64791-7.77388-4.225-3.84707-8.59536-7.53412-12.89974-11.29393a1.88164,1.88164,0,0,1-.21888-.27691q8.28785-3.03174,16.5758-6.06318,3.94991,4.25635,7.9,8.51307a4.55447,4.55447,0,0,0,.14092.82221q2.60567,7.14366,5.22577,14.282c.25295.694.63177.75723,1.29189.51208q9.48017-3.52065,18.98307-6.9797c1.825-.66186,3.69631-1.19616,5.54636-1.78894a46.07713,46.07713,0,0,1-15.55121,8.96089,25.24488,25.24488,0,0,1-9.60364,1.324c-.18018-.97918-.71444-1.1664-1.56582-.72811C238.91574,204.0333,238.50883,204.16819,238.11568,204.32987Z"/>
    <path class="layer1-color3" d="M226.43327,149.9422a3.49727,3.49727,0,0,1,.7734.22814,50.38538,50.38538,0,0,0,25.12557,6.6346,4.16766,4.16766,0,0,1,.47235.054c1.20054,3.32488,2.38858,6.65438,3.61257,9.97058.23546.63787.28583,1.14342-.38089,1.51293a49.25139,49.25139,0,0,1-5.94682.81215,92.39383,92.39383,0,0,1-23.13272-2.78316,1.26656,1.26656,0,0,1-.30871-.176c-.95388-2.69114-1.91892-5.37852-2.85869-8.07473-.72987-2.09411-1.42824-4.19919-2.14062-6.29939Q224.041,150.88178,226.43327,149.9422Z"/>
    <path class="layer1-color2" d="M98.25972,216.67355a35.05737,35.05737,0,0,1-11.66582,5.5245,62.84457,62.84457,0,0,1-15.16777,1.76131c-.07015-.22788-.13135-.459-.21163-.68316q-1.93489-5.40342-3.87408-10.8053a50.683,50.683,0,0,0,18.89809-7.74628c2.05046-1.40122,3.96167-3.00657,5.93677-4.519.43424,1.19781.86065,2.39862,1.30339,3.59339Q95.86472,210.238,98.25972,216.67355Z"/>
    <path class="layer1-color4" d="M226.925,178.922q-8.28793,3.03152-16.5758,6.06318c-1.42251-.91594-2.83008-1.85649-4.27225-2.74057-1.21009-.74179-2.46051-1.4177-3.69244-2.12243q-2.83743-7.82468-5.67617-15.65-.51048-1.40734-1.02234-2.81426c.97589-.47144,1.94557-.95691,2.93123-1.40737a12.371,12.371,0,0,1,1.23575-.42066c2.89945,1.34873,5.89162,2.53077,8.67831,4.08239a67.67551,67.67551,0,0,1,14.09,10.63786C224.09036,175.97165,225.49233,177.46268,226.925,178.922Z"/>
    <path class="layer1-color2" d="M123.33859,246.56268a24.93891,24.93891,0,0,1-4.2319-8.32573,43.82382,43.82382,0,0,1-2.22326-13.01151c-.03948-2.01509-.055-4.03065-.08141-6.046l10.21429-3.65539a2.85719,2.85719,0,0,1,.48262.65025q1.93929,5.30219,3.84542,10.61649a44.5609,44.5609,0,0,0,1.49178,6.0439,61.46908,61.46908,0,0,0,3.22539,6.20322q.36526,1.35028.7304,2.70036a6.13923,6.13923,0,0,0-.92741.19064Q129.59776,244.23552,123.33859,246.56268Z"/>
    <path class="layer1-color1" d="M168.97658,229.60082q5.83494-2.08656,11.67092-4.1701c1.45815-.51763,2.92864-1.00035,4.3933-1.49916a50.10919,50.10919,0,0,1,9.17252,17.26524,22.78262,22.78262,0,0,1,1.08581,8.322c-.71084.25094-1.4228.49876-2.13237.7533q-5.093,1.82715-10.18493,3.65731A20.8828,20.8828,0,0,0,178.8857,239.644a89.24473,89.24473,0,0,0-6.88379-7.36933C171.06612,231.31259,169.98923,230.488,168.97658,229.60082Z"/>
    <path class="layer1-color4" d="M193.73383,132.36166l-7.58885,2.99725c-.5734-1.51234-1.10238-2.87251-1.60611-4.242-2.52229-6.85733-5.02358-13.72246-7.57376-20.56936-.32575-.87461-.17383-1.27526.703-1.59491,7.91162-2.8842,15.8113-5.8013,23.719-8.69626a6.992,6.992,0,0,1,1.16144-.21852c-.64472,1.69655-1.19615,3.43581-1.94975,5.08241a104.33929,104.33929,0,0,1-14.65874,23.22438,5.717,5.717,0,0,0-.52524.92222c2.56781.88526,4.99778,1.71462,7.41933,2.56789A5.349,5.349,0,0,1,193.73383,132.36166Z"/>
    <path class="layer1-color1" d="M64.60478,180.0197c5.494-2.0275,10.99994-4.02373,16.47228-6.10825,1.12622-.429,1.52052-.12766,1.876.92184.86935,2.56629,1.84666,5.09595,2.78048,7.64037-2.45464,1.90664-4.93522,3.78089-7.35814,5.727-4.30316,3.45642-8.553,6.97961-12.87111,10.417a16.52575,16.52575,0,0,1-2.68443,1.44046q-2.43132-6.65675-4.86236-13.31373c.881-.841,1.78528-1.65929,2.6378-2.52836C61.95,182.83512,63.27008,181.42023,64.60478,180.0197Z"/>
    <path class="layer1-color4" d="M98.25972,216.67355q-2.3912-6.437-4.78105-12.87451c-.44274-1.19477-.86915-2.39558-1.30339-3.59339q.62394-.70419,1.24853-1.40883c1.58613-.51864,3.19054-.98775,4.755-1.56527,4.5969-1.69694,9.169-3.46128,13.76941-5.14853,1.93572-.71,3.918-1.29268,5.879-1.93329.601,1.583,1.19267,3.16976,1.8095,4.74668.17046.43575.41578.84217.62665,1.26189a29.47671,29.47671,0,0,0-2.14086,2.26032,81.59125,81.59125,0,0,1-18.804,17.75521A7.28087,7.28087,0,0,1,98.25972,216.67355Z"/>
    <path class="layer1-color3" d="M102.08521,107.66475q6.58918-2.41815,13.17836-4.83628a2.02643,2.02643,0,0,0,.2311.05112,11.627,11.627,0,0,0,.33227,1.37814c.82682,2.23829,1.69167,4.46249,2.521,6.69988,1.36838,3.6918,2.74047,7.38245,4.07024,11.08824.76445,2.1304,1.44874,4.28961,2.1691,6.43585q-4.905,1.824-9.80995,3.64788a198.445,198.445,0,0,1-12.32281-23.35473C102.29761,108.41977,102.2068,108.03545,102.08521,107.66475Z"/>
    <path class="layer1-color1" d="M144.47933,22.29522c1.04651,2.844,2.07033,5.69663,3.15445,8.52615.29642.77363.15945,1.133-.63418,1.42172q-12.41341,4.51629-24.80846,9.08314-1.73522-4.71458-3.47044-9.42919a59.90881,59.90881,0,0,1,12.45942-6.35582A62.16162,62.16162,0,0,1,143.646,22.30687,5.36488,5.36488,0,0,1,144.47933,22.29522Z"/>
    <path class="layer1-color2" d="M57.95754,186.74441q2.43113,6.65694,4.86236,13.31373a21.19939,21.19939,0,0,1-8.0722,2.37975c-8.09878.76832-15.00093-2.31247-21.54736-6.636a5.098,5.098,0,0,1-2.53138-3.462q1.423-.48406,2.8461-.96778c3.065.46081,6.127,1.27637,9.19581,1.30336A20.12667,20.12667,0,0,0,56.824,187.58659C57.17194,187.27266,57.57831,187.02361,57.95754,186.74441Z"/>
    <path class="layer1-color4" d="M182.98184,253.92941q5.09235-1.8289,10.18492-3.65731c.70957-.25454,1.42153-.50236,2.13237-.7533a21.27426,21.27426,0,0,1-1.61749,9.55363,28.68828,28.68828,0,0,1-14.8722,16.25356q-1.35435-3.706-2.7086-7.412a.12635.12635,0,0,1,.14847-.12l.04256-.04142c.06457-.064.12914-.1281.19132-.19l.05268-.05292c.06336-.06312.12673-.12623.1877-.18715l.05205-.05231c.077-.09057.154-.18112.22865-.26683.02089-.07784.04413-.16053.06737-.24323a21.14694,21.14694,0,0,0,5.77827-12.64136C182.85576,254.05227,182.93621,253.99237,182.98184,253.92941Z"/>
    <path class="layer1-color3" d="M136.79192,241.73827q-.36517-1.35014-.7304-2.70036a57.183,57.183,0,0,0,4.82341,4.5756c4.83769,3.66233,10.1594,3.57082,15.623,1.60776a26.93809,26.93809,0,0,0,8.24018-4.929,5.90886,5.90886,0,0,1,.85051-.50659q.24788.64359.4958,1.28717a6.92587,6.92587,0,0,1-.432,1.32971c-4.16389,7.39146-10.17335,12.36338-18.62969,14.02117a42.82181,42.82181,0,0,1-4.71652.41337Q139.55408,249.28767,136.79192,241.73827Z"/>
    <path class="layer1-color3" d="M67.34042,212.4709q1.9377,5.40243,3.87408,10.8053c.08028.22421.14148.45528.21163.68316a48.55445,48.55445,0,0,1-25.14887-7.01625,2.95147,2.95147,0,0,1-.538-.55763q3.95129-1.46536,7.90283-2.93034c3.2364-.16341,6.47456-.29912,9.70837-.50349C64.68523,212.8673,66.01071,212.63558,67.34042,212.4709Z"/>
    <path class="layer1-color2" d="M196.5387,43.3659Q190.124,45.69543,183.71,48.02527c-.59582-1.41638-1.24168-2.81455-1.77975-4.2531-1.8249-4.87908-3.61443-9.77143-5.40837-14.66205-.16339-.4454-.26163-.91473-.39027-1.37318,2.11368,1.04959,4.27307,2.01766,6.33141,3.167a48.92037,48.92037,0,0,1,10.12439,7.78161A58.633,58.633,0,0,1,196.5387,43.3659Z"/>
    <path class="layer1-color2" d="M256.03627,168.34243c.66672-.36951.61635-.87506.38089-1.51293-1.224-3.3162-2.412-6.6457-3.61257-9.97057,2.95263-.30412,5.93132-.45439,8.85133-.95068,3.78134-.64267,6.95843-2.74813,10.08182-4.83135,1.70474-1.137,3.24281-2.52431,4.85609-3.79871l.20837.24744c-1.26918,2.60231-2.39524,5.2874-3.83977,7.78825a29.59063,29.59063,0,0,1-9.70721,10.16093c-1.82464.67805-3.65527,1.34073-5.46853,2.048a3.97493,3.97493,0,0,0-.87407.66533Z"/>
    <path class="layer1-color1" d="M136.79192,241.73827q2.76216,7.5494,5.52431,15.09881A20.94136,20.94136,0,0,1,129.6569,252.953a26.43463,26.43463,0,0,1-6.26323-6.04391c-.063-.08077-.03886-.22957-.05519-.34651q6.262-2.31976,12.526-4.63366A6.13923,6.13923,0,0,1,136.79192,241.73827Z"/>
    <path class="layer1-color4" d="M221.64871,151.82135c.71238,2.1002,1.41075,4.20528,2.14062,6.29939.93977,2.69621,1.90481,5.38359,2.85869,8.07473q-6.59736-2.00217-13.19372-4.00587-4.78063-1.45863-9.55312-2.944c-.44344-.13746-.87437-.31538-1.31118-.47458q8.9272-3.26877,17.85322-6.54133c.33475-.12291.6492-.30121.97308-.45368Q221.53354,151.79341,221.64871,151.82135Z"/>
    <path class="layer1-color2" d="M266.013,194.28268c-1.85005.59278-3.72131,1.12708-5.54636,1.78894q-9.50687,3.44763-18.98307,6.9797c-.66012.24515-1.03894.18188-1.29189-.51208q-2.60416-7.14417-5.22577-14.282a4.55455,4.55455,0,0,1-.14092-.82219c1.9742,1.567,3.85476,3.27579,5.94636,4.66674a18.93563,18.93563,0,0,0,9.18561,2.81014,34.34025,34.34025,0,0,0,15.72631-2.85795q.37012.951.74023,1.90213a.15025.15025,0,0,1-.15787.09988q-.14852.11706-.29755.23521Z"/>
    <path class="layer1-color4" d="M127.01631,215.52405,116.802,219.17944a90.38343,90.38343,0,0,1,3.21626-21.643,3.13059,3.13059,0,0,1,.2558-.53782c.8286,2.14819,1.67588,4.28943,2.48161,6.44621q2.004,5.36427,3.95995,10.74645a10.26086,10.26086,0,0,1,.28077,1.15167A1.337,1.337,0,0,1,127.01631,215.52405Z"/>
    <path class="layer1-color4" d="M198.67305,218.89654q5.29937-1.99735,10.59915-3.99358c1.33941-.50337,2.69242-.97169,4.02246-1.49839.81284-.3219,1.34276-.23162,1.6703.68451.97794,2.73517,2.02644,5.44516,2.99628,8.1831.21241.59968.69329,1.48323-.637,1.50211C210.78866,223.37052,204.42152,222.31829,198.67305,218.89654Z"/>
    <path class="layer1-color3" d="M176.10084,267.914q1.35428,3.706,2.7086,7.412a24.44011,24.44011,0,0,1-18.15279,1.65219c-.13528-.04856-.26641-.10866-.529-.21665,2.13839-.849,4.169-1.57585,6.13262-2.45271a32.17,32.17,0,0,0,9.04054-5.93232A3.96922,3.96922,0,0,1,176.10084,267.914Z"/>
    <path class="layer1-color2" d="M48.53176,156.35089l-1.53517.72676-7.99675,2.91755a39.765,39.765,0,0,1-6.129-9.4897c-.51045-1.08369-.92173-2.21417-1.4462-3.48792a76.40613,76.40613,0,0,0,6.27429,4.62477,88.98431,88.98431,0,0,0,8.10554,4.05194A13.8094,13.8094,0,0,0,48.53176,156.35089Z"/>
    <path class="layer1-color1" d="M38.99984,159.9952l7.99675-2.91755c1.15065,3.13566,2.30786,6.26894,3.44493,9.40951a14.85316,14.85316,0,0,1,.37718,1.4895,23.53351,23.53351,0,0,1-9.24208-5.32748C40.659,161.83046,39.85549,160.88355,38.99984,159.9952Z"/>
    <path class="layer1-color3" d="M149.51928,207.237c1.202-.39186,2.40406-.78373,3.7244-1.21418,1.97576,5.37925,3.92315,10.68131,5.87058,15.9834a75.28413,75.28413,0,0,1-5.80994-6.69375,52.25612,52.25612,0,0,1-3.57663-7.07075A4.144,4.144,0,0,1,149.51928,207.237Z"/>
    <path class="layer1-color3" d="M127.01631,215.52405a1.337,1.337,0,0,0-.0199-.18113q2.62323-.83071,5.24646-1.6613c-.31075,3.515-.6378,7.02866-.92044,10.54591-.06818.84863.0106,1.70909.02187,2.56368q-1.9177-5.31066-3.84537-10.61691A2.85719,2.85719,0,0,0,127.01631,215.52405Z"/>
    <path class="layer1-color2" d="M53.64208,213.45514q-3.95148,1.465-7.90283,2.93034-2.81992-2.11656-5.64013-4.23351l.19478-.20395c1.70763.24612,3.41.54078,5.12409.72723C48.15525,212.973,50.90031,213.19888,53.64208,213.45514Z"/>
    <path class="layer1-color1" d="M245.65224,217.56393q-.77667-2.186-1.55343-4.37192c3.039-.41325,6.07806-.82649,9.48991-1.2904A29.51158,29.51158,0,0,1,245.65224,217.56393Z"/>
    <path class="layer1-color1" d="M221.64871,151.82135q-.11515-.028-.23241-.04531-1.07946-3.1061-2.15885-6.21208,3.588,2.1891,7.17581,4.37823Q224.041,150.8818,221.64871,151.82135Z"/>
    <path class="layer1-color1" d="M219.98514,210.94781c-1.75009.644-3.50019,1.28795-5.38247,1.98058-.59227-1.65359-1.15245-3.21759-1.71273-4.78164Q216.43746,209.54721,219.98514,210.94781Z"/>
    <path class="layer1-color3" d="M266.42351,193.95612q-.37014-.95108-.74023-1.90213l5.86726-3.0069.21966.28307Z"/>
    <path class="layer1-color1" d="M33.51506,191.37212q-1.423.48379-2.8461.96778c-.26652-.67828-.533-1.35671-.899-2.28829Z"/>
    <path class="layer1-color3" d="M256.91262,168.1881a3.97493,3.97493,0,0,1,.87407-.66533c1.81326-.70723,3.64389-1.36991,5.46853-2.048A13.98688,13.98688,0,0,1,256.91262,168.1881Z"/>
    <path class="layer1-color3" d="M238.11568,204.32987c.39315-.16168.80006-.29657,1.17666-.49044.85138-.43829,1.38564-.25107,1.56582.72811Z"/>
    <path class="layer1-color1" d="M166.09446,241.07286q-.2479-.64357-.4958-1.28717.76523-.72621,1.53035-1.45242l.30622.1727Z"/>
    <path class="layer1-color2" d="M40.09913,212.152l-.28072-.32479.47549.12084Z"/>
    <path class="layer1-color2" d="M276.59383,147.27819l.38955-.18248-.18118.42992Z"/>
    <path class="layer1-color3" d="M177.07164,266.76011c-.02324.0827-.04648.16539-.06737.24323C177.02829,266.919,177.05,266.83956,177.07164,266.76011Z"/>
    <path class="layer1-color2" d="M182.51855,206.245l.284.53133Z"/>
    <path class="layer1-color1" d="M265.96809,194.29121q.1489-.11789.29755-.23521Q266.11665,194.17419,265.96809,194.29121Z"/>
    <polygon class="layer1-color3" points="176.776 267.27 176.724 267.322 176.723 267.268 176.776 267.27"/>
    <polygon class="layer1-color3" points="176.536 267.51 176.483 267.563 176.483 267.507 176.536 267.51"/>
    <path class="layer1-color3" d="M176.29187,267.75251l-.04256.04142Z"/>
    <path class="layer1-color3" d="M131.66964,67.42544c4.23815-1.58624,8.47274-3.18213,12.71549-4.75591q5.97538-2.21649,11.96768-4.38713a7.65581,7.65581,0,0,1,1.27861-.236q4.5455,12.349,9.085,24.70017a9.153,9.153,0,0,1,.26586,1.15393q-12.80733,4.69173-25.61466,9.38343a.87124.87124,0,0,0-.19581.00441Q136.42071,80.35691,131.66964,67.42544Z"/>
    <path class="layer1-color4" d="M169.51971,170.92613c-2.6011.96569-5.13742,1.91351-7.67813,2.8493q-8.31408,3.06228-16.63267,6.11223c-1.49276.54675-1.48411.52727-2.02869-.95814q-4.18572-11.4171-8.38642-22.82872c-.601-1.6328-.581-1.72351,1.05848-2.32619q11.51875-4.23453,23.039-8.46512c.74091-.27342,1.24379-.33608,1.57739.58061q4.46464,12.26889,8.97826,24.52A3.30208,3.30208,0,0,1,169.51971,170.92613Z"/>
    <path class="layer1-color4" d="M141.17178,93.28835a.87139.87139,0,0,1,.19583-.00441c.16593.57009.29937,1.15208.50264,1.70851q4.32705,11.844,8.67077,23.68194a21.284,21.284,0,0,1-2.09957,1.04116q-11.14107,4.121-22.29624,8.20389c-.44489.16376-.86739.38852-1.30026.5848l-.25771-.02254c-.72036-2.14624-1.40465-4.30545-2.1691-6.43585-1.32977-3.70579-2.70186-7.39644-4.07024-11.08824-.82929-2.23739-1.69414-4.46159-2.521-6.69988a11.629,11.629,0,0,1-.33228-1.37814c2.597-.98573,5.18908-1.98482,7.79207-2.95452Q132.225,96.59527,141.17178,93.28835Z"/>
    <path class="layer1-color1" d="M150.541,118.67437q-4.33783-11.84005-8.67077-23.68192c-.20327-.55643-.33671-1.13842-.50264-1.70851l25.61466-9.38343c.79989,1.94823,1.65342,3.87641,2.38964,5.84846,2.24825,6.02228,4.45159,12.06135,6.67185,18.0941.51721,1.40533.4662,1.53507-.97137,2.067q-11.62016,4.29992-23.24864,8.5772A6.18261,6.18261,0,0,1,150.541,118.67437Z"/>
    <path class="layer1-color1" d="M141.17178,93.28835q-8.943,3.317-17.88505,6.63672c-2.603.9697-5.19505,1.96879-7.79207,2.95452a2.02674,2.02674,0,0,1-.23109-.05112q-3.58094-9.69222-7.161-19.38468c-.6343-1.71846-1.27491-3.43493-1.87683-5.16479a10.81067,10.81067,0,0,1-.30244-1.50792l25.62489-9.38976a.11678.11678,0,0,0,.12162.04407Q136.42064,80.35692,141.17178,93.28835Z"/>
  </g>

</svg>
